<?xml version="1.0" encoding="UTF-8" standalone="no"?>
<!-- Created with Inkscape (http://www.inkscape.org/) -->

<svg
   xmlns:dc="http://purl.org/dc/elements/1.1/"
   xmlns:cc="http://creativecommons.org/ns#"
   xmlns:rdf="http://www.w3.org/1999/02/22-rdf-syntax-ns#"
   xmlns:svg="http://www.w3.org/2000/svg"
   xmlns="http://www.w3.org/2000/svg"
   xmlns:sodipodi="http://sodipodi.sourceforge.net/DTD/sodipodi-0.dtd"
   xmlns:inkscape="http://www.inkscape.org/namespaces/inkscape"
   width="5in"
   height="5in"
   viewBox="0 0 450.00001 450.00001"
   id="svg2"
   version="1.1"
   inkscape:version="0.91 r13725"
   sodipodi:docname="billar_circular.svg"
   inkscape:export-filename="billar_circular.png"
   inkscape:export-xdpi="299.90128"
   inkscape:export-ydpi="299.90128">
  <sodipodi:namedview
     id="base"
     pagecolor="#ffffff"
     bordercolor="#666666"
     borderopacity="1.0"
     inkscape:pageopacity="0.0"
     inkscape:pageshadow="2"
     inkscape:zoom="1.9355556"
     inkscape:cx="100.74627"
     inkscape:cy="204.3341"
     inkscape:document-units="px"
     inkscape:current-layer="layer1"
     showgrid="false"
     units="in"
     inkscape:window-width="1920"
     inkscape:window-height="1020"
     inkscape:window-x="0"
     inkscape:window-y="0"
     inkscape:window-maximized="1" />
  <defs
     id="defs4">
    <marker
       inkscape:isstock="true"
       style="overflow:visible"
       id="marker4986"
       refX="0"
       refY="0"
       orient="auto"
       inkscape:stockid="DotM">
      <path
         transform="matrix(0.4,0,0,0.4,2.96,0.4)"
         style="fill:#333333;fill-opacity:1;fill-rule:evenodd;stroke:#333333;stroke-width:1pt;stroke-opacity:1"
         d="m -2.5,-1 c 0,2.76 -2.24,5 -5,5 -2.76,0 -5,-2.24 -5,-5 0,-2.76 2.24,-5 5,-5 2.76,0 5,2.24 5,5 z"
         id="path4988"
         inkscape:connector-curvature="0" />
    </marker>
    <marker
       inkscape:isstock="true"
       style="overflow:visible"
       id="marker4956"
       refX="0"
       refY="0"
       orient="auto"
       inkscape:stockid="DotM">
      <path
         transform="matrix(0.4,0,0,0.4,2.96,0.4)"
         style="fill:#333333;fill-opacity:1;fill-rule:evenodd;stroke:#333333;stroke-width:1pt;stroke-opacity:1"
         d="m -2.5,-1 c 0,2.76 -2.24,5 -5,5 -2.76,0 -5,-2.24 -5,-5 0,-2.76 2.24,-5 5,-5 2.76,0 5,2.24 5,5 z"
         id="path4958"
         inkscape:connector-curvature="0" />
    </marker>
    <marker
       inkscape:isstock="true"
       style="overflow:visible"
       id="DotM"
       refX="0"
       refY="0"
       orient="auto"
       inkscape:stockid="DotM">
      <path
         transform="matrix(0.4,0,0,0.4,2.96,0.4)"
         style="fill:#333333;fill-opacity:1;fill-rule:evenodd;stroke:#333333;stroke-width:1pt;stroke-opacity:1"
         d="m -2.5,-1 c 0,2.76 -2.24,5 -5,5 -2.76,0 -5,-2.24 -5,-5 0,-2.76 2.24,-5 5,-5 2.76,0 5,2.24 5,5 z"
         id="path4233"
         inkscape:connector-curvature="0" />
    </marker>
    <marker
       inkscape:stockid="Arrow1Mend"
       orient="auto"
       refY="0"
       refX="0"
       id="Arrow1Mend"
       style="overflow:visible"
       inkscape:isstock="true">
      <path
         id="path4178"
         d="M 0,0 5,-5 -12.5,0 5,5 0,0 Z"
         style="fill:#333333;fill-opacity:1;fill-rule:evenodd;stroke:#333333;stroke-width:1pt;stroke-opacity:1"
         transform="matrix(-0.4,0,0,-0.4,-4,0)"
         inkscape:connector-curvature="0" />
    </marker>
    <marker
       inkscape:stockid="Arrow1Mstart"
       orient="auto"
       refY="0"
       refX="0"
       id="Arrow1Mstart"
       style="overflow:visible"
       inkscape:isstock="true">
      <path
         id="path4175"
         d="M 0,0 5,-5 -12.5,0 5,5 0,0 Z"
         style="fill:#b3b3b3;fill-opacity:1;fill-rule:evenodd;stroke:#b3b3b3;stroke-width:1pt;stroke-opacity:1"
         transform="matrix(0.4,0,0,0.4,4,0)"
         inkscape:connector-curvature="0" />
    </marker>
    <marker
       inkscape:stockid="Arrow1Mstart"
       orient="auto"
       refY="0"
       refX="0"
       id="Arrow1Mstart-3"
       style="overflow:visible"
       inkscape:isstock="true">
      <path
         id="path4175-0"
         d="M 0,0 5,-5 -12.5,0 5,5 0,0 Z"
         style="fill:#333333;fill-opacity:1;fill-rule:evenodd;stroke:#333333;stroke-width:1pt;stroke-opacity:1"
         transform="matrix(0.4,0,0,0.4,4,0)"
         inkscape:connector-curvature="0" />
    </marker>
    <marker
       inkscape:isstock="true"
       style="overflow:visible"
       id="DotM-7"
       refX="0"
       refY="0"
       orient="auto"
       inkscape:stockid="DotM">
      <path
         transform="matrix(0.4,0,0,0.4,2.96,0.4)"
         style="fill:#333333;fill-opacity:1;fill-rule:evenodd;stroke:#333333;stroke-width:1pt;stroke-opacity:1"
         d="m -2.5,-1 c 0,2.76 -2.24,5 -5,5 -2.76,0 -5,-2.24 -5,-5 0,-2.76 2.24,-5 5,-5 2.76,0 5,2.24 5,5 z"
         id="path4233-8"
         inkscape:connector-curvature="0" />
    </marker>
    <marker
       inkscape:isstock="true"
       style="overflow:visible"
       id="marker4956-9"
       refX="0"
       refY="0"
       orient="auto"
       inkscape:stockid="DotM">
      <path
         transform="matrix(0.4,0,0,0.4,2.96,0.4)"
         style="fill:#333333;fill-opacity:1;fill-rule:evenodd;stroke:#333333;stroke-width:1pt;stroke-opacity:1"
         d="m -2.5,-1 c 0,2.76 -2.24,5 -5,5 -2.76,0 -5,-2.24 -5,-5 0,-2.76 2.24,-5 5,-5 2.76,0 5,2.24 5,5 z"
         id="path4958-1"
         inkscape:connector-curvature="0" />
    </marker>
    <marker
       inkscape:isstock="true"
       style="overflow:visible"
       id="marker4986-5"
       refX="0"
       refY="0"
       orient="auto"
       inkscape:stockid="DotM">
      <path
         transform="matrix(0.4,0,0,0.4,2.96,0.4)"
         style="fill:#333333;fill-opacity:1;fill-rule:evenodd;stroke:#333333;stroke-width:1pt;stroke-opacity:1"
         d="m -2.5,-1 c 0,2.76 -2.24,5 -5,5 -2.76,0 -5,-2.24 -5,-5 0,-2.76 2.24,-5 5,-5 2.76,0 5,2.24 5,5 z"
         id="path4988-4"
         inkscape:connector-curvature="0" />
    </marker>
  </defs>
  <metadata
     id="metadata7">
    <rdf:RDF>
      <cc:Work
         rdf:about="">
        <dc:format>image/svg+xml</dc:format>
        <dc:type
           rdf:resource="http://purl.org/dc/dcmitype/StillImage" />
        <dc:title />
      </cc:Work>
    </rdf:RDF>
  </metadata>
  <g
     inkscape:label="Layer 1"
     inkscape:groupmode="layer"
     id="layer1"
     transform="translate(0,-602.36215)">
    <ellipse
       style="color:#000000;clip-rule:nonzero;display:inline;overflow:visible;visibility:visible;opacity:1;isolation:auto;mix-blend-mode:normal;color-interpolation:sRGB;color-interpolation-filters:linearRGB;solid-color:#000000;solid-opacity:1;fill:#2a9755;fill-opacity:0.99215686;fill-rule:evenodd;stroke:#333333;stroke-width:4;stroke-linecap:square;stroke-linejoin:bevel;stroke-miterlimit:4;stroke-dasharray:none;stroke-dashoffset:0;stroke-opacity:0.98431373;color-rendering:auto;image-rendering:auto;shape-rendering:auto;text-rendering:auto;enable-background:accumulate"
       id="path4155"
       cx="220.14243"
       cy="846.76831"
       rx="180.16295"
       ry="180.1707" />
    <circle
       r="18.631359"
       cy="918.56158"
       cx="290.08099"
       id="circle5729"
       style="color:#000000;clip-rule:nonzero;display:inline;overflow:visible;visibility:visible;opacity:1;isolation:auto;mix-blend-mode:normal;color-interpolation:sRGB;color-interpolation-filters:linearRGB;solid-color:#000000;solid-opacity:1;fill:#ffffff;fill-opacity:1;fill-rule:evenodd;stroke:#333333;stroke-width:2;stroke-linecap:square;stroke-linejoin:bevel;stroke-miterlimit:4;stroke-dasharray:none;stroke-dashoffset:0;stroke-opacity:1;color-rendering:auto;image-rendering:auto;shape-rendering:auto;text-rendering:auto;enable-background:accumulate" />
    <circle
       style="color:#000000;clip-rule:nonzero;display:inline;overflow:visible;visibility:visible;opacity:1;isolation:auto;mix-blend-mode:normal;color-interpolation:sRGB;color-interpolation-filters:linearRGB;solid-color:#000000;solid-opacity:1;fill:#0066ff;fill-opacity:1;fill-rule:evenodd;stroke:#333333;stroke-width:2;stroke-linecap:square;stroke-linejoin:bevel;stroke-miterlimit:4;stroke-dasharray:none;stroke-dashoffset:0;stroke-opacity:1;color-rendering:auto;image-rendering:auto;shape-rendering:auto;text-rendering:auto;enable-background:accumulate"
       id="path5727"
       cx="105.34389"
       cy="864.88916"
       r="18.631359" />
    <path
       sodipodi:nodetypes="ccc"
       style="fill:none;fill-rule:evenodd;stroke:#b3b3b3;stroke-width:2;stroke-linecap:butt;stroke-linejoin:bevel;stroke-miterlimit:4;stroke-dasharray:none;stroke-opacity:1;marker-start:"
       d="m 432.85364,847.47149 -213.25063,0.006 63.12028,-168.04312"
       id="path4157"
       inkscape:connector-curvature="0" />
    <g
       id="g4490"
       transform="matrix(1.0500327,0,0,1.0500779,227.9339,540.07549)"
       style="fill:#b3b3b3;fill-opacity:1">
      <g
         id="content"
         transform="matrix(0.64285714,0,0,-0.64285714,-112.5,540)"
         xml:space="preserve"
         stroke-miterlimit="10.433"
         font-style="normal"
         font-variant="normal"
         font-weight="normal"
         font-stretch="normal"
         font-size-adjust="none"
         letter-spacing="normal"
         word-spacing="normal"
         style="font-style:normal;font-variant:normal;font-weight:normal;font-stretch:normal;letter-spacing:normal;word-spacing:normal;text-anchor:start;fill:#b3b3b3;fill-opacity:1;fill-rule:evenodd;stroke:#000000;stroke-width:0.95233077;stroke-linecap:butt;stroke-linejoin:miter;stroke-miterlimit:10.43299961;stroke-dasharray:none;stroke-dashoffset:0;stroke-opacity:1"><path
           d="m 472.16,421.25 0.03,0.13 0.04,0.15 0.04,0.16 0.04,0.18 0.06,0.19 0.06,0.21 0.06,0.22 0.07,0.22 0.08,0.23 0.09,0.24 0.1,0.25 0.1,0.24 0.11,0.25 0.12,0.25 0.13,0.25 0.14,0.25 0.15,0.24 0.15,0.24 0.17,0.23 0.18,0.22 0.18,0.22 0.2,0.2 0.21,0.19 0.22,0.18 0.23,0.16 0.25,0.14 0.12,0.07 0.13,0.06 0.14,0.05 0.13,0.05 0.14,0.05 0.14,0.04 0.15,0.03 0.15,0.03 0.15,0.02 0.16,0.02 0.16,0.01 0.16,0 c 0.25,0 1.44,0 2.48,-0.64 -1.39,-0.25 -2.39,-1.5 -2.39,-2.69 0,-0.79 0.55,-1.75 1.89,-1.75 1.1,0 2.69,0.89 2.69,2.89 0,2.6 -2.94,3.28 -4.63,3.28 -2.89,0 -4.64,-2.64 -5.23,-3.78 -1.25,3.28 -3.94,3.78 -5.37,3.78 -5.19,0 -8.04,-6.42 -8.04,-7.67 0,-0.5 0.5,-0.5 0.61,-0.5 0.39,0 0.55,0.11 0.64,0.55 1.69,5.28 4.99,6.53 6.68,6.53 0.95,0 2.68,-0.44 2.68,-3.33 0,-1.54 -0.84,-4.89 -2.68,-11.86 -0.8,-3.09 -2.54,-5.18 -4.74,-5.18 -0.3,0 -1.44,0 -2.48,0.65 1.25,0.24 2.34,1.28 2.34,2.69 0,1.34 -1.09,1.73 -1.84,1.73 -1.5,0 -2.75,-1.29 -2.75,-2.89 0,-2.28 2.5,-3.28 4.68,-3.28 3.3,0 5.08,3.49 5.24,3.78 0.59,-1.84 2.39,-3.78 5.37,-3.78 5.14,0 7.99,6.42 7.99,7.67 0,0.5 -0.45,0.5 -0.61,0.5 -0.44,0 -0.55,-0.2 -0.64,-0.54 -1.64,-5.33 -5.03,-6.53 -6.63,-6.53 -1.95,0 -2.75,1.59 -2.75,3.29 0,1.1 0.3,2.19 0.86,4.38 z"
           id="path4493"
           inkscape:connector-curvature="0"
           style="fill:#b3b3b3;fill-opacity:1;stroke-width:0" /></g>    </g>
    <g
       id="g4615"
       transform="matrix(1.0500327,0,0,1.050078,-0.90747974,583.13835)">
      <g
         word-spacing="normal"
         letter-spacing="normal"
         font-size-adjust="none"
         font-stretch="normal"
         font-weight="normal"
         font-variant="normal"
         font-style="normal"
         stroke-miterlimit="10.433"
         xml:space="preserve"
         transform="matrix(0.64285714,0,0,-0.64285714,-112.5,540)"
         id="g4617"
         style="font-style:normal;font-variant:normal;font-weight:normal;font-stretch:normal;letter-spacing:normal;word-spacing:normal;text-anchor:start;fill:none;fill-opacity:1;fill-rule:evenodd;stroke:#000000;stroke-width:0.95233077;stroke-linecap:butt;stroke-linejoin:miter;stroke-miterlimit:10.43299961;stroke-dasharray:none;stroke-dashoffset:0;stroke-opacity:1"><path
           id="path4619"
           d="m 492.39,427.92 -0.01,0.74 -0.05,0.73 -0.07,0.71 -0.11,0.7 -0.13,0.68 -0.16,0.66 -0.19,0.64 -0.22,0.62 -0.24,0.6 -0.27,0.59 -0.29,0.56 -0.32,0.54 -0.34,0.52 -0.37,0.5 -0.38,0.47 -0.42,0.45 -0.43,0.43 -0.45,0.41 -0.48,0.38 -0.49,0.35 -0.52,0.33 -0.53,0.3 -0.55,0.28 -0.57,0.25 -0.59,0.22 -0.6,0.2 -0.62,0.16 -0.63,0.14 -0.65,0.1 -0.67,0.08 -0.67,0.05 -0.69,0.01 -0.3,-1.25 c 4.09,0 8.58,-2.78 8.58,-10.2 0,-3.59 -1.35,-11.36 -6.28,-17.5 -2.39,-3.03 -6.49,-5.97 -10.66,-5.97 l 0,0 c -4.94,0 -8.42,4.03 -8.42,10.61 0,2.19 0.69,9.47 4.53,15.3 3.44,5.17 8.31,7.76 12.25,7.76 l 0.3,1.25 c -10.75,0 -21.72,-11.31 -21.72,-22.92 0,-8.26 5.58,-13.29 12.76,-13.29 10.55,0 21.67,10.9 21.67,22.81 z"
           inkscape:connector-curvature="0"
           style="fill:#000000;stroke-width:0" /></g>    </g>
    <g
       id="g4669"
       transform="matrix(1.0500327,0,0,1.050078,98.446715,373.94972)">
      <g
         id="g4671"
         transform="matrix(0.64285714,0,0,-0.64285714,-112.5,540)"
         xml:space="preserve"
         stroke-miterlimit="10.433"
         font-style="normal"
         font-variant="normal"
         font-weight="normal"
         font-stretch="normal"
         font-size-adjust="none"
         letter-spacing="normal"
         word-spacing="normal"
         style="font-style:normal;font-variant:normal;font-weight:normal;font-stretch:normal;letter-spacing:normal;word-spacing:normal;text-anchor:start;fill:none;fill-opacity:1;fill-rule:evenodd;stroke:#000000;stroke-width:0.95233077;stroke-linecap:butt;stroke-linejoin:miter;stroke-miterlimit:10.43299961;stroke-dasharray:none;stroke-dashoffset:0;stroke-opacity:1"><path
           d="m 474.16,436.39 0.04,0.16 0.04,0.16 0.04,0.15 0.04,0.14 0.04,0.14 0.04,0.13 0.05,0.12 0.05,0.11 0.05,0.11 0.06,0.11 0.07,0.09 0.07,0.09 0.08,0.09 0.08,0.08 0.1,0.07 0.1,0.07 0.12,0.06 0.12,0.06 0.14,0.05 0.15,0.05 0.17,0.04 0.08,0.02 0.09,0.02 0.1,0.02 0.1,0.02 0.1,0.01 0.1,0.02 0.11,0.01 0.12,0.01 0.12,0.02 0.12,0.01 0.13,0.01 0.13,0 0.13,0.01 0.14,0.01 0.15,0.01 0.15,0 0.16,0 0.16,0.01 0.16,0 0.17,0 0.18,0 0.18,0 c 1.19,0 1.6,0 1.6,0.96 0,0.59 -0.55,0.59 -0.75,0.59 -1.46,0 -5.15,-0.16 -6.58,-0.16 -1.5,0 -5.13,0.16 -6.63,0.16 -0.34,0 -1,0 -1,-1 0,-0.55 0.46,-0.55 1.39,-0.55 2.1,0 3.44,0 3.44,-0.95 0,-0.25 0,-0.34 -0.09,-0.8 l -6.72,-26.84 c -0.46,-1.84 -0.61,-2.34 -4.55,-2.34 -1.14,0 -1.59,0 -1.59,-1 0,-0.55 0.61,-0.55 0.75,-0.55 1.45,0 5.08,0.16 6.53,0.16 1.5,0 5.19,-0.16 6.67,-0.16 0.41,0 1,0 1,0.95 0,0.6 -0.41,0.6 -1.5,0.6 -0.89,0 -1.14,0 -2.14,0.09 -1.05,0.11 -1.23,0.3 -1.23,0.84 0,0.41 0.09,0.8 0.18,1.16 z"
           id="path4673"
           inkscape:connector-curvature="0"
           style="fill:#000000;stroke-width:0" /></g>    </g>
    <g
       id="g4729"
       transform="matrix(1.0500327,0,0,1.050078,50.969361,659.97649)">
      <g
         word-spacing="normal"
         letter-spacing="normal"
         font-size-adjust="none"
         font-stretch="normal"
         font-weight="normal"
         font-variant="normal"
         font-style="normal"
         stroke-miterlimit="10.433"
         xml:space="preserve"
         transform="matrix(0.64285714,0,0,-0.64285714,-112.5,540)"
         id="g4731"
         style="font-style:normal;font-variant:normal;font-weight:normal;font-stretch:normal;letter-spacing:normal;word-spacing:normal;text-anchor:start;fill:none;fill-opacity:1;fill-rule:evenodd;stroke:#000000;stroke-width:0.95233077;stroke-linecap:butt;stroke-linejoin:miter;stroke-miterlimit:10.43299961;stroke-dasharray:none;stroke-dashoffset:0;stroke-opacity:1"><path
           id="path4733"
           d="m 470.61,421.95 0.21,1.28 3.39,13.56 c 0.43,1.74 0.54,1.89 2.68,1.89 l 4.79,0 c 4.14,0 6.78,-1.34 6.78,-4.78 0,-1.95 -1,-6.23 -2.94,-8.03 -2.5,-2.23 -5.48,-2.64 -7.69,-2.64 l -7.01,0 -0.21,-1.28 8.47,0 c 7.08,0 14,5.17 14,10.75 0,3.84 -3.28,7.53 -9.81,7.53 l -16.14,0 c -0.95,0 -1.5,0 -1.5,-0.95 0,-0.6 0.45,-0.6 1.45,-0.6 0.64,0 1.55,-0.04 2.14,-0.09 0.8,-0.11 1.1,-0.25 1.1,-0.8 0,-0.2 -0.05,-0.36 -0.21,-0.95 l -6.67,-26.75 c -0.5,-1.95 -0.59,-2.34 -4.53,-2.34 -0.84,0 -1.39,0 -1.39,-0.96 0,-0.59 0.59,-0.59 0.73,-0.59 1.41,0 4.94,0.16 6.33,0.16 1.05,0 2.14,-0.07 3.19,-0.07 1.11,0 2.2,-0.09 3.25,-0.09 0.34,0 0.98,0 0.98,1 0,0.55 -0.43,0.55 -1.39,0.55 -1.84,0 -3.23,0 -3.23,0.89 0,0.29 0.09,0.54 0.14,0.84 z"
           inkscape:connector-curvature="0"
           style="fill:#000000;stroke-width:0" /></g>    </g>
    <g
       id="g4795"
       transform="matrix(1.0500327,0,0,1.050078,-132.17328,570.65387)">
      <g
         id="g4797"
         transform="matrix(0.64285714,0,0,-0.64285714,-112.5,540)"
         xml:space="preserve"
         stroke-miterlimit="10.433"
         font-style="normal"
         font-variant="normal"
         font-weight="normal"
         font-stretch="normal"
         font-size-adjust="none"
         letter-spacing="normal"
         word-spacing="normal"
         style="font-style:normal;font-variant:normal;font-weight:normal;font-stretch:normal;letter-spacing:normal;word-spacing:normal;text-anchor:start;fill:none;fill-opacity:1;fill-rule:evenodd;stroke:#000000;stroke-width:0.95233077;stroke-linecap:butt;stroke-linejoin:miter;stroke-miterlimit:10.43299961;stroke-dasharray:none;stroke-dashoffset:0;stroke-opacity:1"><path
           d="m 477.35,406.5 0.72,0.29 0.72,0.33 0.71,0.35 0.71,0.4 0.7,0.42 0.69,0.45 0.68,0.48 0.68,0.51 0.65,0.54 0.65,0.56 0.63,0.59 0.61,0.61 0.6,0.64 0.57,0.66 0.56,0.68 0.54,0.7 0.51,0.72 0.49,0.73 0.46,0.76 0.44,0.77 0.41,0.79 0.38,0.8 0.35,0.82 0.32,0.83 0.29,0.84 0.25,0.85 0.21,0.87 0.18,0.87 0.15,0.88 0.1,0.89 0.06,0.89 0.02,0.9 c 0,8.03 -5.28,13.4 -12.71,13.4 l -0.3,-1.25 c 4.98,0 8.62,-3.87 8.62,-10.56 0,-4.98 -2.54,-16.64 -10.9,-21.31 -0.25,1.73 -0.75,5.37 -4.39,5.37 l 0,-1.09 c 2.09,0 3.04,-1.2 3.04,-4.23 0,-0.75 -0.06,-0.8 -0.56,-1 -1.28,-0.55 -2.78,-0.89 -4.17,-0.89 l 0,0 c -0.7,0 -2.3,0 -2.3,2.14 0,1.98 1.89,3.98 3.99,3.98 l 0,1.09 c -2.64,0 -5.08,-2.5 -5.08,-5.07 0,-1 0.3,-1.55 0.3,-1.6 l 0,0 c -3.89,1.53 -5.58,5.42 -5.58,9.91 0,3.44 1.29,10.51 5.08,15.89 3.64,5.09 8.32,7.37 11.95,7.37 l 0.3,1.25 c -10.75,0 -21.72,-11.31 -21.72,-22.92 0,-8.26 5.58,-13.29 12.76,-13.29 1.24,0 2.94,0.2 4.88,0.75 -0.21,-3.1 -0.21,-3.19 -0.21,-3.85 0,-1.59 0,-5.48 4.15,-5.48 5.92,0 8.31,9.12 8.31,9.67 0,0.34 -0.35,0.5 -0.55,0.5 -0.39,0 -0.5,-0.25 -0.59,-0.55 -1.19,-3.54 -4.08,-4.78 -5.83,-4.78 -2.3,0 -3.05,1.34 -3.53,5.13 z"
           id="path4799"
           inkscape:connector-curvature="0"
           style="fill:#000000;stroke-width:0" /></g>    </g>
    <path
       inkscape:connector-curvature="0"
       id="path4908"
       d="m 289.60904,917.39275 -6.96956,-237.67197 -177.72359,184.7011 0,0"
       style="fill:none;fill-rule:evenodd;stroke:#333333;stroke-width:2;stroke-linecap:butt;stroke-linejoin:bevel;stroke-miterlimit:4;stroke-dasharray:16,16;stroke-opacity:1;marker-start:url(#DotM);marker-mid:url(#marker4956);marker-end:url(#marker4986);stroke-dashoffset:0" />
    <g
       id="g5481"
       transform="matrix(1.0500327,0,0,1.050078,68.07858,506.95811)"
       style="fill:#b3b3b3;fill-opacity:1">
      <g
         word-spacing="normal"
         letter-spacing="normal"
         font-size-adjust="none"
         font-stretch="normal"
         font-weight="normal"
         font-variant="normal"
         font-style="normal"
         stroke-miterlimit="10.433"
         xml:space="preserve"
         transform="matrix(0.64285714,0,0,-0.64285714,-112.5,540)"
         id="g5483"
         style="font-style:normal;font-variant:normal;font-weight:normal;font-stretch:normal;letter-spacing:normal;word-spacing:normal;text-anchor:start;fill:#b3b3b3;fill-opacity:1;fill-rule:evenodd;stroke:#000000;stroke-width:0.95233077;stroke-linecap:butt;stroke-linejoin:miter;stroke-miterlimit:10.43299961;stroke-dasharray:none;stroke-dashoffset:0;stroke-opacity:1"><path
           id="path5485"
           d="m 478.19,431.11 0,0.31 -0.01,0.34 -0.02,0.36 -0.02,0.37 -0.03,0.39 -0.04,0.39 -0.04,0.41 -0.06,0.41 -0.07,0.42 -0.07,0.43 -0.09,0.42 -0.1,0.43 -0.12,0.42 -0.12,0.42 -0.14,0.41 -0.16,0.41 -0.17,0.4 -0.18,0.38 -0.2,0.37 -0.22,0.36 -0.23,0.34 -0.25,0.32 -0.28,0.3 -0.29,0.27 -0.31,0.25 -0.16,0.12 -0.17,0.1 -0.17,0.1 -0.18,0.1 -0.18,0.08 -0.19,0.08 -0.19,0.07 -0.2,0.06 -0.21,0.05 -0.21,0.05 -0.22,0.03 -0.22,0.02 -0.23,0.02 -0.23,0 -0.05,-1.09 c 2.44,0 2.73,-3.19 2.73,-6.03 0,-2.44 -0.39,-4.99 -1.59,-9.92 l -10.41,0 c 0.85,3.2 1.85,7.18 3.83,10.72 1.36,2.43 3.19,5.23 5.44,5.23 l 0.05,1.09 c -6.92,0 -14.6,-14.04 -14.6,-25.45 0,-4.69 1.44,-10.22 5.99,-10.22 l 0,1.1 c -1.66,0 -2.71,1.45 -2.71,6.07 0,2.1 0.3,4.99 1.6,9.86 l 10.37,0 c -0.54,-2.28 -1.59,-6.51 -3.5,-10.11 -1.73,-3.39 -3.62,-5.82 -5.76,-5.82 l 0,-1.1 c 7.01,0 14.59,14.3 14.59,25.46 z"
           inkscape:connector-curvature="0"
           style="fill:#b3b3b3;fill-opacity:1;stroke-width:0" /></g>    </g>
    <path
       id="ellipse5608"
       style="color:#000000;clip-rule:nonzero;display:inline;overflow:visible;visibility:visible;opacity:1;isolation:auto;mix-blend-mode:normal;color-interpolation:sRGB;color-interpolation-filters:linearRGB;solid-color:#000000;solid-opacity:1;fill:none;fill-opacity:0.99215686;fill-rule:evenodd;stroke:#b3b3b3;stroke-width:2;stroke-linecap:square;stroke-linejoin:bevel;stroke-miterlimit:4;stroke-dasharray:none;stroke-dashoffset:0;stroke-opacity:1;color-rendering:auto;image-rendering:auto;shape-rendering:auto;text-rendering:auto;enable-background:accumulate"
       sodipodi:type="arc"
       sodipodi:cx="220.14243"
       sodipodi:cy="846.76831"
       sodipodi:rx="52.427528"
       sodipodi:ry="52.429817"
       sodipodi:start="5.0756013"
       sodipodi:end="6.2768459"
       d="m 238.76882,797.75899 a 52.427528,52.429817 0 0 1 33.80008,48.67695"
       sodipodi:open="true" />
    <g
       id="g6870"
       transform="matrix(1.1422971,0,0,1.1400891,-40.431801,-129.89711)"
       style="fill:#ac9d93;stroke:#1a1a1a;stroke-width:0.19278079;stroke-miterlimit:4;stroke-dasharray:none">
      <path
         style="color:#000000;font-style:normal;font-variant:normal;font-weight:normal;font-stretch:normal;font-size:medium;line-height:normal;font-family:sans-serif;text-indent:0;text-align:start;text-decoration:none;text-decoration-line:none;text-decoration-style:solid;text-decoration-color:#000000;letter-spacing:normal;word-spacing:normal;text-transform:none;direction:ltr;block-progression:tb;writing-mode:lr-tb;baseline-shift:baseline;text-anchor:start;white-space:normal;clip-rule:nonzero;display:inline;overflow:visible;visibility:visible;opacity:1;isolation:auto;mix-blend-mode:normal;color-interpolation:sRGB;color-interpolation-filters:linearRGB;solid-color:#000000;solid-opacity:1;fill:#ac9d93;fill-opacity:1;fill-rule:evenodd;stroke:#1a1a1a;stroke-width:0.19278079;stroke-linecap:butt;stroke-linejoin:bevel;stroke-miterlimit:4;stroke-dasharray:none;stroke-dashoffset:0;stroke-opacity:1;color-rendering:auto;image-rendering:auto;shape-rendering:auto;text-rendering:auto;enable-background:accumulate"
         d="m 296.39982,1036.9885 -3.78401,-99.15647 -5.1574,0.1456 1.83179,99.01087"
         id="path4908-9"
         inkscape:connector-curvature="0"
         sodipodi:nodetypes="cccc" />
    </g>
  </g>
</svg>
