<?xml version="1.0" encoding="UTF-8" standalone="no"?>
<svg
   xmlns:dc="http://purl.org/dc/elements/1.1/"
   xmlns:cc="http://creativecommons.org/ns#"
   xmlns:rdf="http://www.w3.org/1999/02/22-rdf-syntax-ns#"
   xmlns:svg="http://www.w3.org/2000/svg"
   xmlns="http://www.w3.org/2000/svg"
   xmlns:xlink="http://www.w3.org/1999/xlink"
   xmlns:sodipodi="http://sodipodi.sourceforge.net/DTD/sodipodi-0.dtd"
   xmlns:inkscape="http://www.inkscape.org/namespaces/inkscape"
   width="224.85831mm"
   height="212.27704mm"
   viewBox="0 0 224.85831 212.27704"
   version="1.1"
   id="svg2"
   sodipodi:version="0.32"
   inkscape:version="0.91 r13725"
   sodipodi:docname="tubo_seccion_variable.svg"
   inkscape:output_extension="org.inkscape.output.svg.inkscape">
  <!-- Working space 10 10 410 287 -->
  <!-- Title block 220 227 410 287 -->
  <metadata
     id="metadata849">
    <rdf:RDF>
      <cc:Work
         rdf:about="">
        <dc:format>image/svg+xml</dc:format>
        <dc:type
           rdf:resource="http://purl.org/dc/dcmitype/StillImage" />
        <dc:title></dc:title>
      </cc:Work>
    </rdf:RDF>
  </metadata>
  <defs
     id="defs847">
    <linearGradient
       x1="649.42902"
       y1="807.466"
       x2="655.35199"
       y2="485.909"
       id="defitem29"
       gradientUnits="userSpaceOnUse">
      <stop
         style="stop-color:#ffffff;stop-opacity:1.0000000;"
         offset="0.0000000"
         id="stop92" />
      <stop
         style="stop-color:#ffffff;stop-opacity:0.13756600;"
         offset="1.0000000"
         id="stop93" />
    </linearGradient>
    <linearGradient
       y2="485.909"
       x2="655.35199"
       y1="807.466"
       x1="649.42902"
       gradientUnits="userSpaceOnUse"
       id="linearGradient3448"
       xlink:href="#defitem29"
       inkscape:collect="always" />
    <radialGradient
       cx="1049.72"
       cy="345.56"
       r="1202.15"
       fx="1049.72"
       fy="345.56"
       id="defitem28"
       gradientUnits="userSpaceOnUse">
      <stop
         style="stop-color:#ffffff;stop-opacity:1.0000000;"
         offset="0.0000000"
         id="stop89" />
      <stop
         style="stop-color:#a8a8a8;stop-opacity:1.0000000;"
         offset="1.0000000"
         id="stop90" />
    </radialGradient>
    <radialGradient
       r="1202.15"
       fy="64.844765"
       fx="1089.4004"
       cy="64.845284"
       cx="1092.7045"
       gradientUnits="userSpaceOnUse"
       id="radialGradient3446"
       xlink:href="#defitem28"
       inkscape:collect="always" />
    <linearGradient
       x1="287.5"
       y1="636.70697"
       x2="980"
       y2="636.70697"
       id="defitem30"
       gradientUnits="userSpaceOnUse">
      <stop
         style="stop-color:#464646;stop-opacity:1.0000000;"
         offset="0.0000000"
         id="stop95" />
      <stop
         style="stop-color:#c2c2c2;stop-opacity:1.0000000;"
         offset="1.0000000"
         id="stop96" />
    </linearGradient>
    <linearGradient
       y2="636.70697"
       x2="980"
       y1="636.70697"
       x1="287.5"
       gradientTransform="matrix(1,0,0,1.016038,0,-11.73855)"
       gradientUnits="userSpaceOnUse"
       id="linearGradient3444"
       xlink:href="#defitem30"
       inkscape:collect="always" />
    <linearGradient
       x1="921.091"
       y1="403.18799"
       x2="985.98199"
       y2="317.44699"
       id="defitem27"
       gradientUnits="userSpaceOnUse">
      <stop
         style="stop-color:#7e7e7e;stop-opacity:1.0000000;"
         offset="0.0000000"
         id="stop86" />
      <stop
         style="stop-color:#e5e5e5;stop-opacity:1.0000000;"
         offset="1.0000000"
         id="stop87" />
    </linearGradient>
    <linearGradient
       y2="317.44699"
       x2="985.98199"
       y1="403.18799"
       x1="921.091"
       gradientUnits="userSpaceOnUse"
       id="linearGradient3442"
       xlink:href="#defitem27"
       inkscape:collect="always" />
    <linearGradient
       x1="530.76099"
       y1="346.30399"
       x2="293.37"
       y2="360.27499"
       id="defitem26"
       gradientUnits="userSpaceOnUse">
      <stop
         style="stop-color:#5f5f5f;stop-opacity:1.0000000;"
         offset="0.0000000"
         id="stop83" />
      <stop
         style="stop-color:#e5e5e5;stop-opacity:1.0000000;"
         offset="1.0000000"
         id="stop84" />
    </linearGradient>
    <linearGradient
       y2="360.27499"
       x2="293.37"
       y1="346.30399"
       x1="530.76099"
       gradientUnits="userSpaceOnUse"
       id="linearGradient3440"
       xlink:href="#defitem26"
       inkscape:collect="always" />
    <linearGradient
       x1="164.013"
       y1="412.91901"
       x2="308.75"
       y2="337.60999"
       id="defitem25"
       gradientUnits="userSpaceOnUse">
      <stop
         style="stop-color:#ffffff;stop-opacity:1.0000000;"
         offset="0.0000000"
         id="stop80" />
      <stop
         style="stop-color:#bfbfbf;stop-opacity:1.0000000;"
         offset="1.0000000"
         id="stop81" />
    </linearGradient>
    <linearGradient
       y2="337.60999"
       x2="308.75"
       y1="412.91901"
       x1="164.013"
       gradientUnits="userSpaceOnUse"
       id="linearGradient3438"
       xlink:href="#defitem25"
       inkscape:collect="always" />
    <linearGradient
       x1="1094.25"
       y1="270.854"
       x2="992.48901"
       y2="380.47198"
       id="defitem24"
       gradientUnits="userSpaceOnUse">
      <stop
         style="stop-color:#6a6a6a;stop-opacity:1.0000000;"
         offset="0.0000000"
         id="stop77" />
      <stop
         style="stop-color:#e6e6e6;stop-opacity:1.0000000;"
         offset="1.0000000"
         id="stop78" />
    </linearGradient>
    <linearGradient
       y2="380.47198"
       x2="992.48901"
       y1="270.854"
       x1="1094.25"
       gradientUnits="userSpaceOnUse"
       id="linearGradient3436"
       xlink:href="#defitem24"
       inkscape:collect="always" />
    <linearGradient
       x1="1170.91"
       y1="476.465"
       x2="1049.84"
       y2="549.37799"
       id="defitem23"
       gradientUnits="userSpaceOnUse">
      <stop
         style="stop-color:#5f5f5f;stop-opacity:1.0000000;"
         offset="0.0000000"
         id="stop74" />
      <stop
         style="stop-color:#ebebeb;stop-opacity:1.0000000;"
         offset="1.0000000"
         id="stop75" />
    </linearGradient>
    <linearGradient
       y2="549.37799"
       x2="1049.84"
       y1="476.465"
       x1="1170.91"
       gradientUnits="userSpaceOnUse"
       id="linearGradient3434"
       xlink:href="#defitem23"
       inkscape:collect="always" />
    <linearGradient
       x1="783.716"
       y1="105.486"
       x2="576.14899"
       y2="313.276"
       id="defitem22"
       gradientUnits="userSpaceOnUse">
      <stop
         style="stop-color:#5a5a5a;stop-opacity:1.0000000;"
         offset="0.0000000"
         id="stop71" />
      <stop
         style="stop-color:#c7c7c7;stop-opacity:1.0000000;"
         offset="1.0000000"
         id="stop72" />
    </linearGradient>
    <linearGradient
       y2="313.276"
       x2="576.14899"
       y1="105.486"
       x1="783.716"
       gradientUnits="userSpaceOnUse"
       id="linearGradient3432"
       xlink:href="#defitem22"
       inkscape:collect="always" />
    <linearGradient
       x1="280.04401"
       y1="418.698"
       x2="128.05499"
       y2="484.716"
       id="defitem21"
       gradientUnits="userSpaceOnUse">
      <stop
         style="stop-color:#666666;stop-opacity:1.0000000;"
         offset="0.0000000"
         id="stop68" />
      <stop
         style="stop-color:#d8d8d8;stop-opacity:1.0000000;"
         offset="1.0000000"
         id="stop69" />
    </linearGradient>
    <linearGradient
       y2="484.716"
       x2="128.05499"
       y1="418.698"
       x1="280.04401"
       gradientUnits="userSpaceOnUse"
       id="linearGradient3430"
       xlink:href="#defitem21"
       inkscape:collect="always" />
    <linearGradient
       x1="129.687"
       y1="636.95398"
       x2="220"
       y2="584.40997"
       id="defitem20"
       gradientUnits="userSpaceOnUse">
      <stop
         style="stop-color:#ffffff;stop-opacity:1.0000000;"
         offset="0.0000000"
         id="stop65" />
      <stop
         style="stop-color:#bbbbbb;stop-opacity:1.0000000;"
         offset="1.0000000"
         id="stop66" />
    </linearGradient>
    <linearGradient
       y2="584.40997"
       x2="220"
       y1="636.95398"
       x1="129.687"
       gradientUnits="userSpaceOnUse"
       id="linearGradient3428"
       xlink:href="#defitem20"
       inkscape:collect="always" />
    <linearGradient
       x1="1048.72"
       y1="629.02802"
       x2="1127.98"
       y2="583.75299"
       id="defitem19"
       gradientUnits="userSpaceOnUse">
      <stop
         style="stop-color:#5e5e5e;stop-opacity:1.0000000;"
         offset="0.0000000"
         id="stop62" />
      <stop
         style="stop-color:#ededed;stop-opacity:1.0000000;"
         offset="1.0000000"
         id="stop63" />
    </linearGradient>
    <linearGradient
       y2="583.75299"
       x2="1127.98"
       y1="629.02802"
       x1="1048.72"
       gradientUnits="userSpaceOnUse"
       id="linearGradient3426"
       xlink:href="#defitem19"
       inkscape:collect="always" />
    <linearGradient
       x1="370.022"
       y1="387.27301"
       x2="581.32397"
       y2="291.97699"
       id="defitem18"
       gradientUnits="userSpaceOnUse">
      <stop
         style="stop-color:#636363;stop-opacity:1.0000000;"
         offset="0.0000000"
         id="stop59" />
      <stop
         style="stop-color:#d6d6d6;stop-opacity:1.0000000;"
         offset="1.0000000"
         id="stop60" />
    </linearGradient>
    <linearGradient
       y2="291.97699"
       x2="581.32397"
       y1="387.27301"
       x1="370.022"
       gradientUnits="userSpaceOnUse"
       id="linearGradient3424"
       xlink:href="#defitem18"
       inkscape:collect="always" />
    <linearGradient
       x1="732.15601"
       y1="351.939"
       x2="909.59399"
       y2="351.939"
       id="defitem17"
       gradientUnits="userSpaceOnUse">
      <stop
         style="stop-color:#676767;stop-opacity:1.0000000;"
         offset="0.0000000"
         id="stop56" />
      <stop
         style="stop-color:#d3d3d3;stop-opacity:1.0000000;"
         offset="1.0000000"
         id="stop57" />
    </linearGradient>
    <linearGradient
       y2="351.939"
       x2="909.59399"
       y1="351.939"
       x1="732.15601"
       gradientUnits="userSpaceOnUse"
       id="linearGradient3422"
       xlink:href="#defitem17"
       inkscape:collect="always" />
    <linearGradient
       x1="1014.43"
       y1="494.71301"
       x2="1073.01"
       y2="494.71301"
       id="defitem16"
       gradientUnits="userSpaceOnUse">
      <stop
         style="stop-color:#666666;stop-opacity:1.0000000;"
         offset="0.0000000"
         id="stop53" />
      <stop
         style="stop-color:#dcdcdc;stop-opacity:1.0000000;"
         offset="1.0000000"
         id="stop54" />
    </linearGradient>
    <linearGradient
       y2="494.71301"
       x2="1073.01"
       y1="494.71301"
       x1="1014.43"
       gradientUnits="userSpaceOnUse"
       id="linearGradient3420"
       xlink:href="#defitem16"
       inkscape:collect="always" />
    <linearGradient
       x1="272.59201"
       y1="452.388"
       x2="193.27699"
       y2="516.37"
       id="defitem15"
       gradientUnits="userSpaceOnUse">
      <stop
         style="stop-color:#6e6e6e;stop-opacity:1.0000000;"
         offset="0.0000000"
         id="stop50" />
      <stop
         style="stop-color:#d8d8d8;stop-opacity:1.0000000;"
         offset="1.0000000"
         id="stop51" />
    </linearGradient>
    <linearGradient
       y2="516.37"
       x2="193.27699"
       y1="452.388"
       x1="272.59201"
       gradientUnits="userSpaceOnUse"
       id="linearGradient3418"
       xlink:href="#defitem15"
       inkscape:collect="always" />
    <radialGradient
       cx="1037.22"
       cy="211.088"
       r="1164.28"
       fx="1037.22"
       fy="211.088"
       id="defitem14"
       gradientUnits="userSpaceOnUse">
      <stop
         style="stop-color:#ffffff;stop-opacity:1.0000000;"
         offset="0.0000000"
         id="stop47" />
      <stop
         style="stop-color:#aaaaaa;stop-opacity:1.0000000;"
         offset="1.0000000"
         id="stop48" />
    </radialGradient>
    <radialGradient
       r="1164.28"
       fy="211.088"
       fx="1037.22"
       cy="211.088"
       cx="1037.22"
       gradientUnits="userSpaceOnUse"
       id="radialGradient3416"
       xlink:href="#defitem14"
       inkscape:collect="always" />
    <linearGradient
       x1="342.64999"
       y1="732.12903"
       x2="379.241"
       y2="686.83002"
       id="defitem13"
       gradientUnits="userSpaceOnUse">
      <stop
         style="stop-color:#ffffff;stop-opacity:1.0000000;"
         offset="0.0000000"
         id="stop44" />
      <stop
         style="stop-color:#989898;stop-opacity:1.0000000;"
         offset="1.0000000"
         id="stop45" />
    </linearGradient>
    <linearGradient
       y2="686.83002"
       x2="379.241"
       y1="732.12903"
       x1="342.64999"
       gradientUnits="userSpaceOnUse"
       id="linearGradient3414"
       xlink:href="#defitem13"
       inkscape:collect="always" />
    <radialGradient
       cx="632.78101"
       cy="484.409"
       r="540.27899"
       fx="632.78101"
       fy="484.409"
       id="defitem12"
       gradientUnits="userSpaceOnUse">
      <stop
         style="stop-color:#ffffff;stop-opacity:1.0000000;"
         offset="0.0000000"
         id="stop41" />
      <stop
         style="stop-color:#ededed;stop-opacity:1.0000000;"
         offset="1.0000000"
         id="stop42" />
    </radialGradient>
    <radialGradient
       r="540.27899"
       fy="484.409"
       fx="632.78101"
       cy="484.409"
       cx="632.78101"
       gradientUnits="userSpaceOnUse"
       id="radialGradient3412"
       xlink:href="#defitem12"
       inkscape:collect="always" />
    <inkscape:perspective
       id="perspective3148"
       inkscape:persp3d-origin="32.000001 : 21.333333 : 1"
       inkscape:vp_z="64.000003 : 32 : 1"
       inkscape:vp_y="0 : 1000 : 0"
       inkscape:vp_x="0 : 32 : 1"
       sodipodi:type="inkscape:persp3d" />
    <linearGradient
       id="linearGradient3682">
      <stop
         id="stop3684"
         offset="0"
         style="stop-color:#ff6d0f;stop-opacity:1;" />
      <stop
         id="stop3686"
         offset="1"
         style="stop-color:#ff1000;stop-opacity:1;" />
    </linearGradient>
    <linearGradient
       id="linearGradient3864">
      <stop
         style="stop-color:#71b2f8;stop-opacity:1;"
         offset="0"
         id="stop3866" />
      <stop
         style="stop-color:#002795;stop-opacity:1;"
         offset="1"
         id="stop3868" />
    </linearGradient>
  </defs>
  <sodipodi:namedview
     inkscape:window-height="1023"
     inkscape:window-width="1920"
     inkscape:pageshadow="2"
     inkscape:pageopacity="0.0"
     guidetolerance="10.0"
     gridtolerance="10.0"
     objecttolerance="10.0"
     borderopacity="1.0"
     bordercolor="#666666"
     pagecolor="#ffffff"
     id="base"
     inkscape:window-x="0"
     inkscape:window-y="0"
     inkscape:current-layer="svg2"
     inkscape:document-units="mm"
     showgrid="false"
     inkscape:window-maximized="1"
     fit-margin-top="0"
     fit-margin-left="0"
     fit-margin-right="0"
     fit-margin-bottom="0"
     inkscape:zoom="1.0277031"
     inkscape:cx="398.37102"
     inkscape:cy="376.08137" />
  <g
     id="g452"
     style="fill:none;stroke:#000000;stroke-width:0.13;stroke-linecap:butt;stroke-linejoin:miter"
     transform="translate(-77.300293,-11.039764)" />
  <g
     id="Ortho_0_0"
     transform="matrix(0,-0.25,0.25,0,25.450707,184.20924)">
    <g
       transform="scale(1,-1)"
       id="g264"
       style="fill:none;stroke:#000000;stroke-width:0.60000002;stroke-linecap:butt;stroke-linejoin:miter;stroke-dasharray:0.2, 0.1">
      <circle
         cx="0"
         cy="0"
         r="38.0397"
         id="circle266" />
      <circle
         cx="0"
         cy="0"
         r="50"
         id="circle268" />
    </g>
    <g
       transform="scale(1,-1)"
       id="g270"
       style="fill:none;stroke:#000000;stroke-width:1.39999998;stroke-linecap:butt;stroke-linejoin:miter">
      <circle
         cx="0"
         cy="0"
         r="30"
         id="circle272" />
      <circle
         cx="0"
         cy="0"
         r="50"
         id="circle274" />
      <circle
         cx="0"
         cy="0"
         r="31.555901"
         id="circle276" />
      <circle
         cx="0"
         cy="0"
         r="36.604801"
         id="circle278" />
      <circle
         cx="0"
         cy="0"
         r="58"
         id="circle280" />
      <circle
         cx="0"
         cy="0"
         r="58"
         id="circle282" />
    </g>
  </g>
  <g
     id="Ortho_1_0"
     transform="matrix(0,-0.25,0.25,0,217.13814,184.20924)">
    <g
       transform="scale(1,-1)"
       id="g285"
       style="fill:none;stroke:#000000;stroke-width:0.60000002;stroke-linecap:butt;stroke-linejoin:miter;stroke-dasharray:0.2, 0.1">
      <path
         d="m 0,0 -3.35893,0 -3.3167,0 -3.23274,0 -3.10813,0 -2.9445,0 -2.7437,0 -2.5085,0 -2.2417,0 -1.9468,0 -1.6274,0 -1.2874,0 -0.9313,0 -0.5636,0 L -30,0"
         id="path287"
         inkscape:connector-curvature="0" />
      <path
         d="m -30,0 0.7522,0 2.2187,0 3.5742,0 4.7502,0 5.6882,0 6.34087,0 L 0,0 6.67563,0 13.0165,0 18.7047,0 23.4549,0 27.0291,0 29.2478,0 30,0"
         id="path289"
         inkscape:connector-curvature="0" />
      <path
         d="M 30,0 29.8114,0 29.2478,0 28.3165,0 27.0291,0 25.4017,0 23.4549,0 21.2132,0 18.7047,0 15.961,0 13.0165,0 9.90837,0 6.67563,0 3.35893,0 0,0"
         id="path291"
         inkscape:connector-curvature="0" />
      <path
         d="m 0,0 -4.2591,0 -4.20554,0 -4.09906,0 -3.9411,0 -3.7336,0 -3.479,0 -3.1808,0 -2.8425,0 -2.4685,0 -2.0634,0 -1.6325,0 -1.1809,0 -0.7146,0 -0.2391,0"
         id="path293"
         inkscape:connector-curvature="0" />
      <path
         d="M 38.0397,0 37.8006,0 37.086,0 35.9051,0 34.2726,0 32.2092,0 29.7407,0 26.8982,0 23.7174,0 20.2384,0 16.5048,0 12.5637,0 8.46464,0 4.2591,0 0,0"
         id="path295"
         inkscape:connector-curvature="0" />
      <path
         d="m 0,538.784 -3.53314,0 -3.4887,0 -3.40036,0 -3.2694,0 -3.0971,0 -2.8861,0 -2.6386,0 -2.358,0 -2.0477,0 -1.7118,0 -1.3542,0 -0.9796,0 -0.5928,0 -0.1984,0"
         id="path297"
         inkscape:connector-curvature="0" />
      <path
         d="m -31.5559,538.784 0.7912,0 2.3338,0 3.7595,0 4.9966,0 5.9832,0 6.66976,0 7.02184,0 7.02184,0 6.66976,0 5.9832,0 4.9966,0 3.7595,0 2.3338,0 0.7912,0"
         id="path299"
         inkscape:connector-curvature="0" />
      <path
         d="m 31.5559,538.784 -0.1984,0 -0.5928,0 -0.9796,0 -1.3542,0 -1.7118,0 -2.0477,0 -2.358,0 -2.6386,0 -2.8861,0 -3.0971,0 -3.2694,0 -3.40036,0 -3.4887,0 -3.53314,0"
         id="path301"
         inkscape:connector-curvature="0" />
      <path
         d="m 0,544.99 -4.09844,0 -4.0469,0 -3.94446,0 -3.7924,0 -3.5927,0 -3.3478,0 -3.0608,0 -2.7353,0 -2.3754,0 -1.9856,0 -1.5709,0 -1.1364,0 -0.6875,0 -0.2302,0"
         id="path303"
         inkscape:connector-curvature="0" />
      <path
         d="m 36.6048,544.99 -0.2302,0 -0.6875,0 -1.1364,0 -1.5709,0 -1.9856,0 -2.3754,0 -2.7353,0 -3.0608,0 -3.3478,0 -3.5927,0 -3.7924,0 -3.94446,0 -4.0469,0 -4.09844,0"
         id="path305"
         inkscape:connector-curvature="0" />
    </g>
    <g
       transform="scale(1,-1)"
       id="g307"
       style="fill:none;stroke:#000000;stroke-width:0.60000002;stroke-linecap:butt;stroke-linejoin:miter;stroke-dasharray:0.02, 0.1">
      <path
         id="1"
         d="M 30,0 49.8022,198.404"
         inkscape:connector-curvature="0" />
      <path
         id="2"
         d="M -30,0 -49.8022,198.404"
         inkscape:connector-curvature="0" />
      <path
         d="m -49.8022,198.404 c -0.0566,0.569 -0.1088,1.203 -0.1473,1.964 -0.0299,0.589 -0.0507,1.283 -0.0505,2.009"
         id="path311"
         inkscape:connector-curvature="0" />
      <path
         d="m 49.8022,198.404 c 0.0566,0.569 0.1088,1.203 0.1473,1.964 0.0299,0.589 0.0507,1.283 0.0505,2.009"
         id="path313"
         inkscape:connector-curvature="0" />
      <path
         id="5"
         d="M 50,202.377 50,500"
         inkscape:connector-curvature="0" />
      <path
         id="6"
         d="M -50,202.377 -50,500"
         inkscape:connector-curvature="0" />
      <path
         d="M 50,500 A 50,50 0 0 1 31.5559,538.784"
         id="path317"
         inkscape:connector-curvature="0" />
      <path
         d="M -31.5559,538.784 A 50,50 0 0 1 -50,500"
         id="path319"
         inkscape:connector-curvature="0" />
      <path
         id="9"
         d="m 31.5559,538.784 5.0489,6.206"
         inkscape:connector-curvature="0" />
      <path
         id="10"
         d="m -31.5559,538.784 -5.0489,6.206"
         inkscape:connector-curvature="0" />
    </g>
    <g
       transform="scale(1,-1)"
       id="g323"
       style="fill:none;stroke:#000000;stroke-width:1.39999998;stroke-linecap:butt;stroke-linejoin:miter">
      <path
         d="M 58,500 A 58,58 0 0 1 36.6048,544.99"
         id="path325"
         inkscape:connector-curvature="0" />
      <path
         d="M -36.6048,544.99 A 58,58 0 0 1 -58,500"
         id="path327"
         inkscape:connector-curvature="0" />
      <path
         id="3"
         d="M 58,202.377 58,500"
         inkscape:connector-curvature="0" />
      <path
         id="4"
         d="M -58,202.377 -58,500"
         inkscape:connector-curvature="0" />
      <path
         d="m -57.7627,197.61 c -0.0678,0.683 -0.1305,1.443 -0.1767,2.356 -0.0127,0.251 -0.0238,0.513 -0.0331,0.787 -0.0173,0.506 -0.0276,1.062 -0.0275,1.624"
         id="path331"
         inkscape:connector-curvature="0" />
      <path
         d="m 57.7627,197.61 c 0.0678,0.683 0.1305,1.443 0.1767,2.356 0.0127,0.251 0.0238,0.513 0.0331,0.787 0.0173,0.506 0.0276,1.062 0.0275,1.624"
         id="path333"
         inkscape:connector-curvature="0" />
      <path
         id="7"
         d="m 38.0397,0 19.723,197.61"
         inkscape:connector-curvature="0" />
      <path
         id="8"
         d="m -38.0397,0 -19.723,197.61"
         inkscape:connector-curvature="0" />
    </g>
    <g
       transform="scale(1,-1)"
       id="g337"
       style="fill:none;stroke:#000000;stroke-width:1.39999998;stroke-linecap:butt;stroke-linejoin:miter">
      <path
         d="m -38.0397,0 0.9537,0 2.8134,0 4.5319,0 6.0233,0 7.2126,0 8.04016,0 L 0,0 l 8.46464,0 8.04016,0 7.2126,0 6.0233,0 4.5319,0 2.8134,0 0.9537,0"
         id="path339"
         inkscape:connector-curvature="0" />
      <path
         d="m -36.6048,544.99 0.9177,0 2.7073,0 4.361,0 5.7961,0 6.9405,0 7.73686,0 8.14534,0 8.14534,0 7.73686,0 6.9405,0 5.7961,0 4.361,0 2.7073,0 0.9177,0"
         id="path341"
         inkscape:connector-curvature="0" />
    </g>
  </g>
  <g
     id="Ortho_1_1"
     transform="matrix(-0.125,0.21650635,-0.21650635,-0.125,183.77902,74.632733)">
    <g
       transform="scale(1,-1)"
       id="g344"
       style="fill:none;stroke:#000000;stroke-width:0.60000002;stroke-linecap:butt;stroke-linejoin:miter;stroke-dasharray:0.2, 0.1">
      <path
         d="M 0,-24.4949 A 30,17.3205 -120 0 1 13.904,26.5272"
         id="path346"
         inkscape:connector-curvature="0" />
      <path
         d="m 13.904,26.5272 a 30,17.3205 -120 0 1 -29.9252,-51.832"
         id="path348"
         inkscape:connector-curvature="0" />
      <path
         d="M -16.0212,-25.3048 A 30,17.3205 -120 0 1 0,-24.4949"
         id="path350"
         inkscape:connector-curvature="0" />
      <path
         d="M 0,-31.0593 A 38.0397,21.9623 -120 0 1 17.6301,33.6362"
         id="path352"
         inkscape:connector-curvature="0" />
      <path
         d="M -20.3148,-32.0863 A 38.0397,21.9623 -120 0 1 0,-31.0593"
         id="path354"
         inkscape:connector-curvature="0" />
      <path
         d="m 387.19,-191.625 a 31.5559,18.2188 -120 0 1 -2.384,-0.739"
         id="path356"
         inkscape:connector-curvature="0" />
      <path
         d="m 384.806,-192.364 a 31.5559,18.2188 -120 0 1 -25.81,-44.706"
         id="path358"
         inkscape:connector-curvature="0" />
      <path
         d="m 358.996,-237.07 a 31.5559,18.2188 -120 0 1 0.551,-2.434"
         id="path360"
         inkscape:connector-curvature="0" />
    </g>
    <g
       transform="scale(1,-1)"
       id="g362"
       style="fill:none;stroke:#000000;stroke-width:0.60000002;stroke-linecap:butt;stroke-linejoin:miter;stroke-dasharray:0.02, 0.1">
      <path
         id="path364"
         d="M -16.0212,-25.3048 113.696,-123.006"
         inkscape:connector-curvature="0" />
      <path
         id="path366"
         d="M 13.904,26.5272 163.374,-36.961"
         inkscape:connector-curvature="0" />
      <path
         d="m 163.374,-36.961 q 2.446,-1.0398 4.728,-2.3576"
         id="path368"
         inkscape:connector-curvature="0" />
      <path
         d="m 113.696,-123.006 q 2.124,-1.598 4.406,-2.915"
         id="path370"
         inkscape:connector-curvature="0" />
      <path
         id="path372"
         d="M 118.102,-125.921 328.553,-247.425"
         inkscape:connector-curvature="0" />
      <path
         id="path374"
         d="M 168.102,-39.3186 378.553,-160.823"
         inkscape:connector-curvature="0" />
      <path
         d="m 328.553,-247.425 a 50,50 0 0 1 50,0"
         id="path376"
         inkscape:connector-curvature="0" />
      <path
         d="m 378.553,-247.425 a 50,50 0 0 1 8.333,6.032"
         id="path378"
         inkscape:connector-curvature="0" />
      <path
         d="m 402.495,-214.356 a 50,50 0 0 1 -23.942,53.533"
         id="path380"
         inkscape:connector-curvature="0" />
      <path
         id="path382"
         d="m 358.996,-237.07 0.87,-5.271"
         inkscape:connector-curvature="0" />
      <path
         id="11"
         d="m 384.806,-192.364 5,1.881"
         inkscape:connector-curvature="0" />
    </g>
    <g
       transform="scale(1,-1)"
       id="g385"
       style="fill:none;stroke:#000000;stroke-width:1.39999998;stroke-linecap:butt;stroke-linejoin:miter">
      <path
         d="m 324.553,-254.354 a 58,58 0 0 1 58,0"
         id="path387"
         inkscape:connector-curvature="0" />
      <path
         d="m 382.553,-254.354 a 58,58 0 0 1 9.666,6.998"
         id="path389"
         inkscape:connector-curvature="0" />
      <path
         d="m 410.326,-215.993 a 58,58 0 0 1 -27.773,62.098"
         id="path391"
         inkscape:connector-curvature="0" />
      <path
         id="path393"
         d="M 114.102,-132.849 324.553,-254.354"
         inkscape:connector-curvature="0" />
      <path
         id="path395"
         d="M 172.102,-32.3904 382.553,-153.895"
         inkscape:connector-curvature="0" />
      <path
         d="m 166.502,-29.5977 c 1.928,-0.819 3.802,-1.7544 5.6,-2.7927"
         id="path397"
         inkscape:connector-curvature="0" />
      <path
         d="m 108.883,-129.396 c 1.674,-1.261 3.421,-2.415 5.219,-3.453"
         id="path399"
         inkscape:connector-curvature="0" />
      <path
         id="path401"
         d="M -20.3148,-32.0863 108.883,-129.396"
         inkscape:connector-curvature="0" />
      <path
         id="path403"
         d="M 17.6301,33.6362 166.502,-29.5977"
         inkscape:connector-curvature="0" />
    </g>
    <g
       transform="scale(1,-1)"
       id="g405"
       style="fill:none;stroke:#000000;stroke-width:1.39999998;stroke-linecap:butt;stroke-linejoin:miter">
      <path
         d="M 17.6301,33.6362 A 38.0397,21.9623 -120 0 1 -20.3148,-32.0863"
         id="path407"
         inkscape:connector-curvature="0" />
      <path
         d="m 380.978,-245.723 a 31.5559,18.2188 -120 0 1 5.908,4.33"
         id="path409"
         inkscape:connector-curvature="0" />
      <path
         d="m 386.886,-241.393 a 31.5559,18.2188 -120 0 1 15.609,27.037"
         id="path411"
         inkscape:connector-curvature="0" />
      <path
         d="m 402.495,-214.356 a 31.5559,18.2188 -120 0 1 -15.305,22.731"
         id="path413"
         inkscape:connector-curvature="0" />
      <path
         d="m 359.547,-239.504 a 31.5559,18.2188 -120 0 1 21.431,-6.219"
         id="path415"
         inkscape:connector-curvature="0" />
      <path
         d="m 385.366,-252.379 a 36.6048,21.1338 -120 0 1 6.853,5.023"
         id="path417"
         inkscape:connector-curvature="0" />
      <path
         d="m 392.219,-247.356 a 36.6048,21.1338 -120 0 1 18.107,31.363"
         id="path419"
         inkscape:connector-curvature="0" />
      <path
         d="m 410.326,-215.993 a 36.6048,21.1338 -120 0 1 -20.52,25.51"
         id="path421"
         inkscape:connector-curvature="0" />
      <path
         d="m 389.806,-190.483 a 36.6048,21.1338 -120 0 1 -29.94,-51.858"
         id="path423"
         inkscape:connector-curvature="0" />
      <path
         d="m 359.866,-242.341 a 36.6048,21.1338 -120 0 1 25.5,-10.038"
         id="path425"
         inkscape:connector-curvature="0" />
    </g>
  </g>
  <g
     id="Ortho_0_1"
     transform="matrix(0,0.25,-0.25,0,25.450707,3.9160814)">
    <g
       transform="scale(1,-1)"
       id="g428"
       style="fill:none;stroke:#000000;stroke-width:0.60000002;stroke-linecap:butt;stroke-linejoin:miter;stroke-dasharray:0.2, 0.1">
      <path
         d="m 0,-30 0,0.7522 0,2.2187 0,3.5742 0,4.7502 0,5.6882 0,6.34087 L 0,0 0,6.67563 0,13.0165 0,18.7047 0,23.4549 0,27.0291 0,29.2478 0,30"
         id="path430"
         inkscape:connector-curvature="0" />
      <path
         d="M 0,30 0,29.2478 0,27.0291 0,23.4549 0,18.7047 0,13.0165 0,6.67563 0,0 0,-6.67563 0,-13.0165 0,-18.7047 0,-23.4549 0,-27.0291 0,-29.2478 0,-30"
         id="path432"
         inkscape:connector-curvature="0" />
      <path
         d="m 0,-38.0397 0,0.9537 0,2.8134 0,4.5319 0,6.0233 0,7.2126 0,8.04016 L 0,0 l 0,8.46464 0,8.04016 0,7.2126 0,6.0233 0,4.5319 0,2.8134 0,0.9537"
         id="path434"
         inkscape:connector-curvature="0" />
      <path
         id="path436"
         d="M 0,-30 198.404,-49.8022"
         inkscape:connector-curvature="0" />
      <path
         d="M 198.404,-49.8022 A 40,40 0 0 1 202.377,-50"
         id="path438"
         inkscape:connector-curvature="0" />
      <path
         id="path440"
         d="M 202.377,-50 500,-50"
         inkscape:connector-curvature="0" />
      <path
         d="m 538.784,-31.5559 0,0.7912 0,2.3338 0,3.7595 0,4.9966 0,5.9832 0,6.66976 0,7.02184 0,7.02184 0,6.66976 0,5.9832 0,4.9966 0,3.7595 0,2.3338 0,0.7912"
         id="path442"
         inkscape:connector-curvature="0" />
      <path
         d="m 538.784,31.5559 0,-0.7912 0,-2.3338 0,-3.7595 0,-4.9966 0,-5.9832 0,-6.66976 0,-7.02184 0,-7.02184 0,-6.66976 0,-5.9832 0,-4.9966 0,-3.7595 0,-2.3338 0,-0.7912"
         id="path444"
         inkscape:connector-curvature="0" />
      <path
         d="m 500,-50 a 50,50 0 0 1 38.784,18.4441"
         id="path446"
         inkscape:connector-curvature="0" />
      <path
         d="m 544.99,-36.6048 0,0.9177 0,2.7073 0,4.361 0,5.7961 0,6.9405 0,7.73686 0,8.14534 0,8.14534 0,7.73686 0,6.9405 0,5.7961 0,4.361 0,2.7073 0,0.9177"
         id="path448"
         inkscape:connector-curvature="0" />
      <path
         id="path450"
         d="m 538.784,-31.5559 6.206,-5.0489"
         inkscape:connector-curvature="0" />
    </g>
    <g
       transform="scale(1,-1)"
       id="g453"
       style="fill:none;stroke:#000000;stroke-width:0.60000002;stroke-linecap:butt;stroke-linejoin:miter;stroke-dasharray:0.02, 0.1">
      <path
         id="path455"
         d="M 0,30 198.404,49.8022"
         inkscape:connector-curvature="0" />
      <path
         d="m 198.404,49.8022 c 0.569,0.0566 1.203,0.1088 1.964,0.1473 0.589,0.0299 1.283,0.0507 2.009,0.0505"
         id="path457"
         inkscape:connector-curvature="0" />
      <path
         id="path459"
         d="M 202.377,50 500,50"
         inkscape:connector-curvature="0" />
      <path
         d="M 538.784,31.5559 A 50,50 0 0 1 500,50"
         id="path461"
         inkscape:connector-curvature="0" />
      <path
         id="path463"
         d="m 538.784,31.5559 6.206,5.0489"
         inkscape:connector-curvature="0" />
    </g>
    <g
       transform="scale(1,-1)"
       id="g465"
       style="fill:none;stroke:#000000;stroke-width:1.39999998;stroke-linecap:butt;stroke-linejoin:miter">
      <path
         d="M 544.99,36.6048 A 58,58 0 0 1 500,58"
         id="path467"
         inkscape:connector-curvature="0" />
      <path
         id="path469"
         d="M 202.377,58 500,58"
         inkscape:connector-curvature="0" />
      <path
         d="m 197.61,57.7627 c 0.683,0.0678 1.443,0.1305 2.356,0.1767 0.251,0.0127 0.513,0.0238 0.787,0.0331 0.506,0.0173 1.062,0.0276 1.624,0.0275"
         id="path471"
         inkscape:connector-curvature="0" />
      <path
         id="path473"
         d="m 0,38.0397 197.61,19.723"
         inkscape:connector-curvature="0" />
    </g>
    <g
       transform="scale(1,-1)"
       id="g475"
       style="fill:none;stroke:#000000;stroke-width:1.39999998;stroke-linecap:butt;stroke-linejoin:miter">
      <path
         d="M 0,38.0397 0,37.086 0,34.2726 0,29.7407 0,23.7174 0,16.5048 0,8.46464 0,0 l 0,-8.46464 0,-8.04016 0,-7.2126 0,-6.0233 0,-4.5319 0,-2.8134 0,-0.9537"
         id="path477"
         inkscape:connector-curvature="0" />
      <path
         d="m 544.99,36.6048 0,-0.9177 0,-2.7073 0,-4.361 0,-5.7961 0,-6.9405 0,-7.73686 0,-8.14534 0,-8.14534 0,-7.73686 0,-6.9405 0,-5.7961 0,-4.361 0,-2.7073 0,-0.9177"
         id="path479"
         inkscape:connector-curvature="0" />
      <path
         d="m 500,-58 a 58,58 0 0 1 44.99,21.3952"
         id="path481"
         inkscape:connector-curvature="0" />
      <path
         id="path483"
         d="M 202.377,-58 500,-58"
         inkscape:connector-curvature="0" />
      <path
         d="M 197.61,-57.7627 A 48,48 0 0 1 202.377,-58"
         id="path485"
         inkscape:connector-curvature="0" />
      <path
         id="path487"
         d="m 0,-38.0397 197.61,-19.723"
         inkscape:connector-curvature="0" />
    </g>
  </g>
</svg>
