<?xml version="1.0" encoding="UTF-8" standalone="no"?>
<!-- Created with Inkscape (http://www.inkscape.org/) -->

<svg
   xmlns:dc="http://purl.org/dc/elements/1.1/"
   xmlns:cc="http://creativecommons.org/ns#"
   xmlns:rdf="http://www.w3.org/1999/02/22-rdf-syntax-ns#"
   xmlns:svg="http://www.w3.org/2000/svg"
   xmlns="http://www.w3.org/2000/svg"
   xmlns:sodipodi="http://sodipodi.sourceforge.net/DTD/sodipodi-0.dtd"
   xmlns:inkscape="http://www.inkscape.org/namespaces/inkscape"
   width="50mm"
   height="30.000002mm"
   viewBox="0 0 177.16535 106.29922"
   id="svg2"
   version="1.1"
   inkscape:version="0.91 r13725"
   sodipodi:docname="ecuacion.svg">
  <sodipodi:namedview
     id="base"
     pagecolor="#ffffff"
     bordercolor="#666666"
     borderopacity="1.0"
     inkscape:pageopacity="0.0"
     inkscape:pageshadow="2"
     inkscape:zoom="1.979899"
     inkscape:cx="6.2184019"
     inkscape:cy="78.593808"
     inkscape:document-units="px"
     inkscape:current-layer="layer1"
     showgrid="false"
     showguides="false"
     inkscape:window-width="1920"
     inkscape:window-height="1023"
     inkscape:window-x="0"
     inkscape:window-y="0"
     inkscape:window-maximized="1"
     fit-margin-top="0"
     fit-margin-left="0"
     fit-margin-right="0"
     fit-margin-bottom="0" />
  <defs
     id="defs4" />
  <metadata
     id="metadata7">
    <rdf:RDF>
      <cc:Work
         rdf:about="">
        <dc:format>image/svg+xml</dc:format>
        <dc:type
           rdf:resource="http://purl.org/dc/dcmitype/StillImage" />
        <dc:title></dc:title>
      </cc:Work>
    </rdf:RDF>
  </metadata>
  <g
     id="layer1"
     inkscape:groupmode="layer"
     inkscape:label="Layer 1"
     transform="translate(-318.70822,-369.2608)">
    <g
       id="g4147"
       transform="matrix(0.34292486,0,0,0.34292479,250.81972,305.902)"
       style="fill:#000000">
      <g
         word-spacing="normal"
         letter-spacing="normal"
         font-size-adjust="none"
         font-stretch="normal"
         font-weight="normal"
         font-variant="normal"
         font-style="normal"
         stroke-miterlimit="10.433"
         xml:space="preserve"
         transform="matrix(1.2878498,0,0,-1.2878498,-273.78358,886.88165)"
         id="content"
         style="font-style:normal;font-variant:normal;font-weight:normal;font-stretch:normal;letter-spacing:normal;word-spacing:normal;text-anchor:start;fill:#000000;fill-opacity:1;fill-rule:evenodd;stroke:#000000;stroke-width:2.4069438;stroke-linecap:butt;stroke-linejoin:miter;stroke-miterlimit:10.43299961;stroke-dasharray:none;stroke-dashoffset:0;stroke-opacity:1"><path
           id="path4150"
           d="m 480.21,424.98 0.01,0.03 0.01,0.03 0.01,0.03 0.01,0.03 0.01,0.06 0.02,0.05 0.01,0.06 0.01,0.04 0.02,0.05 0.01,0.04 0.01,0.04 0.01,0.04 0,0.04 0.01,0.04 0.01,0.03 0,0.03 0.01,0.03 0.01,0.03 0,0.03 0,0.03 0.01,0.03 0,0.02 0,0.06 0.01,0.05 0,0.05 0,0.05 0,0.03 0,0.03 0,0.03 0,0.03 c 0,0.9 -0.7,1.35 -1.45,1.35 -0.5,0 -1.29,-0.3 -1.74,-1.05 -0.1,-0.24 -0.5,-1.79 -0.7,-2.69 -0.34,-1.29 -0.7,-2.64 -0.99,-3.98 l -2.24,-8.97 c -0.2,-0.74 -2.34,-4.23 -5.63,-4.23 -2.54,0 -3.09,2.19 -3.09,4.03 0,2.3 0.84,5.38 2.54,9.77 0.8,2.04 1,2.59 1,3.58 0,2.25 -1.6,4.09 -4.09,4.09 -4.73,0 -6.57,-7.23 -6.57,-7.67 0,-0.5 0.49,-0.5 0.59,-0.5 0.5,0 0.55,0.1 0.8,0.9 1.34,4.68 3.34,6.17 5.03,6.17 0.4,0 1.25,0 1.25,-1.59 0,-1.25 -0.5,-2.54 -0.85,-3.49 -1.99,-5.28 -2.89,-8.12 -2.89,-10.46 0,-4.43 3.14,-5.93 6.08,-5.93 1.94,0 3.63,0.85 5.03,2.25 -0.65,-2.6 -1.25,-5.04 -3.24,-7.68 -1.29,-1.69 -3.19,-3.14 -5.48,-3.14 -0.7,0 -2.94,0.16 -3.79,2.1 0.8,0 1.45,0 2.15,0.59 0.49,0.45 0.99,1.1 0.99,2.05 0,1.54 -1.34,1.74 -1.84,1.74 -1.15,0 -2.79,-0.8 -2.79,-3.24 0,-2.49 2.19,-4.33 5.28,-4.33 5.13,0 10.26,4.53 11.66,10.16 z"
           inkscape:connector-curvature="0"
           style="fill:#4daf4a;fill-opacity:1;stroke-width:0" /><path
           id="path4152"
           d="m 530.22,422.29 0.14,0 0.15,0 0.15,0.01 0.07,0 0.07,0 0.07,0.01 0.08,0.01 0.07,0.01 0.07,0.01 0.06,0.02 0.07,0.01 0.07,0.02 0.06,0.02 0.06,0.03 0.06,0.03 0.05,0.03 0.06,0.03 0.05,0.04 0.04,0.04 0.05,0.05 0.03,0.05 0.02,0.03 0.02,0.02 0.02,0.03 0.01,0.03 0.02,0.03 0.01,0.04 0.01,0.03 0.01,0.04 0.01,0.03 0.01,0.04 0.01,0.04 0,0.04 0.01,0.04 0,0.04 0,0.05 0,0.05 c 0,0.99 -0.94,0.99 -1.64,0.99 l -29.84,0 c -0.7,0 -1.64,0 -1.64,-0.99 0,-1 0.94,-1 1.69,-1 z"
           inkscape:connector-curvature="0"
           style="fill:#000000;stroke-width:0" /><path
           id="path4154"
           d="m 530.27,412.62 0.13,0.01 0.14,0 0.14,0 0.07,0.01 0.07,0 0.07,0.01 0.07,0.01 0.07,0.01 0.07,0.01 0.06,0.01 0.07,0.02 0.06,0.02 0.06,0.02 0.06,0.02 0.06,0.03 0.06,0.03 0.05,0.04 0.05,0.04 0.04,0.04 0.05,0.04 0.02,0.03 0.02,0.03 0.01,0.02 0.02,0.03 0.02,0.03 0.01,0.03 0.02,0.03 0.01,0.03 0.01,0.04 0.01,0.03 0.01,0.04 0.01,0.04 0.01,0.04 0,0.04 0.01,0.04 0,0.04 0,0.05 0,0.04 c 0,1 -0.94,1 -1.69,1 l -29.74,0 c -0.75,0 -1.69,0 -1.69,-1 0,-1 0.94,-1 1.64,-1 z"
           inkscape:connector-curvature="0"
           style="fill:#000000;stroke-width:0" /><path
           id="path4156"
           d="m 566.28,425.93 4.29,0 c 0.99,0 1.49,0 1.49,0.99 0,0.55 -0.5,0.55 -1.34,0.55 l -4.14,0 1.04,5.68 c 0.2,1.05 0.9,4.58 1.2,5.18 0.45,0.94 1.3,1.69 2.34,1.69 0.2,0 1.5,0 2.44,-0.9 -2.19,-0.19 -2.69,-1.94 -2.69,-2.68 0,-1.15 0.9,-1.75 1.85,-1.75 1.29,0 2.74,1.1 2.74,2.99 0,2.29 -2.29,3.44 -4.34,3.44 -1.69,0 -4.83,-0.9 -6.32,-5.83 -0.3,-1.05 -0.45,-1.54 -1.65,-7.82 l -3.43,0 c -0.95,0 -1.5,0 -1.5,-0.95 0,-0.59 0.45,-0.59 1.4,-0.59 l 3.29,0 -3.74,-19.68 c -0.9,-4.83 -1.74,-9.37 -4.33,-9.37 -0.2,0 -1.45,0 -2.4,0.9 2.29,0.15 2.74,1.94 2.74,2.69 0,1.15 -0.89,1.74 -1.84,1.74 -1.29,0 -2.74,-1.09 -2.74,-2.98 0,-2.25 2.19,-3.44 4.24,-3.44 2.73,0 4.72,2.94 5.62,4.83 1.6,3.14 2.74,9.17 2.79,9.51 z"
           inkscape:connector-curvature="0"
           style="fill:#377eb8;fill-opacity:1;stroke-width:0" /><path
           id="path4158"
           d="m 594.49,394.04 0,0.03 0,0.03 -0.01,0.01 0,0.02 0,0.01 -0.01,0.02 0,0.02 -0.01,0.01 -0.01,0.02 -0.01,0.02 -0.01,0.03 -0.01,0.02 -0.02,0.02 -0.02,0.03 -0.02,0.03 -0.02,0.03 -0.03,0.03 -0.03,0.04 -0.01,0.02 -0.02,0.02 -0.02,0.02 -0.02,0.02 -0.02,0.02 -0.02,0.03 -0.02,0.02 -0.02,0.02 -0.02,0.03 -0.03,0.02 -0.02,0.03 -0.03,0.03 -0.02,0.03 -0.03,0.03 -0.03,0.03 -0.03,0.03 -0.03,0.03 -0.03,0.03 -0.04,0.04 -0.03,0.03 -0.04,0.04 -0.03,0.03 -0.04,0.04 -0.04,0.04 c -6.23,6.28 -7.82,15.69 -7.82,23.31 0,8.67 1.9,17.34 8.02,23.57 0.65,0.59 0.65,0.69 0.65,0.84 0,0.35 -0.2,0.5 -0.5,0.5 -0.5,0 -4.98,-3.39 -7.92,-9.72 -2.54,-5.47 -3.14,-11 -3.14,-15.19 0,-3.88 0.55,-9.91 3.29,-15.54 2.99,-6.12 7.27,-9.36 7.77,-9.36 0.3,0 0.5,0.15 0.5,0.49 z"
           inkscape:connector-curvature="0"
           style="fill:#000000;stroke-width:0" /><path
           id="path4160"
           d="m 613.64,421.04 0.03,0.13 0.03,0.15 0.05,0.17 0.04,0.18 0.06,0.19 0.06,0.21 0.06,0.21 0.07,0.23 0.08,0.23 0.09,0.24 0.1,0.25 0.1,0.24 0.11,0.25 0.12,0.25 0.13,0.25 0.14,0.25 0.15,0.24 0.15,0.24 0.17,0.23 0.18,0.22 0.18,0.22 0.2,0.2 0.21,0.19 0.22,0.18 0.23,0.16 0.25,0.14 0.12,0.07 0.13,0.06 0.13,0.05 0.14,0.05 0.14,0.05 0.14,0.04 0.14,0.03 0.15,0.03 0.15,0.02 0.16,0.02 0.16,0.01 0.16,0 c 0.25,0 1.45,0 2.49,-0.65 -1.4,-0.25 -2.39,-1.49 -2.39,-2.68 0,-0.8 0.55,-1.75 1.89,-1.75 1.1,0 2.69,0.9 2.69,2.89 0,2.59 -2.94,3.29 -4.63,3.29 -2.89,0 -4.64,-2.64 -5.23,-3.79 -1.24,3.29 -3.94,3.79 -5.38,3.79 -5.18,0 -8.02,-6.43 -8.02,-7.67 0,-0.5 0.5,-0.5 0.6,-0.5 0.39,0 0.54,0.1 0.64,0.54 1.7,5.29 4.99,6.53 6.68,6.53 0.94,0 2.69,-0.45 2.69,-3.33 0,-1.55 -0.85,-4.89 -2.69,-11.86 -0.8,-3.09 -2.54,-5.18 -4.73,-5.18 -0.3,0 -1.45,0 -2.49,0.65 1.24,0.25 2.34,1.29 2.34,2.69 0,1.34 -1.1,1.74 -1.85,1.74 -1.49,0 -2.73,-1.3 -2.73,-2.89 0,-2.29 2.48,-3.29 4.68,-3.29 3.28,0 5.08,3.49 5.22,3.79 0.61,-1.85 2.4,-3.79 5.39,-3.79 5.13,0 7.97,6.43 7.97,7.67 0,0.5 -0.45,0.5 -0.6,0.5 -0.45,0 -0.55,-0.2 -0.65,-0.55 -1.64,-5.33 -5.03,-6.52 -6.62,-6.52 -1.94,0 -2.74,1.59 -2.74,3.29 0,1.09 0.3,2.19 0.85,4.38 z"
           inkscape:connector-curvature="0"
           style="fill:#e41a1c;fill-opacity:1;stroke-width:0" /><path
           id="path4162"
           d="m 640.4,418.45 -0.01,0.37 0,0.39 -0.01,0.39 -0.01,0.41 -0.04,0.84 -0.06,0.88 -0.09,0.92 -0.1,0.94 -0.14,0.98 -0.16,1 -0.2,1.02 -0.23,1.04 -0.27,1.05 -0.3,1.06 -0.35,1.06 -0.39,1.07 -0.22,0.53 -0.22,0.54 -0.24,0.53 -0.25,0.53 c -2.99,6.12 -7.27,9.36 -7.77,9.36 -0.3,0 -0.5,-0.2 -0.5,-0.5 0,-0.15 0,-0.25 0.94,-1.15 4.89,-4.92 7.73,-12.85 7.73,-23.26 0,-8.52 -1.85,-17.28 -8.02,-23.56 -0.65,-0.6 -0.65,-0.69 -0.65,-0.85 0,-0.29 0.2,-0.49 0.5,-0.49 0.5,0 4.98,3.38 7.92,9.71 2.54,5.48 3.14,11.01 3.14,15.19 z"
           inkscape:connector-curvature="0"
           style="fill:#000000;stroke-width:0" /></g>      <text
         xml:space="preserve"
         style="font-style:normal;font-weight:normal;font-size:36.45113754px;line-height:100%;font-family:sans-serif;letter-spacing:0px;word-spacing:0px;fill:#e41a1c;fill-opacity:1;stroke:none;stroke-width:1px;stroke-linecap:butt;stroke-linejoin:miter;stroke-opacity:1"
         x="506.58664"
         y="437.63528"
         id="text4178"
         sodipodi:linespacing="100%"><tspan
           sodipodi:role="line"
           id="tspan4180"
           x="506.58664"
           y="437.63528"
           style="font-size:29.16090965px;fill:#e41a1c;fill-opacity:1">Valor de</tspan><tspan
           sodipodi:role="line"
           x="506.58664"
           y="466.7962"
           style="font-size:29.16090965px;line-height:100%;fill:#e41a1c;fill-opacity:1"
           id="tspan4182">entrada</tspan></text>
      <text
         xml:space="preserve"
         style="font-style:normal;font-weight:normal;font-size:36.45113754px;line-height:100%;font-family:sans-serif;letter-spacing:0px;word-spacing:0px;fill:#377eb8;fill-opacity:1;stroke:none;stroke-width:1px;stroke-linecap:butt;stroke-linejoin:miter;stroke-opacity:1"
         x="422.95493"
         y="235.52637"
         id="text4178-6"
         sodipodi:linespacing="100%"><tspan
           sodipodi:role="line"
           x="422.95493"
           y="235.52637"
           style="font-size:29.16090965px;fill:#377eb8;fill-opacity:1"
           id="tspan4182-0">Regla para</tspan><tspan
           sodipodi:role="line"
           x="422.95493"
           y="264.68729"
           style="font-size:29.16090965px;line-height:100%;fill:#377eb8;fill-opacity:1"
           id="tspan4207">calcular <tspan
   style="font-style:italic;font-variant:normal;font-weight:normal;font-stretch:normal;line-height:100%;font-family:'Times New Roman';-inkscape-font-specification:'Times New Roman, Italic';fill:#377eb8;fill-opacity:1"
   id="tspan4209">y</tspan></tspan></text>
      <text
         xml:space="preserve"
         style="font-style:normal;font-weight:normal;font-size:36.45113754px;line-height:100%;font-family:sans-serif;letter-spacing:0px;word-spacing:0px;fill:#4daf4a;fill-opacity:1;stroke:none;stroke-width:1px;stroke-linecap:butt;stroke-linejoin:miter;stroke-opacity:1"
         x="247.39481"
         y="437.63528"
         id="text4178-6-3"
         sodipodi:linespacing="100%"><tspan
           sodipodi:role="line"
           x="247.39481"
           y="437.63528"
           style="font-size:29.16090965px;fill:#4daf4a;fill-opacity:1"
           id="tspan4207-6">Valor de</tspan><tspan
           sodipodi:role="line"
           x="247.39481"
           y="466.7962"
           style="font-size:29.16090965px;line-height:100%;fill:#4daf4a;fill-opacity:1"
           id="tspan4237">salida</tspan></text>
      <path
         style="fill:none;fill-rule:evenodd;stroke:#377eb8;stroke-width:2.91609097px;stroke-linecap:butt;stroke-linejoin:miter;stroke-opacity:1"
         d="m 462.2411,309.87354 12.08781,-38.3094"
         id="path4243"
         inkscape:connector-curvature="0"
         sodipodi:nodetypes="cc" />
      <path
         style="fill:none;fill-rule:evenodd;stroke:#e41a1c;stroke-width:2.91609097px;stroke-linecap:butt;stroke-linejoin:miter;stroke-opacity:1"
         d="m 516.08938,379.87085 17.67419,26.51126"
         id="path4245"
         inkscape:connector-curvature="0" />
      <path
         style="fill:none;fill-rule:evenodd;stroke:#4daf4a;stroke-width:2.91609097px;stroke-linecap:butt;stroke-linejoin:miter;stroke-opacity:1"
         d="m 307.57668,411.9468 15.56958,-30.6031"
         id="path4247"
         inkscape:connector-curvature="0"
         sodipodi:nodetypes="cc" />
    </g>
  </g>
</svg>
