<?xml version="1.0" encoding="UTF-8" standalone="no"?>
<svg
   xmlns:dc="http://purl.org/dc/elements/1.1/"
   xmlns:cc="http://creativecommons.org/ns#"
   xmlns:rdf="http://www.w3.org/1999/02/22-rdf-syntax-ns#"
   xmlns:svg="http://www.w3.org/2000/svg"
   xmlns="http://www.w3.org/2000/svg"
   xmlns:sodipodi="http://sodipodi.sourceforge.net/DTD/sodipodi-0.dtd"
   xmlns:inkscape="http://www.inkscape.org/namespaces/inkscape"
   viewBox="0 0 540.00001 359.99999"
   version="1.1"
   id="svg2"
   inkscape:version="0.91 r13725"
   sodipodi:docname="red_acelerografica.svg"
   width="6in"
   height="4in"
   inkscape:export-filename="/home/nicoguaro/Dropbox/[03]MODELACION/[02]NOTAS DE CLASE/[01] ALGORITMOS Y METODOS/img/red_acelerografica.png"
   inkscape:export-xdpi="150"
   inkscape:export-ydpi="150">
  <metadata
     id="metadata239">
    <rdf:RDF>
      <cc:Work
         rdf:about="">
        <dc:format>image/svg+xml</dc:format>
        <dc:type
           rdf:resource="http://purl.org/dc/dcmitype/StillImage" />
        <dc:title />
      </cc:Work>
    </rdf:RDF>
  </metadata>
  <defs
     id="defs237" />
  <sodipodi:namedview
     pagecolor="#ffffff"
     bordercolor="#666666"
     borderopacity="1"
     objecttolerance="10"
     gridtolerance="10"
     guidetolerance="10"
     inkscape:pageopacity="0"
     inkscape:pageshadow="2"
     inkscape:window-width="1920"
     inkscape:window-height="1010"
     id="namedview235"
     showgrid="false"
     fit-margin-top="0"
     fit-margin-left="0"
     fit-margin-right="0"
     fit-margin-bottom="0"
     units="in"
     inkscape:zoom="2.2694444"
     inkscape:cx="270"
     inkscape:cy="180"
     inkscape:window-x="0"
     inkscape:window-y="0"
     inkscape:window-maximized="1"
     inkscape:current-layer="layer1" />
  <!-- svg generated using QGIS www.qgis.org -->
  <g
     id="medellin_colombia_osm_admin"
     inkscape:groupmode="layer"
     inkscape:label="Medellin"
     style="display:inline"
     transform="translate(-775.87,-200.13003)"
     sodipodi:insensitive="true">
    <g
       style="fill:#cdccd6;fill-opacity:1;stroke:#ececec;stroke-width:0.77033824;stroke-linejoin:round;stroke-miterlimit:4;stroke-dasharray:none"
       id="medellin_colombia_osm_admin_1"
       transform="matrix(0.77887865,0,0,0.77887865,188.48051,110.13985)">
      <path
         inkscape:connector-curvature="0"
         id="path8"
         d="m 1023,461 2,-1 1,0 1,0 1,0 1,-1 1,0 1,0 1,0 0,-1 1,0 1,-1 1,0 0,-1 1,0 1,0 1,0 1,-1 1,0 1,-1 1,0 0,-1 1,0 1,-1 1,0 1,0 0,-1 1,0 1,-1 1,0 0,-1 1,0 1,0 0,-1 1,0 1,1 1,1 0,4 0,1 0,1 1,1 0,1 1,1 0,1 0,1 0,1 1,0 2,1 1,1 1,1 1,1 0,1 1,0 1,1 1,0 1,1 1,0 0,1 0,1 0,1 0,2 0,1 -1,2 0,1 0,3 0,3 1,1 1,2 0,1 1,1 0,1 0,1 1,1 0,2 -1,2 0,2 -1,3 -1,1 -1,0 -1,0 -1,0 -1,-1 -1,0 -1,1 -1,0 -1,0 -1,-1 -1,0 -2,-1 -1,0 -1,0 -1,0 -1,-1 -1,-1 0,-1 -1,-1 0,-1 -2,-1 -1,-2 -1,0 -1,-1 0,-1 -1,-1 -1,0 -1,0 0,-1 -1,0 -2,0 -1,1 -1,-1 -1,0 0,-1 -1,-1 -1,-1 -1,0 -1,-1 0,-1 -1,-1 -1,-1 -1,-2 0,-1 0,-1 0,-1 0,-1 -1,-1 0,-1 -1,0 0,-1 0,-1 0,-3 0,-1 -1,-1 0,-1 -1,-1 0,-1 -1,-1 0,-1"
         style="fill:#cdccd6;fill-opacity:1;stroke:#ececec;stroke-width:0.77033824;stroke-miterlimit:4;stroke-dasharray:none" />
    </g>
    <g
       style="fill:#cdccd6;fill-opacity:1;stroke:#ececec;stroke-width:0.77033824;stroke-linejoin:round;stroke-miterlimit:4;stroke-dasharray:none"
       id="medellin_colombia_osm_admin_2"
       transform="matrix(0.77887865,0,0,0.77887865,188.48051,110.13985)">
      <path
         inkscape:connector-curvature="0"
         id="path11"
         d="m 969,444 1,-1 1,0 1,-1 1,-1 1,-1 1,0 0,-1 2,0 1,-1 1,0 1,0 1,0 0,-1 1,0 1,0 0,-1 1,0 1,0 1,1 1,0 1,0 0,-1 1,0 1,1 0,-1 1,0 2,0 1,0 1,1 1,0 1,0 1,0 1,0 1,0 1,0 1,0 1,-1 1,0 1,0 1,1 0,1 1,2 1,1 0,2 1,2 2,0 1,1 6,0 1,0 2,-1 3,0 2,0 1,2 0,1 -2,0 -3,1 -2,1 -2,1 2,3 1,1 10,4 -1,0 -1,0 -1,1 -1,0 -1,0 -1,0 -2,1 0,1 1,1 0,1 1,1 0,1 1,1 0,1 0,3 0,1 0,1 1,0 0,1 1,1 0,1 0,1 0,1 0,1 1,2 1,1 1,1 0,1 1,1 1,0 1,1 1,1 0,1 1,0 1,1 1,-1 2,0 1,0 0,1 1,0 1,0 1,1 0,1 1,1 1,0 1,2 2,1 0,1 1,1 0,1 1,1 -2,1 -3,1 -2,1 -3,2 -1,1 -2,1 -3,1 -3,1 -4,2 -3,-1 -1,-2 0,-2 -2,-2 -1,0 -2,-1 -4,1 -3,1 -3,0 -2,0 -2,0 -3,-1 -24,-6 0,-1 0,-1 0,-1 -1,-1 0,-1 0,-1 -1,-2 0,-1 0,-1 0,-1 0,-2 0,-1 -1,-1 -1,-1 -1,-1 -1,-1 1,-2 1,-2 0,-1 -1,-1 -1,-1 -1,0 0,-1 1,-2 1,-1 -1,-1 0,-2 0,-1 1,-1 -1,-1 -1,-2 0,-1 0,-3 0,-3 0,-1 0,-1 0,-2 0,-1 -1,0 -1,-1 0,-1 0,-1 0,-1"
         style="fill:#cdccd6;fill-opacity:1;stroke:#ececec;stroke-width:0.77033824;stroke-miterlimit:4;stroke-dasharray:none" />
    </g>
    <g
       style="fill:#cdccd6;fill-opacity:1;stroke:#ececec;stroke-width:0.77033824;stroke-linejoin:round;stroke-miterlimit:4;stroke-dasharray:none"
       id="medellin_colombia_osm_admin_3"
       transform="matrix(0.77887865,0,0,0.77887865,188.48051,110.13985)">
      <path
         inkscape:connector-curvature="0"
         id="path14"
         d="m 876,490 0,-2 0,-1 0,-1 1,-1 0,-1 1,-1 0,-1 -1,-1 0,-1 -1,-1 5,-5 4,-3 4,-2 4,-1 5,0 4,-2 4,-2 0,-1 4,-1 16,-2 21,-9 1,-3 3,-4 0,-2 1,-3 0,-5 1,-4 1,-5 0,-5 2,-4 0,-1 1,0 0,1 1,0 0,-1 0,1 1,0 1,-1 0,1 1,1 0,1 1,0 0,1 1,0 0,2 1,0 1,1 1,1 0,1 0,1 -1,0 1,0 0,1 0,1 0,1 0,1 1,0 0,1 1,1 0,1 2,1 0,1 0,2 -1,1 0,1 0,1 0,3 0,2 0,1 0,1 0,1 1,1 1,0 0,1 0,2 0,1 0,1 0,3 0,3 0,1 1,2 1,1 -1,1 0,1 0,2 1,1 -1,1 -1,2 0,1 1,0 1,1 1,1 0,1 -1,2 -1,2 1,1 1,1 1,1 1,1 0,1 0,2 0,1 0,1 0,1 1,2 0,1 0,1 1,1 0,1 0,1 0,1 0,1 -1,0 -2,1 0,1 -1,2 0,3 0,1 0,4 0,2 1,2 0,2 1,1 0,2 0,2 1,2 0,1 0,1 0,1 0,1 -1,1 -1,0 -1,1 1,1 0,1 0,1 1,1 0,1 1,1 0,1 -2,0 -2,0 -2,-1 -2,0 -2,-2 -1,-2 -2,-2 -2,-1 -2,0 -2,0 -1,0 -1,1 -1,0 -2,1 0,1 -1,0 -1,1 -1,0 0,1 -1,1 -1,0 0,1 -1,0 -1,1 -1,1 0,1 -1,1 0,1 -1,1 0,1 0,1 -1,0 -1,1 0,1 -1,0 0,1 -1,0 -1,0 -1,-1 -1,0 -1,0 -1,0 -1,0 -1,0 -1,0 -1,0 -1,0 -1,-1 -1,-1 -1,0 0,2 0,1 -1,1 -1,0 0,-1 -1,-1 -1,0 -1,-1 -1,0 0,-1 -1,0 -1,-1 -1,0 -1,1 -1,0 0,1 -1,0 -1,1 -1,0 -1,0 -1,0 -2,0 -1,0 -1,1 -1,0 -1,1 -1,0 -1,1 -1,1 -1,0 -1,1 -1,1 -1,-5 1,-4 0,-3 -1,-2 -2,-4 0,-5 -3,-4 -3,-4 -4,-2 -3,-2 0,-1 0,-1 0,-1 0,-1 0,-1 0,-1 0,-1 0,-1 0,-1 0,-1 0,-1 0,-1 0,-1 0,-1 0,-1 -1,-1 0,-1 0,-1 0,-1 0,-1 0,-1 0,-1 0,-1 -1,0 -1,0 -1,-1 -1,0 -1,0 0,-1 0,-1"
         style="fill:#cdccd6;fill-opacity:1;stroke:#ececec;stroke-width:0.77033824;stroke-miterlimit:4;stroke-dasharray:none" />
    </g>
    <g
       style="fill:#cdccd6;fill-opacity:1;stroke:#ececec;stroke-width:0.77033824;stroke-linejoin:round;stroke-miterlimit:4;stroke-dasharray:none"
       id="medellin_colombia_osm_admin_4"
       transform="matrix(0.77887865,0,0,0.77887865,188.48051,110.13985)">
      <path
         inkscape:connector-curvature="0"
         id="path17"
         d="m 1008,441 1,0 2,-1 1,-1 1,0 2,0 1,0 0,-1 1,0 2,-1 1,-1 -1,0 1,0 1,-1 -2,-2 -1,-1 0,-1 0,-1 -1,-1 0,-1 -1,0 0,-1 -1,0 1,-1 0,-1 -1,-1 0,-1 -1,0 0,-1 0,1 -1,0 0,1 0,-1 -1,0 -1,-1 1,0 1,-2 0,-2 1,-1 1,-1 1,0 1,0 1,-1 1,0 1,0 1,0 0,1 1,0 0,-1 1,0 1,0 2,0 1,0 0,-1 1,-1 1,-1 0,1 1,0 1,0 0,-1 2,1 1,0 1,0 1,-1 3,-1 1,0 1,0 1,0 1,-1 1,0 1,0 1,0 1,0 0,-1 1,0 1,1 1,1 1,0 0,-1 1,0 0,1 1,0 1,0 0,-1 1,0 1,0 0,1 1,0 1,0 0,1 1,0 0,1 0,-1 1,0 0,1 1,1 2,1 0,1 4,0 1,0 0,-1 2,-1 1,-2 1,0 2,1 2,0 2,1 -1,1 0,1 -1,4 0,1 -1,0 -1,2 -4,3 -1,1 0,1 -1,0 0,1 -1,1 0,1 -1,0 0,1 -1,1 -1,1 -1,0 0,1 -1,0 0,1 -1,0 0,1 -1,0 -1,1 -1,0 0,1 -1,0 -1,1 -1,1 0,1 0,1 0,1 -1,0 0,1 0,1 0,1 -1,0 -1,0 0,1 -1,0 0,1 -1,0 -1,0 0,1 -1,0 -1,1 -1,0 0,1 -1,0 -1,0 -1,1 -1,0 0,1 -1,0 -1,1 -1,0 -1,1 -1,0 -1,0 -1,0 0,1 -1,0 -1,1 -1,0 0,1 -1,0 -10,-4 -1,-1 -2,-3 2,-1 2,-1 3,-1 2,0 0,-1 -1,-2 -2,0 -3,0 -2,1 -1,0 -6,0 -1,-1 -2,0 -1,-2 0,-2"
         style="fill:#cdccd6;fill-opacity:1;stroke:#ececec;stroke-width:0.77033824;stroke-miterlimit:4;stroke-dasharray:none" />
    </g>
    <g
       style="fill:#cdccd6;fill-opacity:1;stroke:#ececec;stroke-width:0.77033824;stroke-linejoin:round;stroke-miterlimit:4;stroke-dasharray:none"
       id="medellin_colombia_osm_admin_5"
       transform="matrix(0.77887865,0,0,0.77887865,188.48051,110.13985)">
      <path
         inkscape:connector-curvature="0"
         id="path20"
         d="m 820,363 0,-1 0,-1 0,-1 0,-1 0,-1 1,-1 0,-1 0,-1 1,-1 0,-1 0,-1 1,0 0,-1 1,-1 0,-1 1,0 0,-1 1,0 0,-1 1,0 0,-1 1,0 0,-1 1,0 1,-1 1,0 0,-1 1,0 1,-1 1,0 1,0 0,-1 1,0 1,0 1,0 1,0 1,-1 1,0 1,-1 1,0 1,-1 1,0 1,0 1,-1 1,0 1,0 1,-1 1,0 1,-1 1,0 2,1 1,0 -1,1 -1,0 0,1 0,2 0,2 2,2 0,2 2,1 1,1 1,2 2,1 1,2 1,2 1,2 1,1 1,-1 1,-1 2,-2 1,0 1,0 2,0 1,-1 1,0 1,0 2,0 2,1 3,0 1,-1 0,-1 0,-1 1,1 1,1 1,0 0,-1 1,-1 0,-1 1,-1 1,-1 1,-1 1,-1 2,-1 1,-1 1,0 1,-1 1,0 1,0 1,-1 0,-1 1,0 1,-1 1,0 1,-1 1,-1 1,-1 1,-1 1,0 0,-1 1,0 3,0 1,0 1,0 1,1 1,1 1,0 1,1 1,1 1,1 1,0 1,1 1,0 0,1 1,1 0,1 1,0 1,-1 0,-1 0,-1 0,-1 1,-1 0,-1 1,-1 0,1 2,2 1,1 1,1 1,1 4,1 2,1 1,0 0,1 -1,0 0,2 0,1 -1,1 0,1 0,2 0,1 0,2 0,3 -1,0 0,1 0,2 1,0 1,0 1,0 1,0 1,0 0,1 1,1 0,1 1,1 1,1 0,2 1,1 0,1 0,2 0,1 -1,2 0,1 0,1 0,1 1,1 0,1 0,1 1,0 0,1 0,1 1,0 0,1 -1,1 0,1 1,1 0,1 0,1 0,1 0,1 1,1 0,3 -1,2 -1,1 -2,3 0,2 0,1 1,1 1,0 1,1 1,1 1,1 1,1 1,2 1,1 1,2 1,0 0,1 -2,4 0,5 -1,5 -1,4 0,5 -1,3 0,2 -3,4 -1,3 -21,9 -16,2 -4,1 0,1 -4,2 -4,2 0,-2 0,-4 -1,-1 0,-1 0,-1 0,-1 0,-1 0,-2 0,-1 0,-1 1,-1 0,-1 0,-1 1,0 1,-1 0,-1 1,0 1,-1 0,-1 0,-1 1,-1 0,-1 1,-1 0,-1 0,-1 1,-1 0,-1 0,-1 0,-1 0,-1 1,-2 0,-1 -5,-1 -5,-2 -5,-1 -4,1 -5,2 -5,-1 -4,-1 -5,-1 -5,-1 -3,-4 -2,-4 -3,-4 -3,-4 -3,-4 -4,-2 -5,-1 -4,-3 -2,-4 -2,-4 -3,-4 -1,-2 -3,-3 -3,-2 0,-2 0,-1 0,-1 0,-1 0,-1 0,-1 0,-1 0,-1 0,-1 0,-1 -1,-1 0,-1 0,-1 -1,-1 0,-1 0,-1 0,-1 0,-1"
         style="fill:#cdccd6;fill-opacity:1;stroke:#ececec;stroke-width:0.77033824;stroke-miterlimit:4;stroke-dasharray:none" />
    </g>
    <g
       style="fill:#cdccd6;fill-opacity:1;stroke:#ececec;stroke-width:0.77033824;stroke-linejoin:round;stroke-miterlimit:4;stroke-dasharray:none"
       id="medellin_colombia_osm_admin_6"
       transform="matrix(0.77887865,0,0,0.77887865,188.48051,110.13985)">
      <path
         inkscape:connector-curvature="0"
         id="path23"
         d="m 1176,166 1,-2 1,0 0,-1 1,0 0,-1 0,-1 0,-1 0,-1 1,-1 3,0 2,1 3,0 2,-1 2,0 1,0 2,0 1,1 1,0 1,-1 3,-3 -1,0 0,-1 0,-1 0,-1 1,0 1,0 1,1 1,0 1,0 1,1 1,0 1,0 2,0 1,0 1,0 1,-1 1,0 2,0 1,0 1,0 1,0 1,0 0,1 1,0 1,0 0,1 1,0 0,1 1,1 0,1 1,0 0,1 0,1 1,0 0,1 1,0 0,1 1,0 1,0 1,0 1,0 1,1 2,2 0,1 1,0 0,1 0,1 0,3 1,1 0,1 1,0 1,1 1,1 1,1 1,1 1,1 1,0 1,1 0,1 1,0 0,1 1,0 1,1 1,1 1,1 1,1 1,1 0,1 0,1 1,1 1,1 -1,0 1,2 0,3 1,2 3,0 3,0 2,2 2,2 1,3 1,4 1,2 0,3 1,3 2,2 2,2 -1,3 -2,1 -1,2 2,5 1,2 1,1 1,1 2,1 -1,2 -1,2 -1,3 -1,0 -2,1 -1,1 -1,2 -4,-1 -1,1 -4,1 -1,2 -1,2 -1,2 -1,1 -2,1 -1,2 -1,3 -1,4 1,4 0,1 1,2 0,2 0,1 0,1 -1,1 0,1 0,2 -1,0 0,1 0,2 -2,0 -2,0 -1,0 -2,-1 -1,-1 -2,-1 -1,-2 -2,-1 -1,0 -1,-1 -2,-1 -3,-1 -2,-1 -1,-1 -2,-2 -1,-1 -2,-1 -1,-1 0,-2 0,-1 -1,-1 -2,0 0,-1 -2,-1 -1,0 -2,0 -2,-1 -1,0 0,-1 -1,-1 -1,-1 -1,-1 0,-1 -1,-1 -1,-1 -1,-1 -1,-1 -1,-1 -1,0 -1,0 -2,-1 -1,0 -1,-1 0,-1 -1,-1 0,-1 -1,-1 0,-1 -1,0 -1,-1 -1,0 -1,0 -1,-1 0,-1 0,-1 0,-1 -1,-1 0,-1 0,-1 0,-2 -1,-2 -1,-2 0,-1 0,-1 -1,-1 0,-1 0,-1 0,-3 1,-1 0,-1 1,-1 0,-1 1,0 0,-1 1,0 0,1 1,0 0,1 1,0 1,0 1,-1 0,-1 -2,-1 -2,-2 -1,-2 -1,-2 -1,-2 -1,-2 -2,-1 0,-2 -1,-1 -2,-3 0,-1 -1,-2 0,-2 0,-2 0,-2 0,-2 0,-2 1,-1 0,-2 0,-2 -1,-2 0,-1 -1,-3 0,-2 -1,-2 0,-2 0,-2"
         style="fill:#cdccd6;fill-opacity:1;stroke:#ececec;stroke-width:0.77033824;stroke-miterlimit:4;stroke-dasharray:none" />
    </g>
    <g
       style="fill:#cdccd6;fill-opacity:1;stroke:#ececec;stroke-width:0.77033824;stroke-linejoin:round;stroke-miterlimit:4;stroke-dasharray:none"
       id="medellin_colombia_osm_admin_7"
       transform="matrix(0.77887865,0,0,0.77887865,188.48051,110.13985)">
      <path
         inkscape:connector-curvature="0"
         id="path26"
         d="m 778,268 0,-2 1,-1 0,-1 1,-2 1,0 3,-1 1,-2 0,-1 0,-1 0,-3 0,-2 2,-1 0,-1 3,-3 0,-2 1,-1 0,-1 -1,-1 -2,-2 -2,-3 0,-1 -1,-2 0,-3 1,-3 1,-3 1,-1 1,-1 3,0 2,-2 0,-2 0,-1 0,-4 -1,-3 0,-2 5,-3 1,-1 0,-2 0,-2 0,-1 2,-1 1,-1 3,0 2,-1 0,-2 0,-1 0,-1 0,-3 1,-2 1,-1 4,0 3,-1 2,-2 1,-2 0,-1 1,0 1,-1 1,0 1,0 1,0 1,0 1,0 0,-1 1,0 3,0 1,1 1,1 1,1 1,1 0,1 1,2 1,0 0,1 1,1 0,1 0,1 0,1 1,1 0,1 1,0 1,0 0,-2 1,0 0,-2 -1,-1 0,-1 1,-1 0,-1 2,1 2,0 1,-1 2,0 3,0 2,-1 1,0 2,-1 1,0 0,-1 0,-1 0,-2 0,-1 2,-1 0,-3 -1,-3 2,0 4,0 6,0 5,3 4,1 4,3 4,2 3,4 2,4 3,5 4,2 5,1 4,2 0,5 1,5 4,2 5,1 2,4 0,1 1,4 3,4 1,4 3,4 2,2 1,1 0,1 1,1 0,1 0,1 0,1 0,1 1,0 0,1 0,1 0,1 -1,0 1,0 0,1 -1,2 1,0 0,1 1,0 0,1 -1,0 -1,1 -1,0 -1,0 0,1 -1,0 0,1 0,1 0,1 -1,0 0,1 0,1 0,1 1,1 0,1 1,0 0,1 0,1 1,1 1,0 0,1 -1,1 -1,1 -1,1 0,1 0,1 -1,1 1,0 0,1 0,1 0,1 0,1 0,1 0,1 0,1 1,0 1,1 1,0 0,1 1,0 0,1 1,0 0,1 1,1 1,1 0,1 1,0 0,1 1,1 0,1 0,1 0,1 -1,1 1,1 0,1 1,0 -1,0 1,0 0,1 0,1 0,1 1,0 0,1 0,1 1,1 -1,1 0,1 -1,0 0,1 1,0 0,1 0,1 0,1 1,2 0,1 0,1 -1,-1 1,1 -1,0 0,1 -1,0 1,0 0,1 0,1 0,1 0,1 0,1 0,2 1,1 1,1 0,1 0,1 -1,1 -1,0 0,2 0,1 0,1 0,2 0,1 -1,1 0,1 0,1 0,1 0,1 0,1 -1,0 0,1 0,1 0,1 0,1 0,1 0,1 0,1 0,1 0,2 0,1 -4,-1 -1,-1 -1,-1 -1,-1 -2,-2 0,-1 -1,1 0,1 -1,1 0,1 0,1 0,1 -1,1 -1,0 0,-1 -1,-1 0,-1 -1,0 -1,-1 -1,0 -1,-1 -1,-1 -1,-1 -1,0 -1,-1 -1,-1 -1,0 -1,0 -3,0 -1,0 0,1 -1,0 -1,1 -1,1 -1,1 -1,1 -1,0 -1,1 -1,0 0,1 -1,1 -1,0 -1,0 -1,1 -1,0 -1,1 -2,1 -1,1 -1,1 -1,1 -1,1 0,1 -1,1 0,1 -1,0 -1,-1 -1,-1 0,1 0,1 -1,1 -3,0 -2,-1 -2,0 -1,0 -1,0 -1,1 -2,0 -1,0 -1,0 -2,2 -1,1 -1,1 -1,-1 -1,-2 -1,-2 -1,-2 -2,-1 -1,-2 -1,-1 -2,-1 0,-2 -2,-2 0,-2 0,-2 0,-1 1,0 1,-1 -1,0 -2,-1 -1,0 -1,1 -1,0 -1,1 -1,0 -1,0 -1,1 -1,0 -1,0 -1,1 -1,0 -1,1 -1,0 -1,1 -1,0 -1,0 -1,0 -1,0 0,1 -1,0 -1,0 -1,1 -1,0 0,1 -1,0 -1,1 -1,0 0,1 -1,0 0,1 -1,0 0,1 -1,0 0,1 -1,0 0,1 -1,1 0,1 -1,0 0,1 0,1 -1,1 0,1 0,1 -1,1 0,1 0,1 0,1 0,1 0,1 0,1 0,1 0,1 0,1 1,1 0,1 0,1 1,1 0,1 0,1 0,1 0,1 0,1 0,1 0,1 0,1 0,1 0,2 -1,-1 -5,-1 -5,-2 -4,-2 -3,-2 -1,-1 -2,-1 -3,-1 -4,-2 -2,-4 -1,-1 -2,-4 -6,-4 1,-1 1,-2 5,0 4,0 2,0 2,-2 1,-6 -1,-3 0,-1 -1,-2 -2,-7 0,-3 4,-2 2,-2 2,-5 0,-4 -1,0 -1,-2 -2,-1 -2,0 -4,-2 -2,-2 -1,-2 0,-3 0,-1 0,-1 0,-1 1,0 1,-1 1,-1 0,-1 -1,-2 0,-1 -1,-1 0,-2 1,-2 0,-1 1,-1 2,-2 1,-2 0,-1 -1,-1 -1,-1 -1,-2 -2,0 -2,-2 -1,0 -1,-3 -1,-1 -1,-1 -2,-1 -1,0 -2,0 -1,-1 0,-1 -1,-1"
         style="fill:#cdccd6;fill-opacity:1;stroke:#ececec;stroke-width:0.77033824;stroke-miterlimit:4;stroke-dasharray:none" />
    </g>
    <g
       style="fill:#cdccd6;fill-opacity:1;stroke:#ececec;stroke-width:0.77033824;stroke-linejoin:round;stroke-miterlimit:4;stroke-dasharray:none"
       id="medellin_colombia_osm_admin_8"
       transform="matrix(0.77887865,0,0,0.77887865,188.48051,110.13985)">
      <path
         inkscape:connector-curvature="0"
         id="path29"
         d="m 1127,262 0,-1 0,-1 1,0 1,-1 1,0 1,0 1,0 1,0 1,0 1,0 1,-1 2,-1 1,1 1,0 1,-1 0,-1 0,-1 1,-1 1,0 1,0 0,-1 0,-1 1,-1 0,-1 1,0 1,0 1,0 1,0 1,0 1,-1 -1,0 -1,0 0,-1 -1,0 0,-1 -1,0 0,-1 0,-1 0,-1 1,-1 0,-1 0,-1 0,-1 1,0 0,-1 0,-2 0,-1 1,-1 0,-1 0,-1 0,-1 -1,0 0,-1 -1,-1 -1,-1 -1,0 0,-1 -1,0 0,-1 -1,0 -1,-1 -1,-1 0,-1 -1,0 -1,-1 0,-1 -1,-1 0,-1 0,-1 0,-1 -1,-1 0,-1 -1,0 0,-1 -1,0 0,-1 -1,0 0,-1 -1,0 0,-1 -1,0 0,-1 -1,0 0,-1 -1,-1 -1,0 0,-1 0,-1 0,-1 0,-1 1,-1 0,-1 0,-2 1,0 2,-2 2,-1 3,0 2,-1 0,-1 0,-3 -1,-2 0,-2 1,-1 0,-1 1,0 1,-1 2,0 2,-1 0,-1 1,-1 2,-1 1,0 1,-1 1,-1 0,-2 0,-1 1,-1 1,0 2,-1 1,-1 1,-1 1,0 1,-1 2,0 2,-1 2,-1 1,0 2,-1 1,-1 1,-1 0,-1 1,0 0,-1 1,-1 0,-2 1,-1 0,-1 1,-1 2,-1 1,1 0,1 0,1 0,1 0,1 -1,0 0,1 -1,0 -1,2 0,2 0,2 1,2 0,2 1,3 0,1 1,2 0,2 0,2 -1,1 0,2 0,2 0,2 0,2 0,2 1,2 0,1 2,3 1,1 0,2 2,1 1,2 1,2 1,2 1,2 2,2 2,1 0,1 -1,1 -1,0 -1,0 0,-1 -1,0 0,-1 -1,0 0,1 -1,0 0,1 -1,1 0,1 -1,1 0,3 0,1 0,1 1,1 0,1 0,1 1,2 1,2 0,2 0,1 0,1 1,1 0,1 0,1 0,1 1,1 1,0 1,0 1,1 1,0 0,1 1,1 0,1 1,1 0,1 1,1 1,0 2,1 1,0 1,0 1,1 1,1 1,1 1,1 1,1 0,1 1,1 1,1 1,1 0,1 1,0 2,1 2,0 1,0 2,1 0,1 0,2 0,1 0,1 -1,0 -1,1 0,1 -1,2 -2,0 0,1 -2,1 -1,0 -1,1 -1,0 -1,0 -1,1 0,1 0,1 -1,1 0,1 -1,1 -1,1 -1,0 -2,0 -2,0 -1,0 -1,0 -1,0 -1,0 -1,0 -1,-1 -1,-1 -1,0 -2,0 -1,0 0,1 0,2 -1,1 -1,2 0,1 0,1 0,1 -1,0 -2,1 0,1 -1,1 -1,0 -1,1 -1,0 -1,1 0,2 1,0 1,0 0,1 -1,1 0,2 1,1 1,0 1,0 0,2 0,1 -1,1 -2,1 -1,0 -1,-1 -1,-1 -2,-1 -2,0 -4,0 -2,0 -2,0 -2,-1 -1,0 -2,0 -2,-1 -3,-1 -1,0 -1,0 -1,0 -2,2 -1,1 -1,2 -1,2 -1,2 0,1 0,2 -1,0 0,-1 0,-2 -1,-1 0,-1 -1,-1 0,-1 0,-1 -1,-1 -1,-3 0,-1 -1,-2 -1,-1 0,-1 0,-2 0,-2 -1,-1 0,-1 0,-1 -1,-2 0,-1 -1,-1 0,-1 -1,-1 0,-1 -1,-4 0,-1 0,-1 -1,-1 -1,-4 -1,-1 0,-2 0,-1 -1,-1 0,-1 0,-1"
         style="fill:#cdccd6;fill-opacity:1;stroke:#ececec;stroke-width:0.77033824;stroke-miterlimit:4;stroke-dasharray:none" />
    </g>
    <g
       style="fill:#cdccd6;fill-opacity:1;stroke:#ececec;stroke-width:0.77033824;stroke-linejoin:round;stroke-miterlimit:4;stroke-dasharray:none"
       id="medellin_colombia_osm_admin_9"
       transform="matrix(0.77887865,0,0,0.77887865,188.48051,110.13985)">
      <path
         inkscape:connector-curvature="0"
         id="path32"
         d="m 776,369 2,-4 1,-1 2,-6 1,-1 1,-1 6,4 2,4 1,1 2,4 4,2 3,1 2,1 1,1 3,2 4,2 5,2 5,1 1,1 3,2 3,3 1,2 3,4 2,4 2,4 4,3 5,1 4,2 3,4 3,4 3,4 2,4 3,4 5,1 5,1 4,1 5,1 5,-2 4,-1 5,1 5,2 5,1 0,1 -1,2 0,1 0,1 0,1 0,1 -1,1 0,1 0,1 -1,1 0,1 -1,1 0,1 0,1 -1,1 -1,0 0,1 -1,1 -1,0 0,1 0,1 -1,1 0,1 0,1 0,2 0,1 0,1 0,1 0,1 1,1 0,4 0,2 -5,0 -4,1 -4,2 -4,3 -5,5 -5,2 -4,3 -4,3 -4,2 -4,2 -4,3 -4,3 -3,3 -1,5 -4,3 -3,5 -2,-1 -3,0 -2,0 -2,0 -3,1 -5,-1 -4,1 -2,1 -2,2 -5,1 -4,-2 0,-1 -4,2 -2,1 -1,0 -2,1 -5,0 -7,0 0,-1 0,-1 0,-2 1,-1 0,-3 -2,-6 -1,-2 2,-3 2,-2 0,-1 3,-3 1,-3 2,-3 2,-2 2,-6 -1,-3 -1,-4 2,-5 1,-5 -2,-3 1,-5 2,-5 0,-5 0,-6 -3,-5 -1,-1 -1,-2 0,-1 0,-2 0,-3 -2,-3 -1,-2 0,-2 0,-1 0,-5 2,-3 1,-2 0,-1 1,-6 1,-3 1,-4 0,-2 0,-3 -1,-2 -4,-2 -4,1 -3,0 -2,-1 -1,-4 0,-1 -1,-3 0,-2 -1,-2 0,-2"
         style="fill:#cdccd6;fill-opacity:1;stroke:#ececec;stroke-width:0.77033824;stroke-miterlimit:4;stroke-dasharray:none" />
    </g>
    <g
       style="fill:#cdccd6;fill-opacity:1;stroke:#ececec;stroke-width:0.77033824;stroke-linejoin:round;stroke-miterlimit:4;stroke-dasharray:none"
       id="medellin_colombia_osm_admin_10"
       transform="matrix(0.77887865,0,0,0.77887865,188.48051,110.13985)">
      <path
         inkscape:connector-curvature="0"
         id="path35"
         d="m 985,217 1,-1 1,-1 0,-1 0,-2 0,-1 0,-1 1,-1 1,0 0,-1 0,-1 0,-2 0,-1 0,-1 1,-1 0,-1 0,-1 0,-1 0,-1 1,0 0,-2 0,-1 1,0 0,-1 0,-1 0,-1 0,-1 -1,-1 0,-1 0,-1 -1,0 0,-1 -1,-1 1,0 1,1 1,0 1,1 2,0 2,3 1,1 1,0 2,1 1,0 3,3 1,0 2,1 3,2 1,1 3,2 7,5 6,2 7,1 0,-2 0,-1 1,-1 1,-2 1,-1 0,-1 1,-2 0,-1 1,-1 1,-3 0,-1 0,-2 0,-1 0,-1 -1,-1 0,-1 0,-1 0,-1 0,-1 1,-1 1,-2 1,-1 0,-1 1,-1 1,-1 1,0 2,-1 1,0 1,0 1,0 2,-1 1,0 1,0 0,-1 1,0 1,-1 0,-1 1,-1 0,-1 0,-1 1,0 0,-1 1,-1 0,-1 1,-1 0,-1 1,0 0,-1 1,-1 0,-1 1,0 0,-1 0,-1 0,-1 0,-1 1,0 1,-1 0,-1 1,0 0,-1 0,-1 0,-1 1,1 1,1 1,1 0,1 1,0 0,1 0,1 1,0 0,1 1,1 1,1 1,1 1,1 2,0 1,0 1,0 1,0 1,1 1,1 1,0 1,1 1,1 2,0 2,0 1,0 0,-1 1,0 1,1 1,1 1,1 0,1 0,3 1,3 0,2 0,1 -1,2 0,2 0,2 0,1 1,2 2,4 4,6 3,6 1,3 1,1 3,1 3,-1 1,-1 2,-3 4,0 4,0 3,-1 3,-1 1,-2 0,2 0,1 -1,1 0,1 0,1 0,1 0,1 1,0 1,1 0,1 1,0 0,1 1,0 0,1 1,0 0,1 1,0 0,1 1,0 0,1 1,0 0,1 1,1 0,1 0,1 0,1 1,1 0,1 1,1 1,0 0,1 1,1 1,1 1,0 0,1 1,0 0,1 1,0 1,1 1,1 0,1 1,0 0,1 0,1 0,1 -1,1 0,1 0,2 0,1 -1,0 0,1 0,1 0,1 -1,1 0,1 0,1 0,1 1,0 0,1 1,0 0,1 1,0 1,0 -1,1 -1,0 -1,0 -1,0 -1,0 -1,0 0,1 -1,1 0,1 0,1 -1,0 -1,0 -1,1 0,1 0,1 -1,1 -1,0 -1,-1 -2,1 -1,1 -1,0 -1,0 -1,0 -1,0 -1,0 -1,0 -1,1 -1,0 0,1 0,1 0,1 0,1 1,1 0,1 0,2 1,1 1,4 1,1 0,1 0,1 1,4 0,1 1,1 0,1 1,1 0,1 1,2 0,1 0,1 1,1 0,2 0,2 0,1 1,1 1,2 0,1 1,3 1,1 0,1 0,1 1,1 0,1 1,1 0,2 0,1 1,0 0,1 0,1 -1,-1 -1,1 -1,0 -1,0 -1,1 -1,0 0,-1 0,-1 -1,-1 0,-1 -1,-1 -1,0 1,-1 0,-1 1,0 0,-1 0,-1 1,0 -1,0 0,-1 -1,0 0,-1 -1,0 -1,0 0,-1 -1,-1 -1,0 0,-1 -1,0 -1,0 -1,1 -1,0 0,1 -1,0 -1,-1 0,-1 -1,0 0,-1 1,0 -1,0 -1,0 0,-1 -1,0 0,-1 -1,0 -1,-1 -1,0 -1,0 0,-1 -1,0 -1,-1 -1,0 -1,0 -1,0 1,-1 -1,0 -1,0 -1,0 0,-1 -1,0 -1,0 -1,0 -1,-1 -1,0 0,-1 -1,0 0,-1 -1,0 1,-1 -1,-1 -1,0 -1,0 -1,0 -1,0 -1,0 -1,0 -1,0 -1,0 -1,-1 -1,0 -1,0 0,1 -1,0 -1,0 0,1 -1,0 -1,0 -1,0 -1,1 0,-1 0,1 0,-1 -1,0 -1,0 -1,0 -1,0 -1,0 0,1 -1,0 -1,0 -1,1 -1,0 -1,0 -1,0 -1,0 -1,0 -1,-1 -1,0 0,1 -2,0 -1,0 -2,1 -1,0 -2,0 0,1 -1,0 -1,0 -1,0 -1,0 -1,0 -1,-1 -1,0 0,-1 -1,0 -1,0 -1,0 0,1 -1,0 0,-1 -1,-1 -1,-1 0,-1 -1,0 -1,0 -1,-1 -1,0 -1,0 0,-1 -1,0 0,-1 -1,0 -1,1 -1,0 -1,0 0,1 -1,0 -1,0 -1,0 -1,-1 -1,0 -1,0 -1,0 -1,-1 -1,0 -1,0 0,1 -1,0 0,1 -1,-1 -1,-1 -1,0 0,-1 -1,0 -1,0 -1,0 -1,-1 -1,0 0,-1 -1,0 -1,-1 0,-1 -1,0 0,-1 -1,0 -1,-1 -1,0 -1,-1 -1,0 -1,0 0,-1 -1,-1 -1,-1 -1,-1 0,-1 -1,-1 -1,-1 -1,-1 -1,-1 -1,0 0,-1 -1,0 -1,0 -1,-1 -1,-1 -1,-1 -1,-2 -1,0 0,-1 0,-2 0,-1 0,-3 0,-1 0,-1 0,-1 0,-1 0,-2 0,-2 -1,-2 0,-1 -2,-3 -1,0 -1,-3 -1,-1 -1,0 -1,-1 -1,0 -1,0 -1,-3 0,-1 0,-1 0,-1 0,-1 0,-2 -1,-1 0,-1 0,-1 0,-1 -1,-1 0,-1 0,-2 0,-1"
         style="fill:#cdccd6;fill-opacity:1;stroke:#ececec;stroke-width:0.77033824;stroke-miterlimit:4;stroke-dasharray:none" />
    </g>
    <g
       style="fill:#cdccd6;fill-opacity:1;stroke:#ececec;stroke-width:0.77033824;stroke-linejoin:round;stroke-miterlimit:4;stroke-dasharray:none"
       id="medellin_colombia_osm_admin_11"
       transform="matrix(0.77887865,0,0,0.77887865,188.48051,110.13985)">
      <path
         inkscape:connector-curvature="0"
         id="path38"
         d="m 1052,448 0,-1 1,0 1,0 0,-1 0,-1 0,-1 1,0 0,-1 0,-1 0,-1 1,-1 1,-1 1,0 0,-1 1,0 1,-1 1,0 0,-1 1,0 0,-1 1,0 0,-1 1,0 1,-1 1,-1 0,-1 1,0 0,-1 1,-1 0,-1 1,0 0,-1 1,-1 4,-3 1,-2 1,0 2,1 1,1 0,1 0,1 1,1 3,2 1,0 1,1 0,1 1,0 1,0 0,1 1,0 1,0 1,0 1,0 0,1 0,-1 1,1 1,1 1,0 0,1 1,0 1,0 0,1 1,0 0,-1 0,1 1,0 0,-1 1,0 1,0 0,1 1,0 1,0 1,0 1,0 3,0 1,0 1,0 4,1 2,0 3,1 1,1 1,1 2,1 1,0 2,1 1,0 1,-1 1,-2 2,-5 1,-1 0,-2 1,-2 1,-1 0,-2 2,-3 0,-1 1,-2 0,-2 1,-1 0,-1 1,-1 2,-1 1,0 2,0 1,0 2,0 1,0 1,0 1,1 2,0 1,1 1,0 2,1 1,1 4,2 1,0 2,0 1,0 0,1 1,0 1,0 0,-1 1,-1 1,-1 0,-1 1,0 0,-1 1,0 1,0 1,0 2,-1 1,0 1,0 0,-1 2,0 0,-1 1,-1 1,0 2,-1 2,0 0,2 0,1 -1,2 -1,2 0,3 1,2 2,2 0,2 -1,1 -1,1 -1,2 1,2 0,1 0,2 0,1 0,1 2,2 3,1 2,0 2,1 2,1 0,1 0,1 -1,9 0,1 -1,0 -1,0 -1,0 -1,-1 -1,1 -1,-1 -1,0 -1,0 -1,1 -1,-1 0,-1 -1,0 -1,0 -1,-1 -1,0 0,1 0,1 -1,1 -2,0 0,1 -1,0 -1,0 -1,1 0,1 -1,0 -3,1 -1,1 -1,1 0,-1 -1,-1 -2,-2 -1,2 0,1 -2,0 -1,-1 -2,-2 -3,-1 -1,0 -1,-1 -2,1 0,1 -1,2 0,1 1,1 0,1 -1,0 -2,1 -2,2 0,2 -3,1 0,2 0,2 1,2 1,2 0,1 1,2 -1,1 0,1 0,2 -2,0 -1,-1 -1,1 -1,0 -2,0 -1,-1 -1,-1 -1,1 -1,0 0,2 -6,0 -1,0 0,1 -1,1 0,2 -1,1 -1,1 -1,1 -1,0 -1,1 -1,0 0,1 0,1 0,5 0,1 -1,0 0,1 -1,0 -1,1 -1,0 -1,1 0,1 -1,1 -1,0 0,2 0,2 -1,1 0,1 -1,1 -2,1 -2,1 -3,0 -1,0 -1,-1 -1,0 -1,0 -2,0 -1,0 -1,0 -1,1 -1,2 -1,1 -1,1 -1,0 -1,0 -1,1 -1,0 -1,0 0,-1 0,-1 -1,-1 -1,-2 -1,-1 0,-1 -1,-1 -1,-1 -1,-1 -1,0 -2,0 -1,0 -2,-1 -1,-1 -1,0 -1,0 -1,-1 -2,-1 -1,0 0,-1 -1,-1 1,-1 1,-3 0,-2 1,-2 0,-2 -1,-1 0,-1 0,-1 -1,-1 0,-1 -1,-2 -1,-1 0,-3 0,-3 0,-1 1,-2 0,-1 0,-2 0,-1 0,-1 0,-1 -1,0 -1,-1 -1,0 -1,-1 -1,0 0,-1 -1,-1 -1,-1 -1,-1 -2,-1 -1,0 0,-1 0,-1 0,-1 -1,-1 0,-1 -1,-1 0,-1 0,-1 0,-4 -1,-1 -1,-1"
         style="fill:#cdccd6;fill-opacity:1;stroke:#ececec;stroke-width:0.77033824;stroke-miterlimit:4;stroke-dasharray:none" />
    </g>
    <g
       style="fill:#cdccd6;fill-opacity:1;stroke:#ececec;stroke-width:0.77033824;stroke-linejoin:round;stroke-miterlimit:4;stroke-dasharray:none"
       id="medellin_colombia_osm_admin_12"
       transform="matrix(0.77887865,0,0,0.77887865,188.48051,110.13985)">
      <path
         inkscape:connector-curvature="0"
         id="path41"
         d="m 1160,301 2,1 2,0 2,0 4,0 2,0 2,1 1,1 1,1 1,0 2,-1 1,-1 0,-1 0,-2 -1,0 -1,0 -1,-1 0,-2 1,-1 0,-1 -1,0 -1,0 0,-2 1,-1 1,0 1,-1 1,0 1,-1 0,-1 2,-1 1,0 0,-1 0,-1 0,-1 1,-2 1,-1 0,-2 0,-1 1,0 2,0 1,0 1,1 1,1 1,0 1,0 1,0 1,0 1,0 2,0 2,0 1,0 1,-1 1,-1 0,-1 1,-1 0,-1 0,-1 1,-1 1,0 1,0 1,-1 1,0 2,-1 0,-1 2,0 1,-2 0,-1 1,-1 1,0 0,-1 0,-1 0,-2 2,0 1,1 0,1 0,2 1,1 2,1 1,1 2,2 1,1 2,1 3,1 2,1 1,1 1,0 2,1 1,2 2,1 1,1 2,1 1,0 2,0 2,0 0,-2 0,-1 1,0 0,-2 0,-1 1,-1 0,-1 0,-1 0,-2 -1,-2 0,-1 -1,-4 1,-4 1,-3 1,-2 2,-1 1,-1 1,-2 1,-2 1,-2 4,-1 1,-1 4,1 1,-2 1,-1 2,-1 1,0 1,0 1,0 1,0 1,0 1,0 1,0 1,0 1,-1 1,0 1,1 1,0 1,1 1,0 1,-1 1,0 1,0 1,1 2,0 1,0 1,1 1,0 -1,0 0,1 -1,1 0,1 -1,0 0,1 0,1 0,1 -1,0 0,1 -1,1 0,1 0,1 0,1 0,1 0,1 0,1 0,1 0,1 -1,1 0,1 0,1 -1,0 0,1 1,0 0,1 1,1 0,1 1,0 -1,1 0,1 -1,0 0,1 -1,0 -1,2 -1,1 0,1 -1,0 0,1 1,1 1,1 0,1 1,0 0,1 0,1 0,1 0,1 -1,0 0,1 1,1 0,1 1,0 0,1 0,1 1,0 0,1 0,1 0,2 0,1 0,1 0,1 0,1 -1,2 -1,1 0,1 0,1 -1,0 0,1 0,1 0,1 -1,0 0,1 0,1 -1,0 1,1 1,1 1,-1 1,0 1,0 1,0 0,-1 1,0 1,0 1,0 0,1 0,1 1,0 0,1 0,1 0,1 0,1 0,1 -1,0 0,1 0,1 0,1 0,1 0,1 -1,0 0,1 -1,0 -1,1 1,1 0,1 1,0 1,1 0,1 1,1 0,1 0,1 0,1 0,1 -1,1 0,1 0,1 1,1 1,1 1,1 1,1 1,1 0,1 0,1 -1,1 0,1 0,1 0,1 0,1 1,0 0,1 0,1 0,1 0,1 1,0 0,1 0,1 1,0 0,1 0,1 -1,0 0,1 0,1 -1,0 0,1 0,1 1,0 1,1 0,1 1,0 -1,1 -1,0 0,1 -1,0 -1,1 0,1 1,0 1,1 1,0 0,1 1,0 1,0 1,0 1,0 1,0 0,-1 1,0 1,0 1,-1 1,0 0,-1 1,0 0,-1 1,3 0,3 0,2 0,1 -1,0 -2,0 -3,0 -3,1 -1,1 -2,1 0,1 0,3 0,2 -1,1 0,1 0,2 0,1 0,1 0,1 0,1 0,1 -1,1 0,1 -1,1 -1,0 -1,0 -1,0 -1,0 -1,1 0,1 0,1 -1,0 0,1 0,1 -1,0 0,-1 -1,0 0,-1 -1,1 -1,0 0,1 -1,0 0,-1 -1,0 -1,0 0,-1 -1,0 0,-1 -1,0 -1,0 -1,0 -1,0 0,1 -1,0 -1,0 -1,0 -1,-1 -1,0 -1,0 -1,0 -1,0 0,1 -1,0 -1,1 -1,0 0,-1 -1,-1 0,1 -1,0 -1,0 0,1 -1,0 0,1 -1,0 0,1 0,1 -1,0 0,1 -1,0 0,1 0,1 0,1 0,1 0,1 -1,0 0,1 -1,0 -1,1 -1,0 -1,0 0,1 -1,0 -1,0 -1,0 0,1 -1,1 0,1 -1,0 -3,0 -1,0 -2,0 -1,-1 -2,-1 0,-1 -1,-1 -1,0 0,-2 0,-2 -1,-1 0,-1 -1,-1 -1,0 -1,0 -1,0 -1,2 -2,1 -1,0 -1,1 -1,0 -1,0 -1,1 -1,0 -1,0 -1,1 -1,1 -1,0 -1,1 -1,0 -1,1 -1,0 -1,0 -1,1 -1,0 -1,1 -1,0 -1,0 -1,1 -1,0 -1,1 -1,0 0,1 -1,0 -1,0 0,1 0,3 -1,1 -1,0 -1,-1 0,-1 0,-1 -1,-1 -1,-1 -1,0 -6,0 -1,0 0,-1 -1,-2 0,-2 -2,-1 -2,-1 -1,0 -1,0 -1,-1 -1,0 -1,-1 0,-1 1,-1 0,-1 0,-1 -1,-1 -1,-2 -1,-1 -1,-2 -1,-1 -1,0 -1,-1 0,-1 0,-1 0,-1 0,-1 -1,-1 0,-1 -1,0 0,-1 1,0 1,-1 0,-1 1,-2 -1,0 -1,-2 1,0 0,-1 1,0 1,0 0,-1 1,0 3,-1 1,0 1,0 0,1 1,0 1,0 0,-1 1,0 2,-2 0,-1 1,-1 0,-1 1,0 1,0 1,-1 2,0 0,-1 -1,-1 -2,-1 -1,0 0,-1 -1,-1 0,-1 0,-1 1,-1 0,-1 -1,0 0,-1 -1,0 0,-1 -1,-1 0,-1 -1,0 -1,-1 -1,0 0,-1 -1,-1 -1,0 -1,-1 0,-1 -1,0 0,-1 1,-1 0,-1 -1,-1 -1,-1 -1,-1 -1,-1 -1,0 -1,-2 -1,-1 1,-1 0,-1 -1,0 0,-1 0,-1 -1,-1 0,-1 -1,-1 0,-1 -1,0 -1,0 -1,-1 0,-1 0,-1 1,0 0,-1 1,0 1,0 0,-1 1,0 0,-1 0,-1 0,-1 -1,0 0,-1 -1,0 0,1 -1,1 -1,0 1,0 0,-1 -1,0 0,-1 1,0 -1,0 1,0 -1,0 1,-1 0,-1 1,0 0,-1 0,-1 -1,-1 0,-1 -1,-1 -1,0 0,-1 0,-1 -1,0 0,-1 0,-1 -1,0 -1,-1 0,-1 -1,0 0,-1 0,-1 1,0 0,-1 0,-1 -4,-2 -1,-1 0,-2 -1,-1"
         style="fill:#cdccd6;fill-opacity:1;stroke:#ececec;stroke-width:0.77033824;stroke-miterlimit:4;stroke-dasharray:none" />
    </g>
    <g
       style="fill:#cdccd6;fill-opacity:1;stroke:#ececec;stroke-width:0.77033824;stroke-linejoin:round;stroke-miterlimit:4;stroke-dasharray:none"
       id="medellin_colombia_osm_admin_13"
       transform="matrix(0.77887865,0,0,0.77887865,188.48051,110.13985)">
      <path
         inkscape:connector-curvature="0"
         id="path44"
         d="m 1131,369 0,-1 0,-1 0,-1 1,0 0,-1 3,0 0,1 0,1 1,0 0,1 0,1 0,1 -1,0 0,1 -1,1 -1,0 0,-1 1,0 -1,0 -1,0 0,-1 0,-1 -1,0"
         style="fill:#cdccd6;fill-opacity:1;stroke:#ececec;stroke-width:0.77033824;stroke-miterlimit:4;stroke-dasharray:none" />
    </g>
    <g
       style="fill:#cdccd6;fill-opacity:1;stroke:#ececec;stroke-width:0.77033824;stroke-linejoin:round;stroke-miterlimit:4;stroke-dasharray:none"
       id="medellin_colombia_osm_admin_14"
       transform="matrix(0.77887865,0,0,0.77887865,188.48051,110.13985)">
      <path
         inkscape:connector-curvature="0"
         id="path47"
         d="m 1125,373 1,0 0,-1 0,-1 1,0 0,-1 1,0 0,1 0,1 1,0 1,0 0,-1 1,0 1,1 1,0 1,0 -1,0 0,1 -1,0 1,0 -1,0 0,1 0,-1 -1,0 0,1 1,0 1,0 1,0 1,0 1,0 1,0 1,0 -1,0 -1,0 -1,1 1,0 1,0 0,1 1,0 1,0 -1,0 -1,0 -1,0 -1,-1 0,1 -1,0 -1,0 -1,0 -1,0 0,-1 -1,0 -1,-1 -1,0 -1,0 -1,0 0,-1 -1,0"
         style="fill:#cdccd6;fill-opacity:1;stroke:#ececec;stroke-width:0.77033824;stroke-miterlimit:4;stroke-dasharray:none" />
    </g>
    <g
       style="fill:#cdccd6;fill-opacity:1;stroke:#ececec;stroke-width:0.77033824;stroke-linejoin:round;stroke-miterlimit:4;stroke-dasharray:none"
       id="medellin_colombia_osm_admin_15"
       transform="matrix(0.77887865,0,0,0.77887865,188.48051,110.13985)">
      <path
         inkscape:connector-curvature="0"
         id="path50"
         d="m 1131,374 0,-1 1,0 0,1 0,-1 1,0 -1,0 1,0 0,-1 1,0 1,-1 0,-1 1,0 0,-1 1,0 0,1 1,0 0,1 1,0 0,-1 0,1 0,1 0,1 -1,0 0,1 -1,0 -1,0 -1,0 -1,0 -1,0 -1,0 -1,0"
         style="fill:#cdccd6;fill-opacity:1;stroke:#ececec;stroke-width:0.77033824;stroke-miterlimit:4;stroke-dasharray:none" />
    </g>
    <g
       style="fill:#cdccd6;fill-opacity:1;stroke:#ececec;stroke-width:0.77033824;stroke-linejoin:round;stroke-miterlimit:4;stroke-dasharray:none"
       id="medellin_colombia_osm_admin_16"
       transform="matrix(0.77887865,0,0,0.77887865,188.48051,110.13985)">
      <path
         inkscape:connector-curvature="0"
         id="path53"
         d="m 1112,362 0,-1 0,1 1,0 0,-1 1,0 0,-1 1,-2 1,0 1,0 0,-1 1,0 0,-1 1,0 1,1 0,1 0,1 1,0 0,1 -1,0 0,1 0,1 -1,0 -1,0 1,0 0,1 -1,0 -1,0 -1,1 1,0 -1,0 0,1 -1,0 0,-1 -1,0 0,-1 -1,0 0,-1 -1,0"
         style="fill:#cdccd6;fill-opacity:1;stroke:#ececec;stroke-width:0.77033824;stroke-miterlimit:4;stroke-dasharray:none" />
    </g>
    <g
       style="fill:#cdccd6;fill-opacity:1;stroke:#ececec;stroke-width:0.77033824;stroke-linejoin:round;stroke-miterlimit:4;stroke-dasharray:none"
       id="medellin_colombia_osm_admin_17"
       transform="matrix(0.77887865,0,0,0.77887865,188.48051,110.13985)">
      <path
         inkscape:connector-curvature="0"
         id="path56"
         d="m 938,360 0,-1 1,0 0,-3 0,-2 0,-1 0,-2 0,-1 1,-1 0,-1 0,-2 1,0 0,-1 -1,0 1,0 1,0 2,-3 1,-2 1,-1 1,0 1,0 1,-1 0,-2 1,-1 1,-1 2,-4 2,-2 3,-1 2,0 1,-1 2,-3 2,-1 2,1 1,1 1,3 1,3 1,2 3,1 0,1 2,1 0,1 2,4 0,2 3,3 1,2 2,3 2,1 1,1 0,1 -1,2 1,3 0,2 0,1 0,1 3,2 2,1 1,2 -1,1 0,1 1,4 2,2 0,2 1,1 1,3 1,1 1,1 0,2 0,2 1,1 -1,0 0,1 1,0 0,1 0,1 0,1 -1,0 0,1 0,1 1,1 0,1 0,1 0,1 0,1 1,0 0,1 1,0 1,0 1,0 1,0 1,0 1,0 2,0 1,0 1,0 1,0 1,0 2,1 1,1 1,0 0,1 1,1 0,1 1,1 1,1 1,1 1,0 1,0 1,1 2,4 1,1 0,1 -1,0 -2,0 -1,0 -1,0 0,1 -1,0 0,-1 -1,0 -1,0 -1,0 -1,1 -1,0 -1,0 -1,1 -1,1 0,2 -1,2 -1,0 1,1 1,0 0,1 0,-1 1,0 0,-1 0,1 1,0 0,1 1,1 0,1 -1,1 1,0 0,1 1,0 0,1 1,1 0,1 0,1 1,1 2,2 -1,1 -1,0 1,0 -1,1 -2,1 -1,0 0,1 -1,0 -2,0 -1,0 -1,1 -2,1 -1,0 -1,-1 -1,-2 0,-1 -1,-1 -1,0 -1,0 -1,1 -1,0 -1,0 -1,0 -1,0 -1,0 -1,0 -1,0 -1,-1 -1,0 -2,0 -1,0 0,1 -1,-1 -1,0 0,1 -1,0 -1,0 -1,-1 -1,0 -1,0 0,1 -1,0 -1,0 0,1 -1,0 -1,0 -1,0 -1,1 -2,0 0,1 -1,0 -1,1 -1,1 -1,1 -1,0 -1,1 0,-2 0,-3 0,-1 0,-1 1,-1 0,-2 0,-1 -2,-1 0,-1 -1,-1 0,-1 -1,0 0,-1 0,-1 0,-1 0,-1 -1,0 1,0 0,-1 0,-1 -1,-1 -1,-1 -1,0 0,-2 -1,0 0,-1 -1,0 0,-1 -1,-1 0,-1 -1,1 -1,0 0,-1 0,1 -1,0 0,-1 -1,0 -1,0 -1,-2 -1,-1 -1,-2 -1,-1 -1,-1 -1,-1 -1,-1 -1,0 -1,-1 0,-1 0,-2 2,-3 1,-1 1,-2 0,-3 -1,-1 0,-1 0,-1 0,-1 0,-1 -1,-1 0,-1 1,-1 0,-1 -1,0 0,-1 0,-1 -1,0 0,-1 0,-1 -1,-1 0,-1 0,-1 0,-1 1,-2 0,-1 0,-2 0,-1 -1,-1 0,-2 -1,-1 -1,-1 0,-1 -1,-1 0,-1 -1,0 -1,0 -1,0 -1,0 -1,0 0,-2"
         style="fill:#cdccd6;fill-opacity:1;stroke:#ececec;stroke-width:0.77033824;stroke-miterlimit:4;stroke-dasharray:none" />
    </g>
    <g
       style="fill:#cdccd6;fill-opacity:1;stroke:#ececec;stroke-width:0.77033824;stroke-linejoin:round;stroke-miterlimit:4;stroke-dasharray:none"
       id="medellin_colombia_osm_admin_18"
       transform="matrix(0.77887865,0,0,0.77887865,188.48051,110.13985)">
      <path
         inkscape:connector-curvature="0"
         id="path59"
         d="m 1106,359 1,-3 1,0 0,1 1,0 0,1 1,0 1,0 1,0 1,0 1,0 1,0 -1,2 0,1 -1,0 0,1 -1,0 0,-1 0,1 -1,0 -1,0 -1,0 -1,0 -1,-1 0,-1 -1,0 0,-1"
         style="fill:#cdccd6;fill-opacity:1;stroke:#ececec;stroke-width:0.77033824;stroke-miterlimit:4;stroke-dasharray:none" />
    </g>
    <g
       style="fill:#cdccd6;fill-opacity:1;stroke:#ececec;stroke-width:0.77033824;stroke-linejoin:round;stroke-miterlimit:4;stroke-dasharray:none"
       id="medellin_colombia_osm_admin_19"
       transform="matrix(0.77887865,0,0,0.77887865,188.48051,110.13985)">
      <path
         inkscape:connector-curvature="0"
         id="path62"
         d="m 1119,356 1,0 1,-1 0,1 0,-1 0,1 1,0 1,0 1,0 1,0 0,-1 0,1 -1,0 1,0 -1,1 -1,0 0,1 -1,0 0,1 1,0 0,1 -1,0 0,1 1,0 0,1 -1,0 -1,0 0,-1 0,-1 0,-1 -1,0 0,-1 0,-1 -1,-1"
         style="fill:#cdccd6;fill-opacity:1;stroke:#ececec;stroke-width:0.77033824;stroke-miterlimit:4;stroke-dasharray:none" />
    </g>
    <g
       style="fill:#cdccd6;fill-opacity:1;stroke:#ececec;stroke-width:0.77033824;stroke-linejoin:round;stroke-miterlimit:4;stroke-dasharray:none"
       id="medellin_colombia_osm_admin_20"
       transform="matrix(0.77887865,0,0,0.77887865,188.48051,110.13985)">
      <path
         inkscape:connector-curvature="0"
         id="path65"
         d="m 1102,346 2,-4 1,0 1,0 0,1 1,0 1,-1 1,0 0,1 1,0 -1,0 0,1 -1,1 0,1 -1,0 -1,1 -1,0 0,-1 -1,0 -1,0 -1,0"
         style="fill:#cdccd6;fill-opacity:1;stroke:#ececec;stroke-width:0.77033824;stroke-miterlimit:4;stroke-dasharray:none" />
    </g>
    <g
       style="fill:#cdccd6;fill-opacity:1;stroke:#ececec;stroke-width:0.77033824;stroke-linejoin:round;stroke-miterlimit:4;stroke-dasharray:none"
       id="medellin_colombia_osm_admin_21"
       transform="matrix(0.77887865,0,0,0.77887865,188.48051,110.13985)">
      <path
         inkscape:connector-curvature="0"
         id="path68"
         d="m 1128,370 0,-1 1,0 0,-1 1,0 0,-1 1,0 0,-1 1,0 -1,0 0,1 0,1 0,1 1,0 0,1 0,1 1,0 1,0 -1,0 0,1 1,0 -1,0 -1,0 -1,-1 -1,0 0,1 -1,0 -1,0 0,-1 0,-1"
         style="fill:#cdccd6;fill-opacity:1;stroke:#ececec;stroke-width:0.77033824;stroke-miterlimit:4;stroke-dasharray:none" />
    </g>
    <g
       style="fill:#cdccd6;fill-opacity:1;stroke:#ececec;stroke-width:0.77033824;stroke-linejoin:round;stroke-miterlimit:4;stroke-dasharray:none"
       id="medellin_colombia_osm_admin_23"
       transform="matrix(0.77887865,0,0,0.77887865,188.48051,110.13985)">
      <path
         inkscape:connector-curvature="0"
         id="path74"
         d="m 1117,366 1,0 1,1 1,0 1,0 1,0 1,0 0,-1 0,-1 0,-1 0,-1 0,-1 1,0 0,1 1,0 0,1 0,1 0,1 -1,0 0,1 0,1 1,0 0,1 1,0 0,-1 0,1 0,1 1,0 0,-1 1,0 0,-1 0,1 0,-1 0,1 1,0 0,-1 1,0 -1,0 0,1 -1,0 0,1 -1,0 0,1 -1,0 0,1 0,1 -1,0 -1,1 0,-1 -1,-1 0,-1 -1,0 -1,0 0,-1 0,-1 -1,0 -1,-1 -1,0 0,-1 -1,-1"
         style="fill:#cdccd6;fill-opacity:1;stroke:#ececec;stroke-width:0.77033824;stroke-miterlimit:4;stroke-dasharray:none" />
    </g>
    <g
       style="fill:#cdccd6;fill-opacity:1;stroke:#ececec;stroke-width:0.77033824;stroke-linejoin:round;stroke-miterlimit:4;stroke-dasharray:none"
       id="medellin_colombia_osm_admin_25"
       transform="matrix(0.77887865,0,0,0.77887865,188.48051,110.13985)">
      <path
         inkscape:connector-curvature="0"
         id="path80"
         d="m 1100,348 2,-2 1,0 1,0 1,0 0,1 1,0 1,-1 0,1 1,0 1,1 1,1 1,0 0,1 -1,0 -1,-1 0,1 -1,0 0,1 -1,0 0,1 0,1 0,-1 -4,-2 -3,-2"
         style="fill:#cdccd6;fill-opacity:1;stroke:#ececec;stroke-width:0.77033824;stroke-miterlimit:4;stroke-dasharray:none" />
    </g>
    <g
       style="fill:#cdccd6;fill-opacity:1;stroke:#ececec;stroke-width:0.77033824;stroke-linejoin:round;stroke-miterlimit:4;stroke-dasharray:none"
       id="medellin_colombia_osm_admin_26"
       transform="matrix(0.77887865,0,0,0.77887865,188.48051,110.13985)">
      <path
         inkscape:connector-curvature="0"
         id="path83"
         d="m 1100,348 2,-2 2,-4 1,0 1,0 0,1 1,0 1,-1 1,0 1,-1 1,0 1,0 1,1 1,0 1,0 0,-1 1,0 1,0 0,1 1,0 1,0 1,0 0,1 0,1 0,1 1,0 0,1 0,1 1,0 1,0 1,0 1,0 1,0 0,1 -1,0 -1,0 -1,0 0,1 1,1 0,1 1,0 0,1 0,1 0,1 1,0 0,1 1,0 -1,0 1,0 -1,0 -1,0 0,1 -1,0 1,0 -1,1 -1,0 0,1 -1,0 0,1 1,0 0,1 -1,0 0,1 1,0 0,1 1,0 0,1 1,0 0,1 0,1 1,0 0,1 1,1 1,0 1,1 0,-1 1,0 0,-1 1,0 1,0 0,-1 3,0 0,1 0,1 1,0 0,1 0,1 1,0 0,1 1,0 0,1 1,0 0,-1 0,1 0,1 0,1 -1,0 0,1 -1,0 -1,0 -1,1 1,0 1,0 0,1 1,0 1,0 -1,0 -1,0 -1,0 -1,-1 0,1 -1,0 -1,0 -1,0 -1,0 0,-1 -1,0 -1,-1 -1,0 -1,0 -1,0 0,-1 -1,0 -1,1 0,-1 -1,-1 0,-1 -1,0 -1,0 0,-1 0,-1 -1,0 -1,-1 -1,0 0,-1 -1,-1 0,-1 -1,0 -1,0 0,-1 -1,0 0,-1 -1,0 0,-1 -1,0 -1,0 -1,0 -1,0 -1,0 -1,-1 0,-1 -1,0 0,-1 1,-3 1,-1 -1,0 0,-1 0,-1 0,-1 -4,-2 -3,-2"
         style="fill:#cdccd6;fill-opacity:1;stroke:#ececec;stroke-width:0.77033824;stroke-miterlimit:4;stroke-dasharray:none" />
    </g>
    <g
       style="fill:#cdccd6;fill-opacity:1;stroke:#ececec;stroke-width:0.77033824;stroke-linejoin:round;stroke-miterlimit:4;stroke-dasharray:none"
       id="medellin_colombia_osm_admin_27"
       transform="matrix(0.77887865,0,0,0.77887865,188.48051,110.13985)">
      <path
         inkscape:connector-curvature="0"
         id="path86"
         d="m 1107,346 1,0 0,-1 1,-1 0,-1 1,0 1,0 -1,0 1,0 0,1 1,0 0,-1 0,1 1,0 1,0 0,1 1,0 0,-1 1,0 1,0 0,1 1,0 -1,0 0,1 1,0 -1,0 -1,0 0,1 -1,0 0,1 -1,0 -1,0 0,1 -1,0 -1,0 -1,0 -1,-1 -1,-1 -1,0 0,-1"
         style="fill:#cdccd6;fill-opacity:1;stroke:#ececec;stroke-width:0.77033824;stroke-miterlimit:4;stroke-dasharray:none" />
    </g>
    <g
       style="fill:#cdccd6;fill-opacity:1;stroke:#ececec;stroke-width:0.77033824;stroke-linejoin:round;stroke-miterlimit:4;stroke-dasharray:none"
       id="medellin_colombia_osm_admin_29"
       transform="matrix(0.77887865,0,0,0.77887865,188.48051,110.13985)">
      <path
         inkscape:connector-curvature="0"
         id="path92"
         d="m 1107,354 1,0 1,0 1,0 0,-1 1,0 1,0 0,-1 1,0 1,0 0,-1 0,1 -1,0 0,1 1,0 0,1 0,1 0,-1 0,1 0,1 0,1 1,0 1,0 0,1 -1,0 -1,0 -1,0 -1,0 -1,0 -1,0 -1,0 0,-1 -1,0 0,-1 -1,0 1,-1 -1,0 0,-1"
         style="fill:#cdccd6;fill-opacity:1;stroke:#ececec;stroke-width:0.77033824;stroke-miterlimit:4;stroke-dasharray:none" />
    </g>
    <g
       style="fill:#cdccd6;fill-opacity:1;stroke:#ececec;stroke-width:0.77033824;stroke-linejoin:round;stroke-miterlimit:4;stroke-dasharray:none"
       id="medellin_colombia_osm_admin_32"
       transform="matrix(0.77887865,0,0,0.77887865,188.48051,110.13985)">
      <path
         inkscape:connector-curvature="0"
         id="path101"
         d="m 1182,403 1,1 1,0 1,1 1,0 1,0 2,1 2,1 0,2 1,2 0,1 1,0 6,0 1,0 1,1 1,1 0,1 0,1 1,1 1,0 1,-1 0,-3 0,-1 1,0 1,0 0,-1 1,0 1,-1 1,0 1,-1 1,0 1,0 1,-1 1,0 1,-1 1,0 1,0 1,-1 1,0 1,-1 1,0 1,-1 1,-1 1,0 1,0 1,-1 1,0 1,0 1,-1 1,0 2,-1 1,-2 1,0 1,0 1,0 1,1 0,1 1,1 0,2 0,2 1,0 1,1 0,1 2,1 1,1 2,0 1,0 3,0 1,0 0,-1 1,-1 0,-1 1,0 1,0 1,0 0,-1 1,0 1,0 1,-1 1,0 0,-1 1,0 0,-1 0,-1 0,-1 0,-1 0,-1 1,0 0,-1 1,0 0,-1 0,-1 1,0 0,-1 1,0 0,-1 1,0 1,0 0,-1 1,1 0,1 1,0 1,-1 1,0 0,-1 1,0 1,0 1,0 1,0 1,1 1,0 1,0 1,0 0,-1 1,0 1,0 1,0 1,0 0,1 1,0 0,1 1,0 1,0 0,1 1,0 0,-1 1,0 1,-1 0,1 1,0 0,1 1,0 0,-1 0,-1 1,0 0,-1 0,-1 1,-1 1,0 1,0 1,0 1,0 1,-1 0,-1 1,-1 0,-1 0,-1 0,-1 0,-1 0,-1 0,-2 0,-1 1,-1 0,-2 0,-3 0,-1 2,-1 1,-1 3,-1 3,0 2,0 1,0 0,1 1,0 0,1 1,0 1,0 1,0 0,1 1,1 1,1 0,1 1,0 1,0 1,0 0,-1 1,0 1,0 1,0 1,0 1,0 1,0 0,-1 1,0 1,-1 1,0 1,0 0,1 1,0 0,1 1,0 1,0 0,-1 1,0 1,0 0,1 1,0 0,1 0,1 0,1 -1,1 0,1 0,1 0,1 1,1 1,1 1,-1 1,0 1,0 1,0 0,-1 1,-1 1,0 0,-1 1,0 1,0 0,1 1,0 1,0 1,0 0,1 1,0 0,1 1,-1 1,0 1,1 1,0 2,0 -1,0 0,1 -1,1 0,1 0,1 -1,1 0,2 0,1 0,1 0,1 1,1 0,1 0,1 0,1 2,2 0,1 1,2 0,1 0,1 -1,1 0,1 0,1 -1,1 -1,0 -1,0 -1,1 -1,0 -1,0 -1,0 -1,0 -1,0 -1,0 -3,0 -1,0 -1,0 -1,1 -1,0 -1,0 -1,1 -1,1 -1,0 0,1 -2,2 -1,1 0,1 -1,1 -1,0 -1,1 -1,1 0,1 -1,0 -1,1 -2,1 -1,0 -1,1 -1,1 -1,1 0,1 -1,1 -1,1 0,1 0,1 -1,0 0,2 -1,1 0,1 -1,2 1,1 1,0 1,1 0,1 1,0 1,1 0,1 1,0 0,1 1,1 0,1 1,1 2,6 1,1 0,1 1,1 0,2 0,1 2,4 0,1 0,1 1,1 0,1 1,1 -2,1 0,1 0,1 -1,0 0,1 0,1 0,1 -1,1 0,1 0,1 0,1 0,1 0,1 -1,1 0,1 0,1 0,1 0,1 0,1 0,1 0,1 0,1 0,1 0,1 1,0 0,1 0,1 -1,0 0,1 -1,1 -1,1 0,1 0,1 -1,1 0,1 0,1 0,1 -1,1 0,1 -1,1 0,1 -1,1 0,2 -1,0 -2,1 -2,-1 -1,-1 -7,-4 -4,-2 -4,-2 -2,0 -2,0 0,1 0,1 -1,0 -1,1 0,1 -2,2 -1,1 -1,1 0,1 0,1 -1,1 0,1 0,1 0,1 0,2 0,1 0,1 1,1 0,1 1,1 0,1 1,1 1,1 1,2 1,2 1,1 0,1 0,1 1,1 0,1 0,1 0,2 0,1 0,1 0,1 0,1 0,1 0,1 -1,2 -1,2 0,3 0,1 -1,4 0,1 0,1 -1,0 -1,0 -1,0 -1,0 -1,0 -1,0 -1,0 -1,0 -1,0 -1,0 -1,0 -1,0 -1,0 -1,0 -1,0 0,-1 -1,0 -1,0 -1,0 -1,0 0,1 -1,0 -1,0 0,1 -1,1 0,1 -1,1 -2,2 -2,0 -1,0 -2,-1 -2,-1 -1,0 -1,-1 0,-1 -1,0 -1,-1 -1,0 -1,0 -2,0 -1,0 -1,-1 -1,-1 0,-1 -1,0 -1,0 -1,0 -1,0 -1,0 -1,1 -1,3 -1,1 0,1 -1,0 -1,0 -1,0 -1,0 -1,-1 -1,0 -1,-1 0,-1 -1,-1 -1,0 -2,-1 -1,-1 -1,0 -1,0 0,-1 -2,0 0,-1 0,-1 0,-1 1,-1 0,-2 0,-1 -1,-2 0,-1 -1,-1 0,-1 -2,-3 0,-1 0,-1 -1,-1 0,-1 -1,-1 -1,-1 -2,-1 -1,-1 -1,-1 -1,0 0,-1 0,-1 0,-2 0,-1 -1,-2 -1,0 -1,0 0,-1 -1,0 0,-1 -1,0 0,-1 -1,0 -1,0 -1,0 -1,0 -1,-1 -1,0 -1,0 0,-1 0,-1 0,-1 1,-1 1,0 1,0 0,-1 1,0 0,-1 1,0 0,-1 1,0 0,-1 1,0 1,0 1,-1 -2,-1 0,-1 -2,-2 -1,-2 -2,-2 -2,-1 -2,0 -2,-1 -2,-2 -1,-1 -1,2 -1,-1 1,-1 0,-5 0,-3 0,-2 0,-2 -1,-3 0,-2 -1,-2 0,-1 0,-2 0,-2 1,-2 0,-2 0,-2 0,-5 0,-2 0,-4 1,-9 0,-1 0,-1 -2,-1 -2,-1 -2,0 -3,-1 -2,-2 0,-1 0,-1 0,-2 0,-1 -1,-2 1,-2 1,-1 1,-1 0,-2 -2,-2 -1,-2 0,-3 1,-2 1,-2 0,-1 0,-2 -1,0 0,-1 0,-1 -1,0 0,-1 0,-1 0,-2 0,-1"
         style="fill:#cdccd6;fill-opacity:1;stroke:#ececec;stroke-width:0.77033824;stroke-miterlimit:4;stroke-dasharray:none" />
    </g>
    <g
       style="fill:#cdccd6;fill-opacity:1;stroke:#ececec;stroke-width:0.77033824;stroke-linejoin:round;stroke-miterlimit:4;stroke-dasharray:none"
       id="medellin_colombia_osm_admin_33"
       transform="matrix(0.77887865,0,0,0.77887865,188.48051,110.13985)">
      <path
         inkscape:connector-curvature="0"
         id="path104"
         d="m 1113,353 0,-1 1,0 0,-1 1,0 1,0 1,0 1,0 0,-1 1,0 0,1 1,0 0,-1 1,0 0,1 0,1 0,1 1,0 -1,0 0,1 0,1 1,0 1,0 0,1 -1,0 -1,0 0,-1 0,1 0,-1 -1,1 -1,0 -1,0 0,1 -1,0 0,1 -1,0 0,-1 -1,0 -1,0 0,-1 0,-1 0,-1 0,1 0,-1 0,-1 -1,0"
         style="fill:#cdccd6;fill-opacity:1;stroke:#ececec;stroke-width:0.77033824;stroke-miterlimit:4;stroke-dasharray:none" />
    </g>
    <g
       style="fill:#cdccd6;fill-opacity:1;stroke:#ececec;stroke-width:0.77033824;stroke-linejoin:round;stroke-miterlimit:4;stroke-dasharray:none"
       id="medellin_colombia_osm_admin_34"
       transform="matrix(0.77887865,0,0,0.77887865,188.48051,110.13985)">
      <path
         inkscape:connector-curvature="0"
         id="path107"
         d="m 1107,353 0,-1 0,-1 1,0 0,-1 1,0 0,-1 1,1 1,0 0,-1 1,0 1,0 0,-1 1,0 1,0 0,-1 1,0 0,-1 1,0 1,0 1,0 1,0 1,0 -1,0 1,0 0,1 1,0 -1,0 0,1 -1,0 0,1 0,1 1,0 -1,0 0,1 -1,0 0,-1 -1,0 0,1 -1,0 -1,0 -1,0 -1,0 0,1 -1,0 -1,0 0,1 -1,0 -1,0 0,1 -1,0 -1,0 -1,0 0,-1"
         style="fill:#cdccd6;fill-opacity:1;stroke:#ececec;stroke-width:0.77033824;stroke-miterlimit:4;stroke-dasharray:none" />
    </g>
    <g
       id="g4462"
       transform="translate(-22.983326,0)"
       style="stroke:#ececec;stroke-width:0.60000002;stroke-miterlimit:4;stroke-dasharray:none">
      <g
         transform="matrix(0.77887865,0,0,0.77887865,211.46383,110.13985)"
         id="medellin_colombia_osm_admin_22"
         style="fill:#a3a2b3;fill-opacity:1;stroke:#ececec;stroke-width:0.77033824;stroke-linejoin:round;stroke-miterlimit:4;stroke-dasharray:none">
        <path
           style="fill:#a3a2b3;fill-opacity:1;stroke:#ececec;stroke-width:0.77033824;stroke-miterlimit:4;stroke-dasharray:none"
           d="m 928,255 0,-1 1,0 0,-1 0,-1 0,-1 1,0 0,-1 1,0 1,0 1,-1 1,0 0,-1 -1,0 0,-1 -1,0 1,-2 0,-1 -1,0 1,0 0,-1 0,-1 0,-1 -1,0 0,-1 0,-1 0,-1 0,-1 -1,-1 0,-1 -1,-1 1,-2 -1,0 1,-1 0,-1 0,-1 1,-1 1,-1 0,-1 1,-1 0,-1 0,-1 1,0 0,-1 1,0 1,0 1,0 1,0 1,0 1,0 0,-1 1,0 1,0 1,0 1,0 1,1 1,0 1,0 1,0 1,-1 1,0 0,1 1,0 0,1 1,1 1,0 1,0 1,0 1,1 0,-1 1,0 1,-1 1,0 1,0 1,0 1,-1 0,1 1,1 0,1 1,0 0,-1 1,0 1,0 1,0 1,0 1,0 1,0 1,0 1,0 0,-1 1,0 0,-1 1,0 1,0 1,0 1,-1 2,0 1,-1 2,-1 1,-1 1,-1 0,1 0,2 0,1 1,1 0,1 0,1 0,1 1,1 0,2 0,1 0,1 0,1 0,1 1,3 1,0 1,0 1,1 1,0 1,1 1,3 1,0 2,3 0,1 1,2 0,2 0,2 0,1 0,1 0,1 0,1 0,3 0,1 0,2 0,1 1,0 1,2 1,1 1,1 1,1 1,0 1,0 0,1 1,0 1,1 1,1 1,1 1,1 0,1 1,1 1,1 1,1 0,1 1,0 1,0 1,1 1,0 1,1 1,0 0,1 1,0 0,1 1,1 1,0 0,1 1,0 1,1 1,0 1,0 1,0 0,1 1,0 1,1 1,1 0,-1 1,0 0,-1 1,0 1,0 1,1 1,0 1,0 1,0 1,1 1,0 1,0 1,0 0,-1 1,0 1,0 1,-1 1,0 0,1 1,0 0,1 1,0 1,0 1,1 1,0 1,0 0,1 1,1 1,1 0,1 1,0 0,-1 1,0 1,0 1,0 0,1 1,0 1,1 1,0 1,0 1,0 1,0 1,0 0,-1 2,0 1,0 2,-1 1,0 2,0 0,-1 1,0 1,1 1,0 1,0 1,0 1,0 1,0 1,-1 1,0 1,0 0,-1 1,0 1,0 1,0 1,0 1,0 0,1 0,-1 0,1 1,-1 1,0 1,0 1,0 0,-1 1,0 1,0 0,-1 1,0 1,0 1,1 1,0 1,0 1,0 1,0 1,0 1,0 1,0 1,0 1,1 -1,1 1,0 0,1 1,0 0,1 1,0 1,1 1,0 1,0 1,0 0,1 1,0 1,0 1,0 -1,1 1,0 1,0 1,0 1,1 1,0 0,1 1,0 1,0 1,1 1,0 0,1 1,0 0,1 1,0 1,0 -1,0 0,1 1,0 0,1 1,1 1,0 0,-1 1,0 1,-1 1,0 1,0 0,1 1,0 1,1 0,1 1,0 1,0 0,1 1,0 0,1 1,0 -1,0 0,1 0,1 -1,0 0,1 -1,1 1,0 1,1 0,1 1,1 0,1 0,1 1,0 1,-1 1,0 1,0 1,-1 1,1 0,-1 0,-1 0,-2 0,-1 1,-2 1,-2 1,-2 1,-1 2,-2 1,0 1,0 1,0 3,1 2,1 2,0 1,0 1,1 0,2 1,1 4,2 0,1 0,1 -1,0 0,1 0,1 1,0 0,1 1,1 1,0 0,1 0,1 1,0 0,1 0,1 1,0 1,1 0,1 1,1 0,1 0,1 -1,0 0,1 -1,1 1,0 -1,0 1,0 -1,0 0,1 1,0 0,1 -1,0 1,0 1,-1 0,-1 1,0 0,1 1,0 0,1 0,1 0,1 -1,0 0,1 -1,0 -1,0 0,1 -1,0 0,1 0,1 1,1 1,0 1,0 0,1 1,1 0,1 1,1 0,1 0,1 1,0 0,1 -1,1 1,1 1,2 1,0 1,1 1,1 1,1 1,1 0,1 -1,1 0,1 1,0 0,1 1,1 1,0 1,1 0,1 1,0 1,1 1,0 0,1 1,1 0,1 1,0 0,1 1,0 0,1 -1,1 0,1 0,1 1,1 0,1 1,0 2,1 1,1 0,1 -2,0 -1,1 -1,0 -1,0 0,1 -1,1 0,1 -2,2 -1,0 0,1 -1,0 -1,0 0,-1 -1,0 -1,0 -3,1 -1,0 0,1 -1,0 -1,0 0,1 -1,0 1,2 1,0 -1,2 0,1 -1,1 -1,0 0,1 1,0 0,1 1,1 0,1 0,1 0,1 0,1 1,1 1,0 1,1 1,2 1,1 1,2 1,1 0,1 0,1 -1,1 0,1 0,1 0,2 0,1 0,1 1,0 0,1 0,1 1,0 -2,0 -2,1 -1,0 -1,1 0,1 -2,0 0,1 -1,0 -1,0 -2,1 -1,0 -1,0 -1,0 0,1 -1,0 0,1 -1,1 -1,1 0,1 -1,0 -1,0 0,-1 -1,0 -2,0 -1,0 -4,-2 -1,-1 -2,-1 -1,0 -1,-1 -2,0 -1,-1 -1,0 -1,0 -2,0 -1,0 -2,0 -1,0 -2,1 -1,1 0,1 -1,1 0,2 -1,2 0,1 -2,3 0,2 -1,1 -1,2 0,2 -1,1 -2,5 -1,2 -1,1 -1,0 -2,-1 -1,0 -2,-1 -1,-1 -1,-1 -3,-1 -2,0 -4,-1 -1,0 -1,0 -3,0 -1,0 -1,0 -1,0 -1,0 0,-1 -1,0 -1,0 0,1 -1,0 0,-1 0,1 -1,0 0,-1 -1,0 -1,0 0,-1 -1,0 -1,-1 -1,-1 0,1 0,-1 -1,0 -1,0 -1,0 -1,0 0,-1 -1,0 -1,0 0,-1 -1,-1 -1,0 -3,-2 -1,-1 0,-1 0,-1 -1,-1 -2,-1 0,-1 1,-4 0,-1 1,-1 -2,-1 -2,0 -2,-1 -1,0 -1,2 -2,1 0,1 -1,0 -4,0 0,-1 -2,-1 -1,-1 0,-1 -1,0 0,1 0,-1 -1,0 0,-1 -1,0 -1,0 0,-1 -1,0 -1,0 0,1 -1,0 -1,0 0,-1 -1,0 0,1 -1,0 -1,-1 -1,-1 -1,0 0,1 -1,0 -1,0 -1,0 -1,0 -1,1 -1,0 -1,0 -1,0 -3,1 -1,1 -1,0 -1,0 -2,-1 0,1 -1,0 -1,0 0,-1 -1,1 -1,1 0,1 -1,0 -2,0 -1,0 -1,0 0,1 -1,0 0,-1 -1,0 -1,0 -1,0 -1,1 -1,0 -1,0 -1,1 -1,1 0,2 -1,2 -1,0 1,1 1,0 0,1 0,-1 1,0 0,-1 0,1 1,0 0,1 1,1 0,1 -1,1 1,0 0,1 1,0 0,1 1,1 0,1 0,1 1,1 2,2 -1,1 -1,0 1,0 -1,1 -2,1 -1,0 0,1 -1,0 -2,0 -1,0 -1,1 -2,1 -1,0 -1,-1 -1,-2 0,-1 -1,-1 -1,0 -1,0 -1,1 -1,0 -1,0 -1,0 -1,0 -1,0 -1,0 -1,0 -1,-1 -1,0 -2,0 -1,0 0,1 -1,-1 -1,0 0,1 -1,0 -1,0 -1,-1 -1,0 -1,0 0,1 -1,0 -1,0 0,1 -1,0 -1,0 -1,0 -1,1 -2,0 0,1 -1,0 -1,1 -1,1 -1,1 -1,0 -1,1 0,-2 0,-3 0,-1 0,-1 1,-1 0,-2 0,-1 -2,-1 0,-1 -1,-1 0,-1 -1,0 0,-1 0,-1 0,-1 0,-1 -1,0 1,0 0,-1 0,-1 -1,-1 -1,-1 -1,0 0,-2 -1,0 0,-1 -1,0 0,-1 -1,-1 0,-1 -1,1 -1,0 0,-1 0,1 -1,0 0,-1 -1,0 -1,0 -1,-2 -1,-1 -1,-2 -1,-1 -1,-1 -1,-1 -1,-1 -1,0 -1,-1 0,-1 0,-2 2,-3 1,-1 1,-2 0,-3 -1,-1 0,-1 0,-1 0,-1 0,-1 -1,-1 0,-1 1,-1 0,-1 -1,0 0,-1 0,-1 -1,0 0,-1 0,-1 -1,-1 0,-1 0,-1 0,-1 1,-2 0,-1 0,-2 0,-1 -1,-1 0,-2 -1,-1 -1,-1 0,-1 -1,-1 0,-1 -1,0 -1,0 -1,0 -1,0 -1,0 0,-2 0,-1 1,0 0,-3 0,-2 0,-1 0,-2 0,-1 1,-1 0,-1 0,-2 1,0 0,-1 -1,0 -2,-1 0,-1 0,-2 0,-1 0,-1 0,-1 0,-1 0,-1 0,-1 0,-1 0,-1 1,0 0,-1 0,-1 0,-1 0,-1 0,-1 1,-1 0,-1 0,-2 0,-1 0,-1 0,-2 1,0 1,-1 0,-1 0,-1 -1,-1 -1,-1 0,-2 0,-1 0,-1 0,-1 0,-1 0,-1 -1,0 1,0 0,-1 1,0 -1,-1 1,1 0,-1 0,-1 -1,-2 0,-1 0,-1 0,-1 -1,0 0,-1 1,0 0,-1 1,-1 -1,-1 0,-1 0,-1 -1,0 0,-1 0,-1 0,-1 -1,0 1,0 -1,0 0,-1 -1,-1 1,-1 0,-1 0,-1 0,-1 -1,-1 0,-1 -1,0 0,-1 -1,-1 -1,-1 0,-1 -1,0 0,-1 -1,0 0,-1 -1,0 -1,-1 -1,0 0,-1 0,-1 0,-1 0,-1 0,-1 0,-1 0,-1 -1,0 1,-1 0,-1 0,-1 1,-1 1,-1 1,-1 0,-1 -1,0 -1,-1 0,-1 0,-1 -1,0 0,-1 -1,-1 0,-1 0,-1"
           id="path71"
           inkscape:connector-curvature="0" />
      </g>
      <g
         transform="matrix(0.77887865,0,0,0.77887865,211.46383,110.13985)"
         id="medellin_colombia_osm_admin_24"
         style="fill:#a3a2b3;fill-opacity:1;stroke:#ececec;stroke-width:0.77033824;stroke-linejoin:round;stroke-miterlimit:4;stroke-dasharray:none">
        <path
           style="fill:#a3a2b3;fill-opacity:1;stroke:#ececec;stroke-width:0.77033824;stroke-miterlimit:4;stroke-dasharray:none"
           d="m 986,355 1,-2 0,-1 2,-5 2,-1 2,0 2,-3 1,0 1,0 2,1 2,-1 1,0 1,0 0,1 1,0 1,1 0,1 1,0 0,1 1,0 0,2 1,0 0,1 1,0 1,0 1,1 1,0 1,0 1,0 1,-1 1,0 1,1 1,0 1,0 1,0 1,0 1,-1 0,1 -1,0 0,1 1,0 -1,1 1,0 -1,0 0,1 -1,0 -1,-1 -1,0 0,1 -1,0 0,1 0,1 0,1 -1,0 0,1 0,1 0,1 -1,1 1,0 2,0 1,1 0,-1 0,1 1,0 0,-1 1,0 0,-1 1,0 1,0 2,0 1,0 1,0 1,0 1,-1 1,0 1,1 1,0 1,1 0,1 1,0 -1,1 1,1 1,0 0,-1 1,-1 0,-1 1,0 1,0 0,1 1,0 1,0 -1,0 -1,0 0,1 -1,0 -1,0 0,1 0,1 0,1 1,0 -1,0 0,1 0,1 0,-1 -1,0 0,1 0,1 -1,0 -1,1 -1,0 1,0 1,0 1,0 1,0 1,0 1,0 1,1 1,0 0,1 -1,-1 0,1 0,1 1,0 0,1 0,-1 1,0 -1,1 1,1 0,1 1,1 -1,1 1,1 1,0 1,1 1,0 0,-1 1,0 0,-1 1,1 1,0 0,1 0,1 -1,0 0,1 -1,0 -1,1 1,0 0,1 -1,0 -1,0 0,1 0,-1 -1,0 -1,0 -1,1 -1,0 0,1 1,0 0,1 0,-1 1,1 1,0 1,0 1,1 1,0 0,1 0,1 1,0 1,1 1,0 0,1 0,1 0,1 1,0 -1,0 -1,1 -1,-1 0,1 0,1 -1,1 0,1 1,0 0,1 1,1 1,0 1,0 0,1 1,0 0,1 -1,0 -1,0 -1,0 -1,1 1,0 1,0 0,1 1,0 1,1 1,-1 0,1 1,0 0,-1 1,1 1,0 2,1 1,0 -1,0 -1,0 0,1 -1,0 0,1 1,0 -1,0 0,1 1,0 0,1 1,0 1,-1 0,1 0,1 1,0 0,1 -1,0 0,-1 -1,0 -1,0 0,-1 -1,0 -1,0 0,1 -1,0 -1,0 0,-1 -1,0 0,1 -1,0 -1,-1 -1,-1 -1,0 0,1 -1,0 -1,0 -1,0 -1,0 -1,1 -1,0 -1,0 -1,0 -3,1 -1,1 -1,0 -1,0 -2,-1 0,1 -1,0 -1,0 0,-1 -1,1 -1,1 0,1 0,-1 -1,-1 -2,-4 -1,-1 -1,0 -1,0 -1,-1 -1,-1 -1,-1 0,-1 -1,-1 0,-1 -1,0 -1,-1 -2,-1 -1,0 -1,0 -1,0 -1,0 -2,0 -1,0 -1,0 -1,0 -1,0 -1,0 -1,0 0,-1 -1,0 0,-1 0,-1 0,-1 0,-1 -1,-1 0,-1 0,-1 1,0 0,-1 0,-1 0,-1 -1,0 0,-1 1,0 -1,-1 0,-2 0,-2 -1,-1 -1,-1 -1,-3 -1,-1 0,-2 -2,-2 -1,-4 0,-1 1,-1 -1,-2 -2,-1 -3,-2 0,-1 0,-1 0,-2 -1,-3"
           id="path77"
           inkscape:connector-curvature="0" />
      </g>
      <g
         transform="matrix(0.77887865,0,0,0.77887865,211.46383,110.13985)"
         id="medellin_colombia_osm_admin_28"
         style="fill:#a3a2b3;fill-opacity:1;stroke:#ececec;stroke-width:0.77033824;stroke-linejoin:round;stroke-miterlimit:4;stroke-dasharray:none">
        <path
           style="fill:#a3a2b3;fill-opacity:1;stroke:#ececec;stroke-width:0.77033824;stroke-miterlimit:4;stroke-dasharray:none"
           d="m 928,255 0,-1 1,0 0,-1 0,-1 0,-1 1,0 0,-1 1,0 1,0 1,-1 1,0 0,-1 -1,0 0,-1 -1,0 1,-2 0,-1 -1,0 1,0 0,-1 0,-1 0,-1 -1,0 0,-1 0,-1 0,-1 0,-1 -1,-1 0,-1 -1,-1 1,-2 -1,0 1,-1 0,-1 0,-1 1,-1 1,-1 0,-1 1,-1 0,-1 0,-1 1,0 0,-1 1,0 1,0 1,0 1,0 1,0 1,0 0,-1 1,0 1,0 1,0 1,0 1,1 1,0 1,0 1,0 1,-1 1,0 0,1 1,0 0,1 1,1 1,0 1,0 1,0 1,1 0,-1 1,0 1,-1 1,0 1,0 1,0 1,-1 0,1 1,1 0,1 1,0 0,-1 1,0 1,0 1,0 1,0 1,0 1,0 1,0 1,0 0,-1 1,0 0,-1 1,0 1,0 1,0 1,-1 2,0 1,-1 2,-1 1,-1 1,-1 0,1 0,2 0,1 1,1 0,1 0,1 0,1 1,1 0,2 0,1 0,1 0,1 0,1 1,3 1,0 1,0 1,1 1,0 1,1 1,3 1,0 2,3 0,1 1,2 0,2 0,2 0,1 0,1 0,1 0,1 0,3 0,1 0,2 0,1 1,0 1,2 -1,0 0,1 -2,2 0,2 0,2 -1,0 -2,1 -1,1 -1,1 -2,1 -2,2 -3,-1 -2,2 -2,1 0,1 0,2 1,3 1,3 -1,2 -1,2 -1,0 -1,2 1,10 0,1 0,4 -1,3 -1,1 -1,1 -4,4 -1,1 -2,2 -5,2 -2,1 -2,3 -1,1 -2,0 -3,1 -2,2 -2,4 -1,1 -1,1 0,2 -1,1 -1,0 -1,0 -1,1 -1,2 -2,3 -1,0 -1,0 -2,-1 0,-1 0,-2 0,-1 0,-1 0,-1 0,-1 0,-1 0,-1 0,-1 0,-1 1,0 0,-1 0,-1 0,-1 0,-1 0,-1 1,-1 0,-1 0,-2 0,-1 0,-1 0,-2 1,0 1,-1 0,-1 0,-1 -1,-1 -1,-1 0,-2 0,-1 0,-1 0,-1 0,-1 0,-1 -1,0 1,0 0,-1 1,0 -1,-1 1,1 0,-1 0,-1 -1,-2 0,-1 0,-1 0,-1 -1,0 0,-1 1,0 0,-1 1,-1 -1,-1 0,-1 0,-1 -1,0 0,-1 0,-1 0,-1 -1,0 1,0 -1,0 0,-1 -1,-1 1,-1 0,-1 0,-1 0,-1 -1,-1 0,-1 -1,0 0,-1 -1,-1 -1,-1 0,-1 -1,0 0,-1 -1,0 0,-1 -1,0 -1,-1 -1,0 0,-1 0,-1 0,-1 0,-1 0,-1 0,-1 0,-1 -1,0 1,-1 0,-1 0,-1 1,-1 1,-1 1,-1 0,-1 -1,0 -1,-1 0,-1 0,-1 -1,0 0,-1 -1,-1 0,-1 0,-1"
           id="path89"
           inkscape:connector-curvature="0" />
      </g>
      <g
         transform="matrix(0.77887865,0,0,0.77887865,211.46383,110.13985)"
         id="medellin_colombia_osm_admin_30"
         style="fill:#a3a2b3;fill-opacity:1;stroke:#ececec;stroke-width:0.77033824;stroke-linejoin:round;stroke-miterlimit:4;stroke-dasharray:none">
        <path
           style="fill:#a3a2b3;fill-opacity:1;stroke:#ececec;stroke-width:0.77033824;stroke-miterlimit:4;stroke-dasharray:none"
           d="m 965,322 5,-2 2,-2 1,-1 4,-4 1,-1 1,-1 1,-3 0,-4 0,-1 -1,-10 1,-2 1,0 1,-2 1,-2 -1,-3 -1,-3 0,-2 0,-1 2,-1 2,-2 3,1 2,-2 2,-1 1,-1 1,-1 2,-1 1,0 0,-2 0,-2 2,-2 0,-1 1,0 1,1 1,1 1,1 1,0 1,0 0,1 1,0 1,1 1,1 1,1 1,1 0,1 1,1 1,1 1,1 0,1 1,0 1,0 1,1 1,0 1,1 1,0 0,1 1,0 0,1 1,1 1,0 0,1 1,0 1,1 1,0 1,0 1,0 0,1 1,0 1,1 1,1 0,-1 1,0 0,-1 1,0 1,0 1,1 1,0 1,0 1,0 1,1 1,0 1,0 1,0 0,-1 1,0 1,0 1,-1 1,0 0,1 1,0 0,1 1,0 1,0 1,1 1,0 1,0 0,1 1,1 1,1 0,1 1,0 0,-1 1,0 1,0 1,0 0,1 1,0 1,1 1,0 1,0 1,0 1,0 1,0 0,-1 2,0 1,0 2,-1 1,0 2,0 1,0 0,1 0,1 1,0 -1,0 -2,0 1,1 0,-1 1,0 0,1 0,1 1,0 0,1 1,0 0,2 -1,0 1,0 -1,0 0,1 -1,0 -1,0 0,1 0,1 0,1 -1,0 0,1 -1,-1 0,1 -1,0 0,1 -1,0 0,1 0,1 -1,-1 0,1 0,-1 -1,1 -1,0 0,1 -1,0 -1,0 -1,0 -1,0 0,1 -1,0 -1,1 1,0 -1,0 1,0 1,-1 -1,1 0,1 1,0 -1,0 0,1 -1,0 -1,0 0,1 1,0 0,1 1,0 0,1 1,0 0,1 0,1 0,1 1,0 -2,0 0,1 -1,0 0,1 -1,1 0,-1 -1,0 0,-1 0,1 0,-1 -1,0 0,-1 -1,1 -1,1 -1,-1 -1,1 -1,0 -1,-1 0,1 1,0 -1,1 -1,0 -1,0 -1,0 -1,0 0,1 -1,0 -1,0 -1,0 -1,1 -1,0 -1,0 -1,0 0,1 -1,0 -1,-1 0,-1 -2,1 1,2 -1,0 -1,0 0,-1 0,-1 0,-1 0,-1 0,-1 -1,0 -1,0 0,1 -1,0 0,-1 -1,1 1,0 0,1 0,1 0,1 0,1 1,0 0,1 1,1 1,0 -1,1 1,0 0,1 -1,0 -1,0 1,0 0,1 -1,0 1,0 1,0 0,1 0,1 -1,0 0,-1 -1,0 0,1 -1,0 0,1 1,0 1,0 0,1 1,0 1,1 0,1 1,0 0,1 0,1 1,0 0,1 0,1 1,0 0,1 0,1 -1,1 0,-1 0,1 -1,0 0,-1 0,1 -1,0 -1,0 0,-1 -1,0 -1,0 0,1 -1,0 0,1 -1,-1 -1,0 0,-1 -1,1 -1,-1 0,-1 0,1 -1,1 0,1 1,0 -1,1 0,1 -1,0 0,1 -1,0 0,-1 -1,0 0,1 0,1 1,0 0,1 1,0 -1,0 0,-1 -1,0 0,1 1,0 0,1 -1,0 1,1 -1,0 0,1 -1,0 -1,1 -1,0 -1,0 -1,0 -1,0 -1,-1 -1,0 -1,1 -1,0 -1,0 -1,0 -1,-1 -1,0 -1,0 0,-1 -1,0 0,-2 -1,0 0,-1 -1,0 0,-1 -1,-1 -1,0 0,-1 -1,0 -1,0 -2,1 -2,-1 -1,0 -1,0 -2,3 -2,0 -2,1 -2,5 -1,-1 -2,-1 -2,-3 -1,-2 -3,-3 0,-2 -2,-4 0,-1 -2,-1 0,-1 -3,-1 -1,-2 -1,-3 -1,-3 -1,-1 -2,-1"
           id="path95"
           inkscape:connector-curvature="0" />
      </g>
      <g
         transform="matrix(0.77887865,0,0,0.77887865,211.46383,110.13985)"
         id="medellin_colombia_osm_admin_31"
         style="fill:#a3a2b3;fill-opacity:1;stroke:#ececec;stroke-width:0.77033824;stroke-linejoin:round;stroke-miterlimit:4;stroke-dasharray:none">
        <path
           style="fill:#a3a2b3;fill-opacity:1;stroke:#ececec;stroke-width:0.77033824;stroke-miterlimit:4;stroke-dasharray:none"
           d="m 1104,435 1,-1 1,0 0,-1 0,-1 1,0 0,-1 0,-1 -1,0 0,-1 0,-1 0,-1 -1,-1 -1,0 1,-1 0,-1 0,1 1,0 1,0 1,0 1,0 -1,-2 1,0 0,-1 0,-1 -1,0 0,-1 0,-1 -1,0 0,-1 0,-1 0,-1 1,0 0,-1 1,-1 0,-1 0,-1 0,-1 1,0 0,-1 1,-1 0,-1 0,-1 1,-1 -1,-1 2,-1 0,-1 1,0 0,-1 0,-1 0,-1 0,-1 0,-1 1,0 0,-1 -1,0 0,-1 1,-1 -1,-1 1,0 0,-1 0,-1 -1,0 0,1 -2,0 0,-1 0,-1 -1,0 0,-1 -1,0 0,-1 -1,0 0,-1 0,-1 1,0 -1,-1 -1,0 -1,-1 0,-1 -1,0 0,-1 0,-1 1,-1 1,0 1,0 0,1 1,0 1,-1 1,0 1,-1 1,0 1,-1 0,1 0,1 1,0 1,0 1,0 1,0 1,0 1,0 1,0 0,-1 0,1 1,0 0,-1 1,0 1,0 0,1 1,0 -1,0 0,1 1,0 -1,0 1,1 1,0 1,1 1,0 1,0 0,-1 0,1 1,0 0,-1 -1,-1 0,-1 -1,-2 0,-1 0,-1 1,1 1,0 0,1 1,0 1,-1 1,0 0,1 1,-1 0,1 1,0 0,-1 1,0 1,0 1,0 1,0 0,1 1,1 0,-1 -1,-1 0,-1 -1,0 1,0 1,0 1,-1 -1,0 0,-1 0,-1 1,0 0,-1 1,0 0,-1 -1,0 -1,0 0,1 -1,0 -1,0 0,-1 1,0 0,-1 0,-1 1,0 0,-1 0,-1 -1,-1 0,-1 -1,1 -1,0 0,-1 -1,0 0,1 -1,-1 1,0 0,-1 -1,0 -1,0 0,1 0,-1 0,-1 0,-1 1,0 0,-1 1,0 1,-1 -1,0 -1,0 -1,0 -1,0 -1,0 1,1 -1,0 0,1 -1,0 0,1 0,1 0,1 -1,0 -1,0 -1,1 0,1 -1,-1 -1,0 0,-1 -1,0 0,-1 -1,0 0,-1 1,0 1,-1 -1,-1 0,-1 0,-1 0,-1 -1,-1 -1,0 1,0 0,-1 1,0 1,0 1,0 0,1 1,0 0,-1 0,-1 0,-1 -1,0 0,-1 -1,0 -1,0 0,-1 0,-1 0,-1 0,-1 -1,0 1,-1 0,-1 0,-1 1,0 -1,0 -1,0 1,-1 -1,0 0,1 -1,-2 -1,0 0,-1 0,-1 0,-1 0,-1 1,0 0,-1 1,0 1,1 0,-1 -1,0 0,-1 0,1 1,0 1,-1 1,0 0,-1 -1,0 1,-1 1,0 1,0 0,-1 0,-1 -1,0 0,-1 0,-1 -1,0 -1,0 0,-1 0,-1 0,-1 -1,0 1,0 0,-1 0,1 0,-1 -1,0 -1,0 0,-1 0,-1 1,0 1,0 1,0 1,0 1,0 -1,0 0,-1 -1,0 0,-1 0,-1 -1,0 0,-1 -1,-1 -1,0 4,-3 1,0 0,-1 0,-1 -1,-1 1,-1 0,-1 0,-1 0,-1 0,-1 1,0 1,-1 1,0 0,-1 1,0 1,0 1,1 0,1 1,1 0,1 0,1 1,0 1,-1 1,0 1,0 1,-1 1,1 0,-1 0,-1 0,-2 0,-1 1,-2 1,-2 1,-2 1,-1 2,-2 1,0 1,0 1,0 3,1 2,1 2,0 1,0 1,1 0,2 1,1 4,2 0,1 0,1 -1,0 0,1 0,1 1,0 0,1 1,1 1,0 0,1 0,1 1,0 0,1 0,1 1,0 1,1 0,1 1,1 0,1 0,1 -1,0 0,1 -1,1 1,0 -1,0 1,0 -1,0 0,1 1,0 0,1 -1,0 1,0 1,-1 0,-1 1,0 0,1 1,0 0,1 0,1 0,1 -1,0 0,1 -1,0 -1,0 0,1 -1,0 0,1 0,1 1,1 1,0 1,0 0,1 1,1 0,1 1,1 0,1 0,1 1,0 0,1 -1,1 1,1 1,2 1,0 1,1 1,1 1,1 1,1 0,1 -1,1 0,1 1,0 0,1 1,1 1,0 1,1 0,1 1,0 1,1 1,0 0,1 1,1 0,1 1,0 0,1 1,0 0,1 -1,1 0,1 0,1 1,1 0,1 1,0 2,1 1,1 0,1 -2,0 -1,1 -1,0 -1,0 0,1 -1,1 0,1 -2,2 -1,0 0,1 -1,0 -1,0 0,-1 -1,0 -1,0 -3,1 -1,0 0,1 -1,0 -1,0 0,1 -1,0 1,2 1,0 -1,2 0,1 -1,1 -1,0 0,1 1,0 0,1 1,1 0,1 0,1 0,1 0,1 1,1 1,0 1,1 1,2 1,1 1,2 1,1 0,1 0,1 -1,1 0,1 0,1 0,2 0,1 0,1 1,0 0,1 0,1 1,0 -2,0 -2,1 -1,0 -1,1 0,1 -2,0 0,1 -1,0 -1,0 -2,1 -1,0 -1,0 -1,0 0,1 -1,0 0,1 -1,1 -1,1 0,1 -1,0 -1,0 0,-1 -1,0 -2,0 -1,0 -4,-2 -1,-1 -2,-1 -1,0 -1,-1 -2,0 -1,-1 -1,0 -1,0 -2,0 -1,0 -2,0 -1,0 -2,1 -1,1 0,1 -1,1 0,2 -1,2 0,1 -2,3 0,2 -1,1 -1,2 0,2 -1,1 -2,5 -1,2 -1,1 -1,0 -2,-1 -1,0 -2,-1 -1,-1 -1,-1 -3,-1 -2,0 -4,-1 -1,0 -1,0 -3,0"
           id="path98"
           inkscape:connector-curvature="0" />
      </g>
      <g
         transform="matrix(0.77887865,0,0,0.77887865,211.46383,110.13985)"
         id="medellin_colombia_osm_admin_35"
         style="fill:#a3a2b3;fill-opacity:1;stroke:#ececec;stroke-width:0.77033824;stroke-linejoin:round;stroke-miterlimit:4;stroke-dasharray:none">
        <path
           style="fill:#a3a2b3;fill-opacity:1;stroke:#ececec;stroke-width:0.77033824;stroke-miterlimit:4;stroke-dasharray:none"
           d="m 1015,361 1,-1 0,-1 0,-1 0,-1 1,0 0,-1 0,-1 0,-1 1,0 0,-1 1,0 1,1 1,0 0,-1 1,0 -1,0 1,-1 -1,0 0,-1 1,0 0,-1 1,0 0,-1 1,0 -1,-1 1,0 0,-1 -1,0 0,-1 1,0 0,1 1,0 -1,0 0,-1 -1,0 0,-1 0,-1 1,0 0,1 1,0 0,-1 1,0 0,-1 1,-1 -1,0 0,-1 1,-1 0,-1 0,1 1,1 1,-1 0,1 1,0 1,1 0,-1 1,0 0,-1 1,0 1,0 0,1 1,0 1,0 0,-1 0,1 1,0 0,-1 0,1 1,-1 0,-1 0,-1 -1,0 0,-1 0,-1 -1,0 0,-1 0,-1 -1,0 0,-1 -1,-1 -1,0 0,-1 -1,0 -1,0 0,-1 1,0 0,-1 1,0 0,1 1,0 0,-1 0,-1 -1,0 -1,0 1,0 0,-1 -1,0 1,0 1,0 0,-1 -1,0 1,-1 -1,0 -1,-1 0,-1 -1,0 0,-1 0,-1 0,-1 0,-1 -1,0 1,-1 0,1 1,0 0,-1 1,0 1,0 0,1 0,1 0,1 0,1 0,1 1,0 1,0 -1,-2 2,-1 0,1 1,1 1,0 0,-1 1,0 1,0 1,0 1,-1 1,0 1,0 1,0 0,-1 1,0 1,0 1,0 1,0 1,-1 -1,0 0,-1 1,1 1,0 1,-1 1,1 1,-1 1,-1 0,1 1,0 0,1 0,-1 0,1 1,0 0,1 1,-1 0,-1 1,0 0,-1 2,0 -1,0 0,-1 0,-1 0,-1 -1,0 0,-1 -1,0 0,-1 -1,0 0,-1 1,0 1,0 0,-1 1,0 -1,0 0,-1 1,-1 -1,1 -1,0 1,0 -1,0 1,-1 1,0 0,-1 1,0 1,0 1,0 1,0 0,-1 1,0 1,-1 0,1 0,-1 1,1 0,-1 0,-1 1,0 0,-1 1,0 0,-1 1,1 0,-1 1,0 0,-1 0,-1 0,-1 1,0 1,0 0,-1 1,0 -1,0 1,0 0,-2 -1,0 0,-1 -1,0 0,-1 0,-1 -1,0 0,1 -1,-1 2,0 1,0 -1,0 0,-1 0,-1 -1,0 0,-1 1,0 1,1 1,0 1,0 1,0 1,0 1,0 1,-1 1,0 1,0 0,-1 1,0 1,0 1,0 1,0 1,0 0,1 0,-1 0,1 1,-1 1,0 1,0 1,0 0,-1 1,0 1,0 0,-1 1,0 1,0 1,1 1,0 1,0 1,0 1,0 1,0 1,0 1,0 1,0 1,1 -1,1 1,0 0,1 1,0 0,1 1,0 1,1 1,0 1,0 1,0 0,1 1,0 1,0 1,0 -1,1 1,0 1,0 1,0 1,1 1,0 0,1 1,0 1,0 1,1 1,0 0,1 1,0 0,1 1,0 1,0 -1,0 0,1 1,0 0,1 1,1 1,0 0,-1 1,0 1,-1 1,0 1,0 0,1 1,0 1,1 0,1 1,0 1,0 0,1 1,0 0,1 1,0 -1,0 0,1 0,1 -1,0 0,1 -1,1 -1,0 0,1 -1,0 -1,1 -1,0 0,1 0,1 0,1 0,1 -1,1 1,1 0,1 0,1 -1,0 -4,3 1,0 1,1 0,1 1,0 0,1 0,1 1,0 0,1 1,0 -1,0 -1,0 -1,0 -1,0 -1,0 0,1 0,1 1,0 1,0 0,1 0,-1 0,1 -1,0 1,0 0,1 0,1 0,1 1,0 1,0 0,1 0,1 1,0 0,1 0,1 -1,0 -1,0 -1,1 1,0 0,1 -1,0 -1,1 -1,0 0,-1 0,1 1,0 0,1 -1,-1 -1,0 0,1 -1,0 0,1 0,1 0,1 0,1 1,0 1,2 0,-1 1,0 -1,1 1,0 1,0 -1,0 0,1 0,1 -1,1 1,0 0,1 0,1 0,1 0,1 1,0 1,0 0,1 1,0 0,1 0,1 0,1 -1,0 0,-1 -1,0 -1,0 -1,0 0,1 -1,0 1,0 1,1 0,1 0,1 0,1 1,1 -1,1 -1,0 0,1 1,0 0,1 1,0 0,1 1,0 1,1 0,-1 1,-1 1,0 1,0 0,-1 0,-1 0,-1 1,0 0,-1 1,0 -1,-1 1,0 1,0 1,0 1,0 1,0 -1,1 -1,0 0,1 -1,0 0,1 0,1 0,1 0,-1 1,0 1,0 0,1 -1,0 1,1 0,-1 1,0 0,1 1,0 1,-1 0,1 1,1 0,1 0,1 -1,0 0,1 0,1 -1,0 0,1 1,0 1,0 0,-1 1,0 1,0 0,1 -1,0 0,1 -1,0 0,1 0,1 1,0 -1,1 -1,0 -1,0 1,0 0,1 1,1 0,1 -1,-1 0,-1 -1,0 -1,0 -1,0 -1,0 0,1 -1,0 0,-1 -1,1 0,-1 -1,0 -1,1 -1,0 0,-1 -1,0 -1,-1 0,1 0,1 1,2 0,1 1,1 0,1 -1,0 0,-1 0,1 -1,0 -1,0 -1,-1 -1,0 -1,-1 1,0 -1,0 0,-1 1,0 -1,0 0,-1 -1,0 -1,0 0,1 -1,0 0,-1 0,1 -1,0 -1,0 -1,0 -1,0 -1,0 -1,0 -1,0 0,-1 0,-1 -1,1 -1,0 -1,1 -1,0 -1,1 -1,0 0,-1 -1,0 -1,0 -1,1 0,1 0,1 1,0 0,1 1,1 1,0 1,1 -1,0 0,1 0,1 1,0 0,1 1,0 0,1 1,0 0,1 0,1 2,0 0,-1 1,0 0,1 0,1 -1,0 1,1 -1,1 0,1 1,0 0,1 -1,0 0,1 0,1 0,1 0,1 0,1 -1,0 0,1 -2,1 1,1 -1,1 0,1 0,1 -1,1 0,1 -1,0 0,1 0,1 0,1 -1,1 0,1 -1,0 0,1 0,1 0,1 1,0 0,1 0,1 1,0 0,1 0,1 -1,0 1,2 -1,0 -1,0 -1,0 -1,0 0,-1 0,1 -1,1 1,0 1,1 0,1 0,1 0,1 1,0 0,1 0,1 -1,0 0,1 0,1 -1,0 -1,1 -1,0 -1,0 -1,0 -1,0 0,-1 -1,0 -1,0 0,1 -1,0 0,-1 0,1 -1,0 0,-1 -1,0 -1,0 0,-1 -1,0 -1,-1 -1,-1 0,1 0,-1 -1,0 -1,0 -1,0 -1,0 0,-1 -1,0 -1,0 0,-1 -1,-1 -1,0 -3,-2 -1,-1 0,-1 0,-1 -1,-1 -2,-1 0,-1 1,-4 0,-1 1,-1 -2,-1 -2,0 -2,-1 -1,0 -1,2 -2,1 0,1 -1,0 -4,0 0,-1 -2,-1 -1,-1 0,-1 -1,0 0,1 0,-1 0,-1 -1,0 0,-1 0,-1 -1,1 -1,0 0,-1 -1,0 0,-1 1,0 -1,0 0,-1 1,0 0,-1 1,0 1,0 -1,0 -2,-1 -1,0 -1,-1 0,1 -1,0 0,-1 -1,1 -1,-1 -1,0 0,-1 -1,0 -1,0 1,-1 1,0 1,0 1,0 0,-1 -1,0 0,-1 -1,0 -1,0 -1,-1 0,-1 -1,0 0,-1 1,-1 0,-1 0,-1 1,1 1,-1 1,0 -1,0 0,-1 0,-1 0,-1 -1,0 -1,-1 -1,0 0,-1 0,-1 -1,0 -1,-1 -1,0 -1,0 -1,-1 0,1 0,-1 -1,0 0,-1 1,0 1,-1 1,0 1,0 0,1 0,-1 1,0 1,0 0,-1 -1,0 1,-1 1,0 0,-1 1,0 0,-1 0,-1 -1,0 -1,-1 0,1 -1,0 0,1 -1,0 -1,-1 -1,0 -1,-1 1,-1 -1,-1 0,-1 -1,-1 1,-1 -1,0 0,1 0,-1 -1,0 0,-1 0,-1 1,1 0,-1 -1,0 -1,-1 -1,0 -1,0 -1,0 -1,0 -1,0 -1,0 1,0 1,-1 1,0 0,-1 0,-1 1,0 0,1 0,-1 0,-1 1,0 -1,0 0,-1 0,-1 0,-1 1,0 1,0 0,-1 1,0 1,0 -1,0 -1,0 0,-1 -1,0 -1,0 0,1 -1,1 0,1 -1,0 -1,-1 1,-1 -1,0 0,-1 -1,-1 -1,0 -1,-1 -1,0 -1,1 -1,0 -1,0 -1,0 -2,0 -1,0 -1,0 0,1 -1,0 0,1 -1,0 0,-1 0,1 -1,-1 -2,0 -1,0"
           id="path110"
           inkscape:connector-curvature="0" />
      </g>
    </g>
  </g>
  <g
     id="red_acelerografica_copy"
     inkscape:groupmode="layer"
     inkscape:label="Red_acelerografica_inactivos"
     style="display:inline"
     transform="translate(-775.87,-200.13003)"
     sodipodi:insensitive="true">
    <rect
       style="display:inline;fill:#d95f02;fill-opacity:1;stroke:none;stroke-width:8;stroke-miterlimit:10;stroke-dasharray:none;stroke-opacity:1"
       id="rect4338-6"
       width="7.789"
       height="7.789"
       x="1038.2369"
       y="364.05417" />
    <rect
       style="fill:#d95f02;fill-opacity:1;stroke:none;stroke-width:8;stroke-miterlimit:10;stroke-dasharray:none;stroke-opacity:1"
       id="rect4338"
       width="7.789"
       height="7.789"
       x="1037.4581"
       y="352.371" />
    <circle
       style="fill:#d95f02;fill-opacity:1;stroke:none;stroke-width:0.25999999;stroke-linejoin:round"
       cx="1051.478"
       cy="429.4801"
       r="3.8943932"
       id="circle122" />
    <rect
       style="display:inline;fill:#d95f02;fill-opacity:1;stroke:none;stroke-width:8;stroke-miterlimit:10;stroke-dasharray:none;stroke-opacity:1"
       id="rect4338-62"
       width="7.789"
       height="7.789"
       x="1047.5835"
       y="425.5856" />
    <rect
       style="display:inline;fill:#d95f02;fill-opacity:1;stroke:none;stroke-width:8;stroke-miterlimit:10;stroke-dasharray:none;stroke-opacity:1"
       id="rect4338-35"
       width="7.789"
       height="7.789"
       x="1058.4878"
       y="389.75717" />
    <rect
       style="display:inline;fill:#d95f02;fill-opacity:1;stroke:none;stroke-width:8;stroke-miterlimit:10;stroke-dasharray:none;stroke-opacity:1"
       id="rect4338-7"
       width="7.789"
       height="7.789"
       x="1049.1412"
       y="371.84296" />
    <rect
       style="display:inline;fill:#d95f02;fill-opacity:1;stroke:none;stroke-width:8;stroke-miterlimit:10;stroke-dasharray:none;stroke-opacity:1"
       id="rect4338-9"
       width="7.789"
       height="7.789"
       x="953.33929"
       y="439.60541" />
    <rect
       style="display:inline;fill:#d95f02;fill-opacity:1;stroke:none;stroke-width:8;stroke-miterlimit:10;stroke-dasharray:none;stroke-opacity:1"
       id="rect4338-35-7"
       width="7.789"
       height="7.789"
       x="998.51422"
       y="381.96838" />
    <rect
       style="display:inline;fill:#d95f02;fill-opacity:1;stroke:none;stroke-width:8;stroke-miterlimit:10;stroke-dasharray:none;stroke-opacity:1"
       id="rect4338-2"
       width="7.789"
       height="7.789"
       x="1056.9301"
       y="303.30164" />
    <rect
       style="display:inline;fill:#d95f02;fill-opacity:1;stroke:none;stroke-width:8;stroke-miterlimit:10;stroke-dasharray:none;stroke-opacity:1"
       id="rect4338-1"
       width="7.789"
       height="7.789"
       x="1084.1908"
       y="301.7439" />
    <rect
       style="display:inline;fill:#d95f02;fill-opacity:1;stroke:none;stroke-width:8;stroke-miterlimit:10;stroke-dasharray:none;stroke-opacity:1"
       id="rect4338-5"
       width="7.789"
       height="7.789"
       x="1026.5538"
       y="375.73737" />
    <rect
       style="display:inline;fill:#d95f02;fill-opacity:1;stroke:none;stroke-width:8;stroke-miterlimit:10;stroke-dasharray:none;stroke-opacity:1"
       id="rect4338-35-0"
       width="7.789"
       height="7.789"
       x="1052.2568"
       y="374.9585" />
  </g>
  <g
     id="red_acelerografica"
     inkscape:groupmode="layer"
     inkscape:label="Red_acelerografica_activos"
     style="display:inline"
     transform="translate(-775.87,-200.13003)"
     sodipodi:insensitive="true">
    <g
       style="fill:#1b9e77;stroke:none;stroke-width:0.25999999;stroke-linejoin:round"
       id="red_acelerografica_1"
       transform="matrix(0.77887865,0,0,0.77887865,188.48051,110.13985)">
      <circle
         id="circle155"
         r="5"
         cy="361"
         cx="1110" />
    </g>
    <g
       style="fill:#1b9e77;stroke:none;stroke-width:0.25999999;stroke-linejoin:round"
       id="red_acelerografica_2"
       transform="matrix(0.77887865,0,0,0.77887865,188.48051,110.13985)">
      <circle
         id="circle158"
         r="5"
         cy="308"
         cx="1060" />
    </g>
    <g
       style="fill:#1b9e77;stroke:none;stroke-width:0.25999999;stroke-linejoin:round"
       id="red_acelerografica_3"
       transform="matrix(0.77887865,0,0,0.77887865,188.48051,110.13985)">
      <circle
         id="circle161"
         r="5"
         cy="336"
         cx="1053" />
    </g>
    <g
       style="fill:#1b9e77;stroke:none;stroke-width:0.25999999;stroke-linejoin:round"
       id="red_acelerografica_4"
       transform="matrix(0.77887865,0,0,0.77887865,188.48051,110.13985)">
      <circle
         id="circle164"
         r="5"
         cy="322"
         cx="1125" />
    </g>
    <g
       style="fill:#1b9e77;stroke:none;stroke-width:0.25999999;stroke-linejoin:round"
       id="red_acelerografica_5"
       transform="matrix(0.77887865,0,0,0.77887865,188.48051,110.13985)">
      <circle
         id="circle167"
         r="5"
         cy="419"
         cx="1136" />
    </g>
    <g
       style="fill:#1b9e77;stroke:none;stroke-width:0.25999999;stroke-linejoin:round"
       id="red_acelerografica_6"
       transform="matrix(0.77887865,0,0,0.77887865,188.48051,110.13985)">
      <circle
         id="circle170"
         r="5"
         cy="345"
         cx="1114" />
    </g>
    <g
       style="fill:#1b9e77;stroke:none;stroke-width:0.25999999;stroke-linejoin:round"
       id="red_acelerografica_7"
       transform="matrix(0.77887865,0,0,0.77887865,188.48051,110.13985)">
      <circle
         id="circle173"
         r="5"
         cy="327"
         cx="1067" />
    </g>
    <g
       style="fill:#1b9e77;stroke:none;stroke-width:0.25999999;stroke-linejoin:round"
       id="red_acelerografica_8"
       transform="matrix(0.77887865,0,0,0.77887865,188.48051,110.13985)">
      <circle
         id="circle176"
         r="5"
         cy="361"
         cx="1072" />
    </g>
    <g
       style="fill:#1b9e77;stroke:none;stroke-width:0.25999999;stroke-linejoin:round"
       id="red_acelerografica_9"
       transform="matrix(0.77887865,0,0,0.77887865,188.48051,110.13985)">
      <circle
         id="circle179"
         r="5"
         cy="373"
         cx="1119" />
    </g>
    <g
       style="fill:#1b9e77;stroke:none;stroke-width:0.25999999;stroke-linejoin:round"
       id="red_acelerografica_10"
       transform="matrix(0.77887865,0,0,0.77887865,188.48051,110.13985)">
      <circle
         id="circle182"
         r="5"
         cy="388"
         cx="1047" />
    </g>
    <g
       style="fill:#1b9e77;stroke:none;stroke-width:0.25999999;stroke-linejoin:round"
       id="red_acelerografica_11"
       transform="matrix(0.77887865,0,0,0.77887865,188.48051,110.13985)">
      <circle
         id="circle185"
         r="5"
         cy="354"
         cx="1045" />
    </g>
    <g
       style="fill:#1b9e77;stroke:none;stroke-width:0.25999999;stroke-linejoin:round"
       id="red_acelerografica_12"
       transform="matrix(0.77887865,0,0,0.77887865,188.48051,110.13985)">
      <circle
         id="circle188"
         r="5"
         cy="385"
         cx="1106" />
    </g>
    <g
       style="fill:#1b9e77;stroke:none;stroke-width:0.25999999;stroke-linejoin:round"
       id="red_acelerografica_13"
       transform="matrix(0.77887865,0,0,0.77887865,188.48051,110.13985)">
      <circle
         id="circle191"
         r="5"
         cy="296"
         cx="1106" />
    </g>
    <g
       style="fill:#1b9e77;stroke:none;stroke-width:0.25999999;stroke-linejoin:round"
       id="red_acelerografica_14"
       transform="matrix(0.77887865,0,0,0.77887865,188.48051,110.13985)">
      <circle
         id="circle194"
         r="5"
         cy="298"
         cx="1092" />
    </g>
    <g
       style="fill:#1b9e77;stroke:none;stroke-width:0.25999999;stroke-linejoin:round"
       id="red_acelerografica_15"
       transform="matrix(0.77887865,0,0,0.77887865,188.48051,110.13985)">
      <circle
         id="circle197"
         r="5"
         cy="375"
         cx="1044" />
    </g>
    <g
       style="fill:#1b9e77;stroke:none;stroke-width:0.25999999;stroke-linejoin:round"
       id="red_acelerografica_16"
       transform="matrix(0.77887865,0,0,0.77887865,188.48051,110.13985)">
      <circle
         id="circle200"
         r="5"
         cy="410"
         cx="1081" />
    </g>
    <g
       style="fill:#1b9e77;stroke:none;stroke-width:0.25999999;stroke-linejoin:round"
       id="red_acelerografica_17"
       transform="matrix(0.77887865,0,0,0.77887865,188.48051,110.13985)">
      <circle
         id="circle203"
         r="5"
         cy="343"
         cx="1085" />
    </g>
    <g
       style="fill:#1b9e77;stroke:none;stroke-width:0.25999999;stroke-linejoin:round"
       id="red_acelerografica_18"
       transform="matrix(0.77887865,0,0,0.77887865,188.48051,110.13985)">
      <circle
         id="circle206"
         r="5"
         cy="526"
         cx="1015" />
    </g>
    <g
       style="fill:#1b9e77;stroke:none;stroke-width:0.25999999;stroke-linejoin:round"
       id="red_acelerografica_19"
       transform="matrix(0.77887865,0,0,0.77887865,188.48051,110.13985)">
      <circle
         id="circle209"
         r="5"
         cy="453"
         cx="1006" />
    </g>
    <g
       style="fill:#1b9e77;stroke:none;stroke-width:0.25999999;stroke-linejoin:round"
       id="red_acelerografica_20"
       transform="matrix(0.77887865,0,0,0.77887865,188.48051,110.13985)">
      <circle
         id="circle212"
         r="5"
         cy="464"
         cx="1020" />
    </g>
    <g
       style="fill:#1b9e77;stroke:none;stroke-width:0.25999999;stroke-linejoin:round"
       id="red_acelerografica_21"
       transform="matrix(0.77887865,0,0,0.77887865,188.48051,110.13985)">
      <circle
         id="circle215"
         r="5"
         cy="455"
         cx="1047" />
    </g>
    <g
       style="fill:#1b9e77;stroke:none;stroke-width:0.25999999;stroke-linejoin:round"
       id="red_acelerografica_22"
       transform="matrix(0.77887865,0,0,0.77887865,188.48051,110.13985)">
      <circle
         id="circle218"
         r="5"
         cy="448"
         cx="1034" />
    </g>
    <g
       style="fill:#1b9e77;stroke:none;stroke-width:0.25999999;stroke-linejoin:round"
       id="red_acelerografica_23"
       transform="matrix(0.77887865,0,0,0.77887865,188.48051,110.13985)">
      <circle
         id="circle221"
         r="5"
         cy="444"
         cx="1095" />
    </g>
    <g
       style="fill:#1b9e77;stroke:none;stroke-width:0.25999999;stroke-linejoin:round"
       id="red_acelerografica_24"
       transform="matrix(0.77887865,0,0,0.77887865,188.48051,110.13985)">
      <circle
         id="circle224"
         r="5"
         cy="220"
         cx="1222" />
    </g>
    <g
       style="fill:#1b9e77;stroke:none;stroke-width:0.25999999;stroke-linejoin:round"
       id="red_acelerografica_25"
       transform="matrix(0.77887865,0,0,0.77887865,188.48051,110.13985)">
      <circle
         id="circle227"
         r="5"
         cy="178"
         cx="1243" />
    </g>
    <g
       style="fill:#1b9e77;stroke:none;stroke-width:0.25999999;stroke-linejoin:round"
       id="red_acelerografica_26"
       transform="matrix(0.77887865,0,0,0.77887865,188.48051,110.13985)">
      <circle
         id="circle230"
         r="5"
         cy="153"
         cx="1354" />
    </g>
  </g>
  <g
     inkscape:groupmode="layer"
     id="layer1"
     inkscape:label="Nombres"
     style="display:inline"
     sodipodi:insensitive="true">
    <text
       xml:space="preserve"
       style="font-style:normal;font-variant:normal;font-weight:normal;font-stretch:normal;font-size:11.25px;line-height:125%;font-family:Carlito;-inkscape-font-specification:'Carlito, Normal';text-align:start;letter-spacing:0px;word-spacing:0px;writing-mode:lr-tb;text-anchor:start;fill:#1a1a1a;fill-opacity:1;stroke:none;stroke-width:1px;stroke-linecap:butt;stroke-linejoin:miter;stroke-opacity:1"
       x="360.64542"
       y="176.08206"
       id="text4477"
       sodipodi:linespacing="125%"><tspan
         sodipodi:role="line"
         id="tspan4479"
         x="360.64542"
         y="176.08206">Guarne</tspan></text>
    <text
       xml:space="preserve"
       style="font-style:normal;font-variant:normal;font-weight:normal;font-stretch:normal;font-size:11.25px;line-height:125%;font-family:Carlito;-inkscape-font-specification:'Carlito, Normal';text-align:start;letter-spacing:0px;word-spacing:0px;writing-mode:lr-tb;text-anchor:start;fill:#1a1a1a;fill-opacity:1;stroke:none;stroke-width:1px;stroke-linecap:butt;stroke-linejoin:miter;stroke-opacity:1"
       x="371.75494"
       y="270.30157"
       id="text4477-4"
       sodipodi:linespacing="125%"><tspan
         sodipodi:role="line"
         id="tspan4479-6"
         x="371.75494"
         y="270.30157">Rionegro</tspan></text>
    <text
       xml:space="preserve"
       style="font-style:normal;font-variant:normal;font-weight:normal;font-stretch:normal;font-size:11.25px;line-height:125%;font-family:Carlito;-inkscape-font-specification:'Carlito, Normal';text-align:start;letter-spacing:0px;word-spacing:0px;writing-mode:lr-tb;text-anchor:start;fill:#1a1a1a;fill-opacity:1;stroke:none;stroke-width:1px;stroke-linecap:butt;stroke-linejoin:miter;stroke-opacity:1"
       x="254.54539"
       y="275.64432"
       id="text4477-4-3"
       sodipodi:linespacing="125%"><tspan
         sodipodi:role="line"
         id="tspan4479-6-7"
         x="254.54539"
         y="275.64432">Envigado</tspan><tspan
         sodipodi:role="line"
         x="254.54539"
         y="289.70682"
         id="tspan4517" /></text>
    <text
       xml:space="preserve"
       style="font-style:normal;font-variant:normal;font-weight:normal;font-stretch:normal;font-size:11.25px;line-height:125%;font-family:Carlito;-inkscape-font-specification:'Carlito, Normal';text-align:start;letter-spacing:0px;word-spacing:0px;writing-mode:lr-tb;text-anchor:start;fill:#1a1a1a;fill-opacity:1;stroke:none;stroke-width:1px;stroke-linecap:butt;stroke-linejoin:miter;stroke-opacity:1"
       x="230.83049"
       y="97.930359"
       id="text4477-4-9"
       sodipodi:linespacing="125%"><tspan
         sodipodi:role="line"
         id="tspan4479-6-74"
         x="230.83049"
         y="97.930359">Bello</tspan></text>
    <text
       xml:space="preserve"
       style="font-style:normal;font-variant:normal;font-weight:normal;font-stretch:normal;font-size:11.25px;line-height:125%;font-family:Carlito;-inkscape-font-specification:'Carlito, Normal';text-align:start;letter-spacing:0px;word-spacing:0px;writing-mode:lr-tb;text-anchor:start;fill:#1a1a1a;fill-opacity:1;stroke:none;stroke-width:1px;stroke-linecap:butt;stroke-linejoin:miter;stroke-opacity:1"
       x="298.91495"
       y="120.51331"
       id="text4477-4-91"
       sodipodi:linespacing="125%"><tspan
         sodipodi:role="line"
         id="tspan4479-6-70"
         x="298.91495"
         y="120.51331">Copacabana</tspan></text>
    <text
       xml:space="preserve"
       style="font-style:normal;font-variant:normal;font-weight:normal;font-stretch:normal;font-size:11.25px;line-height:125%;font-family:Carlito;-inkscape-font-specification:'Carlito, Normal';text-align:start;letter-spacing:0px;word-spacing:0px;writing-mode:lr-tb;text-anchor:start;fill:#1a1a1a;fill-opacity:1;stroke:none;stroke-width:1px;stroke-linecap:butt;stroke-linejoin:miter;stroke-opacity:1"
       x="342.74414"
       y="72.143013"
       id="text4477-4-6"
       sodipodi:linespacing="125%"><tspan
         sodipodi:role="line"
         id="tspan4479-6-0"
         x="342.74414"
         y="72.143013">Girardota</tspan></text>
    <text
       xml:space="preserve"
       style="font-style:normal;font-variant:normal;font-weight:normal;font-stretch:normal;font-size:11.25px;line-height:125%;font-family:Carlito;-inkscape-font-specification:'Carlito, Normal';text-align:start;letter-spacing:0px;word-spacing:0px;writing-mode:lr-tb;text-anchor:start;fill:#1a1a1a;fill-opacity:1;stroke:none;stroke-width:1px;stroke-linecap:butt;stroke-linejoin:miter;stroke-opacity:1"
       x="59.536072"
       y="124.3187"
       id="text4477-4-8"
       sodipodi:linespacing="125%"><tspan
         sodipodi:role="line"
         id="tspan4479-6-5"
         x="59.536072"
         y="124.3187">Ebjico</tspan></text>
    <text
       xml:space="preserve"
       style="font-style:normal;font-variant:normal;font-weight:normal;font-stretch:normal;font-size:11.25px;line-height:125%;font-family:Carlito;-inkscape-font-specification:'Carlito, Normal';text-align:start;letter-spacing:0px;word-spacing:0px;writing-mode:lr-tb;text-anchor:start;fill:#1a1a1a;fill-opacity:1;stroke:none;stroke-width:1px;stroke-linecap:butt;stroke-linejoin:miter;stroke-opacity:1"
       x="88.973831"
       y="219.72797"
       id="text4477-4-39"
       sodipodi:linespacing="125%"><tspan
         sodipodi:role="line"
         id="tspan4479-6-4"
         x="88.973831"
         y="219.72797">Heliconia</tspan></text>
    <text
       xml:space="preserve"
       style="font-style:normal;font-variant:normal;font-weight:normal;font-stretch:normal;font-size:11.25px;line-height:125%;font-family:Carlito;-inkscape-font-specification:'Carlito, Normal';text-align:start;letter-spacing:0px;word-spacing:0px;writing-mode:lr-tb;text-anchor:start;fill:#1a1a1a;fill-opacity:1;stroke:none;stroke-width:1px;stroke-linecap:butt;stroke-linejoin:miter;stroke-opacity:1"
       x="35.175743"
       y="267.25201"
       id="text4477-4-1"
       sodipodi:linespacing="125%"><tspan
         sodipodi:role="line"
         id="tspan4479-6-54"
         x="35.175743"
         y="267.25201">Armenia</tspan></text>
    <text
       xml:space="preserve"
       style="font-style:normal;font-variant:normal;font-weight:normal;font-stretch:normal;font-size:11.25px;line-height:125%;font-family:Carlito;-inkscape-font-specification:'Carlito, Normal';text-align:start;letter-spacing:0px;word-spacing:0px;writing-mode:lr-tb;text-anchor:start;fill:#1a1a1a;fill-opacity:1;stroke:none;stroke-width:1px;stroke-linecap:butt;stroke-linejoin:miter;stroke-opacity:1"
       x="103.85574"
       y="303.65509"
       id="text4477-4-15"
       sodipodi:linespacing="125%"><tspan
         sodipodi:role="line"
         id="tspan4479-6-549"
         x="103.85574"
         y="303.65509">Angelpolis</tspan></text>
    <text
       xml:space="preserve"
       style="font-style:normal;font-variant:normal;font-weight:normal;font-stretch:normal;font-size:11.25px;line-height:125%;font-family:Carlito;-inkscape-font-specification:'Carlito, Normal';text-align:start;letter-spacing:0px;word-spacing:0px;writing-mode:lr-tb;text-anchor:start;fill:#1a1a1a;fill-opacity:1;stroke:none;stroke-width:1px;stroke-linecap:butt;stroke-linejoin:miter;stroke-opacity:1"
       x="212.49896"
       y="246.45186"
       id="text4477-4-83"
       sodipodi:linespacing="125%"><tspan
         sodipodi:role="line"
         id="tspan4479-6-8"
         x="212.49896"
         y="246.45186">Itag</tspan></text>
    <text
       xml:space="preserve"
       style="font-style:normal;font-variant:normal;font-weight:normal;font-stretch:normal;font-size:11.25px;line-height:125%;font-family:Carlito;-inkscape-font-specification:'Carlito, Normal';text-align:start;letter-spacing:0px;word-spacing:0px;writing-mode:lr-tb;text-anchor:start;fill:#1a1a1a;fill-opacity:1;stroke:none;stroke-width:1px;stroke-linecap:butt;stroke-linejoin:miter;stroke-opacity:1"
       x="168.26955"
       y="289.12891"
       id="text4477-4-5"
       sodipodi:linespacing="125%"><tspan
         sodipodi:role="line"
         id="tspan4479-6-2"
         x="168.26955"
         y="289.12891">La Estrella</tspan></text>
    <text
       xml:space="preserve"
       style="font-style:normal;font-variant:normal;font-weight:normal;font-stretch:normal;font-size:13.75px;line-height:125%;font-family:Carlito;-inkscape-font-specification:'Carlito, Normal';text-align:start;letter-spacing:0px;word-spacing:0px;writing-mode:lr-tb;text-anchor:start;fill:#1a1a1a;fill-opacity:1;stroke:none;stroke-width:1px;stroke-linecap:butt;stroke-linejoin:miter;stroke-opacity:1"
       x="168.00407"
       y="174.08636"
       id="text4477-4-2"
       sodipodi:linespacing="125%"><tspan
         sodipodi:role="line"
         id="tspan4479-6-27"
         x="168.00407"
         y="174.08636">Medelln</tspan></text>
    <g
       id="g4329"
       transform="translate(463.37427,45.636453)">
      <circle
         r="18.104639"
         cy="35.869263"
         cx="37.986248"
         id="path4311"
         style="fill:none;fill-opacity:1;stroke:#333333;stroke-width:0.5;stroke-miterlimit:4;stroke-dasharray:none" />
      <path
         inkscape:connector-curvature="0"
         id="path4313"
         d="m 19.735254,35.869263 36.501988,0"
         style="fill:none;fill-rule:evenodd;stroke:#000000;stroke-width:0.5;stroke-linecap:butt;stroke-linejoin:miter;stroke-miterlimit:4;stroke-dasharray:none;stroke-opacity:1" />
      <path
         style="fill:none;fill-rule:evenodd;stroke:#000000;stroke-width:0.5;stroke-linecap:butt;stroke-linejoin:miter;stroke-miterlimit:4;stroke-dasharray:none;stroke-opacity:1"
         d="m 37.986248,17.618269 0,36.501989"
         id="path4315"
         inkscape:connector-curvature="0" />
      <path
         inkscape:connector-curvature="0"
         id="path4317"
         d="m 37.986248,17.618269 0,18.407362"
         style="fill:none;fill-rule:evenodd;stroke:#000000;stroke-width:3;stroke-linecap:butt;stroke-linejoin:miter;stroke-miterlimit:4;stroke-dasharray:none;stroke-opacity:1" />
    </g>
    <g
       id="g4447">
      <rect
         y="309.36893"
         x="461.94644"
         height="7.789"
         width="7.789"
         id="rect4338-3"
         style="display:inline;fill:#d95f02;fill-opacity:1;stroke:none;stroke-width:8;stroke-miterlimit:10;stroke-dasharray:none;stroke-opacity:1" />
      <g
         transform="matrix(0.77887865,0,0,0.77887865,-324.72088,-115.14333)"
         id="red_acelerografica_18-3"
         style="display:inline;fill:#1b9e77;stroke:none;stroke-width:0.25999999;stroke-linejoin:round">
        <circle
           cx="1015"
           cy="526"
           r="5"
           id="circle206-0" />
      </g>
      <text
         sodipodi:linespacing="125%"
         id="text4477-0"
         y="298.39481"
         x="475.70712"
         style="font-style:normal;font-variant:normal;font-weight:normal;font-stretch:normal;font-size:11.25px;line-height:125%;font-family:Carlito;-inkscape-font-specification:'Carlito, Normal';text-align:start;letter-spacing:0px;word-spacing:0px;writing-mode:lr-tb;text-anchor:start;fill:#1a1a1a;fill-opacity:1;stroke:none;stroke-width:1px;stroke-linecap:butt;stroke-linejoin:miter;stroke-opacity:1"
         xml:space="preserve"><tspan
           y="298.39481"
           x="475.70712"
           id="tspan4479-2"
           sodipodi:role="line">Activos</tspan></text>
      <text
         sodipodi:linespacing="125%"
         id="text4477-0-5"
         y="317.11139"
         x="474.83371"
         style="font-style:normal;font-variant:normal;font-weight:normal;font-stretch:normal;font-size:11.25px;line-height:125%;font-family:Carlito;-inkscape-font-specification:'Carlito, Normal';text-align:start;letter-spacing:0px;word-spacing:0px;writing-mode:lr-tb;text-anchor:start;fill:#1a1a1a;fill-opacity:1;stroke:none;stroke-width:1px;stroke-linecap:butt;stroke-linejoin:miter;stroke-opacity:1"
         xml:space="preserve"><tspan
           y="317.11139"
           x="474.83371"
           id="tspan4479-2-3"
           sodipodi:role="line">Inactivos</tspan></text>
    </g>
  </g>
  <!-- QGIS extent for clipping, eg in Inkscape -->
</svg>
