<?xml version="1.0" encoding="UTF-8" standalone="no"?>
<!-- Created with Inkscape (http://www.inkscape.org/) -->

<svg
   xmlns:dc="http://purl.org/dc/elements/1.1/"
   xmlns:cc="http://creativecommons.org/ns#"
   xmlns:rdf="http://www.w3.org/1999/02/22-rdf-syntax-ns#"
   xmlns:svg="http://www.w3.org/2000/svg"
   xmlns="http://www.w3.org/2000/svg"
   xmlns:sodipodi="http://sodipodi.sourceforge.net/DTD/sodipodi-0.dtd"
   xmlns:inkscape="http://www.inkscape.org/namespaces/inkscape"
   id="svg2"
   version="1.1"
   inkscape:version="0.91 r13725"
   xml:space="preserve"
   width="2112.5"
   height="1190"
   viewBox="0 0 2112.5 1190"
   sodipodi:docname="Mesh_bridge.svg"><metadata
     id="metadata8"><rdf:RDF><cc:Work
         rdf:about=""><dc:format>image/svg+xml</dc:format><dc:type
           rdf:resource="http://purl.org/dc/dcmitype/StillImage" /><dc:title></dc:title></cc:Work></rdf:RDF></metadata><defs
     id="defs6"><marker
       inkscape:stockid="DotM"
       orient="auto"
       refY="0.0"
       refX="0.0"
       id="DotM"
       style="overflow:visible"
       inkscape:isstock="true"><path
         id="path4534"
         d="M -2.5,-1.0 C -2.5,1.7600000 -4.7400000,4.0 -7.5,4.0 C -10.260000,4.0 -12.5,1.7600000 -12.5,-1.0 C -12.5,-3.7600000 -10.260000,-6.0 -7.5,-6.0 C -4.7400000,-6.0 -2.5,-3.7600000 -2.5,-1.0 z "
         style="fill-rule:evenodd;stroke:#000000;stroke-width:1pt;stroke-opacity:1;fill:#000000;fill-opacity:1"
         transform="scale(0.4) translate(7.4, 1)" /></marker><marker
       inkscape:stockid="DotL"
       orient="auto"
       refY="0.0"
       refX="0.0"
       id="DotL"
       style="overflow:visible"
       inkscape:isstock="true"><path
         id="path4531"
         d="M -2.5,-1.0 C -2.5,1.7600000 -4.7400000,4.0 -7.5,4.0 C -10.260000,4.0 -12.5,1.7600000 -12.5,-1.0 C -12.5,-3.7600000 -10.260000,-6.0 -7.5,-6.0 C -4.7400000,-6.0 -2.5,-3.7600000 -2.5,-1.0 z "
         style="fill-rule:evenodd;stroke:#000000;stroke-width:1pt;stroke-opacity:1;fill:#000000;fill-opacity:1"
         transform="scale(0.8) translate(7.4, 1)" /></marker></defs><sodipodi:namedview
     pagecolor="#ffffff"
     bordercolor="#666666"
     borderopacity="1"
     objecttolerance="10"
     gridtolerance="10"
     guidetolerance="10"
     inkscape:pageopacity="0"
     inkscape:pageshadow="2"
     inkscape:window-width="1920"
     inkscape:window-height="1016"
     id="namedview4"
     showgrid="false"
     inkscape:zoom="0.32473373"
     inkscape:cx="771.09783"
     inkscape:cy="484.50197"
     inkscape:window-x="0"
     inkscape:window-y="0"
     inkscape:window-maximized="1"
     inkscape:current-layer="g10" /><g
     id="g10"
     inkscape:groupmode="layer"
     inkscape:label="Mesh_bridge"
     transform="matrix(1.25,0,0,-1.25,0,1190)"><path
       d="m 64.030387,860.20676 0,-60.88939 160.659473,-0.66665 11.57434,61.55604 -172.233813,0 m 0,-60.88939 0,-60.88947 149.085133,-1.33321 11.57434,61.55603 -160.659473,0.66665 m 0,-60.88947 0,-60.8894 137.510793,-1.99985 11.57434,61.55604 -149.085133,1.33321 m 0,-60.8894 0,-60.8894 125.936383,-2.6665 11.57441,61.55605 -137.510793,1.99985 m 0,-60.8894 0,-60.88939 114.361983,-3.33312 11.5744,61.55601 -125.936383,2.6665 m 172.233813,243.55766 -11.57434,-61.55604 160.5821,-1.99766 23.22608,63.5537 -172.23384,0 m -11.57434,-61.55604 -11.57434,-61.55603 148.93032,-3.99527 23.22612,63.55364 -160.5821,1.99766 m -11.57434,-61.55603 -11.57434,-61.55604 137.27855,-5.99287 23.22611,63.55364 -148.93032,3.99527 m -11.57434,-61.55604 -11.57441,-61.55605 125.62685,-7.99045 23.22611,63.55363 -137.27855,5.99287 m -11.57441,-61.55605 -11.5744,-61.55601 113.97513,-9.98812 23.22612,63.55368 -125.62685,7.99045 m 218.53127,246.22416 -23.22608,-63.5537 160.42758,-3.32184 35.03235,66.87554 -172.23385,0 m -23.22608,-63.5537 -23.22612,-63.55364 148.62129,-6.64373 35.03241,66.87553 -160.42758,3.32184 m -23.22612,-63.55364 -23.22611,-63.55364 136.815,-9.96557 35.0324,66.87548 -148.62129,6.64373 m -23.22611,-63.55364 -23.22611,-63.55363 125.00874,-13.28741 35.03237,66.87547 -136.815,9.96557 m -23.22611,-63.55363 -23.22612,-63.55368 113.20243,-16.60926 35.03243,66.87553 -125.00874,13.28741 m 265.13827,254.21461 -35.03235,-66.87554 160.1964,-4.63482 47.06975,71.51036 -172.2338,0 m -35.03235,-66.87554 -35.03241,-66.87553 148.15904,-9.26966 47.06977,71.51037 -160.1964,4.63482 m -35.03241,-66.87553 -35.0324,-66.87548 136.1216,-13.90455 47.06984,71.51037 -148.15904,9.26966 m -35.0324,-66.87548 -35.03237,-66.87547 124.08421,-18.53944 47.06976,71.51036 -136.1216,13.90455 m -35.03237,-66.87547 -35.03243,-66.87553 112.04687,-23.17424 47.06977,71.51033 -124.08421,18.53944 m 312.36333,267.50202 -47.06975,-71.51036 159.88944,-5.93219 59.41419,77.44255 -172.23388,0 m -47.06975,-71.51036 -47.06977,-71.51037 147.54502,-11.86438 59.41419,77.44256 -159.88944,5.93219 m -47.06977,-71.51037 -47.06984,-71.51037 135.20068,-17.7965 59.41418,77.44249 -147.54502,11.86438 m -47.06984,-71.51037 -47.06976,-71.51036 122.85633,-23.72859 59.41411,77.44245 -135.20068,17.7965 M 564.68657,574.1653 517.6168,502.65497 628.12871,472.99419 687.5429,550.43671 564.68657,574.1653 m 360.513,286.04146 -59.41419,-77.44255 159.50772,-7.20941 72.1401,84.65196 -172.23363,0 m -59.41419,-77.44255 -59.41419,-77.44256 146.78166,-14.41875 72.14025,84.6519 -159.50772,7.20941 m -59.41419,-77.44256 -59.41418,-77.44249 134.05554,-21.62815 72.1403,84.65189 -146.78166,14.41875 m -59.41418,-77.44249 -59.41411,-77.44245 121.32935,-28.83763 72.1403,84.65193 -134.05554,21.62815 m -59.41411,-77.44245 -59.41419,-77.44252 108.60332,-36.04704 72.14022,84.65193 -121.32935,28.83763 m 409.8903,309.77005 -72.1401,-84.65196 159.0524,-8.46222 85.3218,93.11418 -172.2341,0 m -72.1401,-84.65196 -72.14025,-84.6519 145.87105,-16.92444 85.3216,93.11412 -159.0524,8.46222 m -72.14025,-84.6519 -72.1403,-84.65189 132.68975,-25.38672 85.3216,93.11417 -145.87105,16.92444 m -72.1403,-84.65189 -72.1403,-84.65193 119.50846,-33.84898 85.32159,93.11419 -132.68975,25.38672 m -72.1403,-84.65193 -72.14022,-84.65193 106.32702,-42.31116 85.32166,93.11411 -119.50846,33.84898 m 460.79505,338.60768 -85.3218,-93.11418 158.5253,-9.68642 99.0301,102.8006 -172.2336,0 m -85.3218,-93.11418 -85.3216,-93.11412 144.8169,-19.37297 99.03,102.80067 -158.5253,9.68642 m -85.3216,-93.11412 -85.3216,-93.11417 131.1082,-29.05937 99.0303,102.80057 -144.8169,19.37297 m -85.3216,-93.11417 -85.32159,-93.11419 117.39969,-38.74581 99.0301,102.80063 -131.1082,29.05937 M 928.38071,487.7501 843.05905,394.63599 946.75012,346.20368 1045.7804,449.00429 928.38071,487.7501 m 513.52019,372.45666 -99.0301,-102.8006 157.9281,-10.87792 113.3359,113.67852 -172.2339,0 m -99.0301,-102.8006 -99.03,-102.80067 143.6219,-21.75578 113.3362,113.67853 -157.9281,10.87792 m -99.03,-102.80067 -99.0303,-102.80057 129.316,-32.63366 113.3362,113.67845 -143.6219,21.75578 m -99.0303,-102.80057 -99.0301,-102.80063 115.0099,-43.51156 113.3362,113.67853 -129.316,32.63366 m -99.0301,-102.80063 -99.03028,-102.80061 100.70428,-54.38947 113.3359,113.67852 -115.0099,43.51156 m 313.043,-380.359871 51.0623,0 -33.3873,51.051221 -59.4094,-15.50728 41.7344,-35.543941 m 51.0623,0 51.0622,0 -25.0404,66.558491 -59.4091,-15.50727 33.3873,-51.051221 m 51.0622,0 51.0624,0 -16.6936,82.065761 -59.4092,-15.50727 25.0404,-66.558491 m 51.0624,0 51.0622,0 -8.3469,97.573061 -59.4089,-15.5073 16.6936,-82.065761 m 51.0622,0 51.0623,0 0,113.080371 -59.4092,-15.50731 8.3469,-97.573061 m -245.9835,35.543941 59.4094,15.50728 -34.1652,50.10883 -67.9505,-31.25018 42.7063,-34.36593 m 59.4094,15.50728 59.4091,15.50727 -25.6239,65.85168 -67.9504,-31.25012 34.1652,-50.10883 m 59.4091,15.50727 59.4092,15.50727 -17.0827,81.59462 -67.9504,-31.25021 25.6239,-65.85168 m 59.4092,15.50727 59.4089,15.5073 -8.5411,97.33745 -67.9505,-31.25013 17.0827,-81.59462 m 59.4089,15.5073 59.4092,15.50731 0,113.08029 -67.9503,-31.25015 8.5411,-97.33745 m -280.3429,-27.66319 67.9505,31.25018 -34.9163,49.14504 -76.6796,-47.23395 43.6454,-33.16127 m 67.9505,31.25018 67.9504,31.25012 -26.1875,65.1289 -76.6792,-47.23398 34.9163,-49.14504 m 67.9504,31.25012 67.9504,31.25021 -17.4582,81.11266 -76.6797,-47.23397 26.1875,-65.1289 m 67.9504,31.25021 67.9505,31.25013 -8.7293,97.0965 -76.6794,-47.23397 17.4582,-81.11266 m 67.9505,31.25013 67.9503,31.25015 0,113.08037 -76.6796,-47.23402 8.7293,-97.0965 m -315.4472,-91.83937 76.6796,47.23395 -35.6405,48.16081 -85.5895,-63.46387 44.5504,-31.93089 m 76.6796,47.23395 76.6792,47.23398 -26.73,64.3907 -85.5897,-63.46387 35.6405,-48.16081 m 76.6792,47.23398 76.6797,47.23397 -17.8201,80.62057 -85.5896,-63.46384 26.73,-64.3907 m 76.6797,47.23397 76.6794,47.23397 -8.9099,96.85045 -85.5896,-63.46385 17.8201,-80.62057 m 76.6794,47.23397 76.6796,47.23402 0,113.0803 -85.5895,-63.46387 8.9099,-96.85045 m -351.2683,-157.00498 85.5895,63.46387 -36.3366,47.15664 -94.6738,-79.94477 45.4209,-30.67574 m 85.5895,63.46387 85.5897,63.46387 -27.2528,63.63758 -94.6735,-79.94481 36.3366,-47.15664 m 85.5897,63.46387 85.5896,63.46384 -18.1685,80.11851 -94.6739,-79.94477 27.2528,-63.63758 m 85.5896,63.46384 85.5896,63.46385 -9.0844,96.59942 -94.6737,-79.94476 18.1685,-80.11851 m 85.5896,63.46385 85.5895,63.46387 0,113.08036 -94.6739,-79.94481 9.0844,-96.59942 m -387.7793,-223.17969 94.6738,79.94477 -37.0049,46.13351 -103.9252,-96.68146 46.2563,-29.39682 m 94.6738,79.94477 94.6735,79.94481 -27.7536,62.8702 -103.9248,-96.6815 37.0049,-46.13351 m 94.6735,79.94481 94.6739,79.94477 -18.5023,79.60692 -103.9252,-96.68149 27.7536,-62.8702 m 94.6739,79.94477 94.6737,79.94476 -9.2512,96.34361 -103.9248,-96.68145 18.5023,-79.60692 m 94.6737,79.94476 94.6739,79.94481 0,113.08033 -103.9251,-96.68153 9.2512,-96.34361 m -424.9512,-290.38229 103.9252,96.68146 -37.6446,45.09226 -113.3359,-113.67852 47.0553,-28.0952 m 103.9252,96.68146 103.9248,96.6815 -28.2332,62.08929 -113.3362,-113.67853 37.6446,-45.09226 m 103.9248,96.6815 103.9252,96.68149 -18.8222,79.08625 -113.3362,-113.67845 28.2332,-62.08929 m 103.9252,96.68149 103.9248,96.68145 -9.4108,96.08333 -113.3362,-113.67853 18.8222,-79.08625 m 103.9248,96.68145 103.9251,96.68153 0,113.08032 -113.3359,-113.67852 9.4108,-96.08333"
       style="fill:#067f00;fill-opacity:1;stroke:#070707;stroke-width:1.60000002;stroke-linecap:butt;stroke-linejoin:miter;stroke-miterlimit:10;stroke-dasharray:none;stroke-opacity:1"
       id="path338"
       inkscape:connector-curvature="0" /><path
       d="m 64.868601,860.86318 0,0 m 1550.104499,0 0,0 m 0,-791.562341 0,0 m -255.3114,0 0,0 M 64.868601,556.41612 l 0,0 m 983.423999,-263.9455 0,0 m -983.423999,568.39256 0,0 m 172.233809,0 0,0 m 0,0 0,0 m 172.23385,0 0,0 m 0,0 0,0 m 172.23384,0 0,0 m 0,0 0,0 m 172.2338,0 0,0 m 0,0 0,0 m 172.23388,0 0,0 m 0,0 0,0 m 172.23372,0 0,0 m 0,0 0,0 m 172.234,0 0,0 m 0,0 0,0 m 172.2337,0 0,0 m 0,0 0,0 m 172.2339,0 0,0 m 0,0 0,0 m 0,-113.08033 0,0 m 0,0 0,0 m 0,-113.08033 0,0 m 0,0 0,0 m 0,-113.08036 0,0 m 0,0 0,0 m 0,-113.08029 0,0 m 0,0 0,0 m 0,-113.08038 0,0 m 0,0 0,0 m 0,-113.08029 0,0 m 0,0 0,0 m 0,-113.080361 0,0 m 0,0 0,0 m -51.0623,0 0,0 m 0,0 0,0 m -51.0622,0 0,0 m 0,0 0,0 m -51.0624,0 0,0 m 0,0 0,0 m -51.0622,0 0,0 m 0,0 0,0 m -51.0623,0 0,0 M 64.868601,556.41612 l 0,0 m 0,60.8894 0,0 m 0,0 0,0 m 0,60.88939 0,0 m 0,0 0,0 m 0,60.88941 0,0 m 0,0 0,0 m 0,60.88946 0,0 m 0,0 0,0 m 0,60.8894 0,0 m 983.423999,-568.39256 0,0 m 113.336,113.67853 0,0 m 0,0 0,0 m 113.3362,113.67853 0,0 m 0,0 0,0 m 113.3362,113.67844 0,0 m 0,0 0,0 m 113.3362,113.67853 0,0 m 0,0 0,0 m 113.3359,113.67853 0,0 m -255.3114,-791.562341 0,0 m -41.7344,35.543941 0,0 m 0,0 0,0 m -42.7063,34.36593 0,0 m 0,0 0,0 m -43.6455,33.16126 0,0 m 0,0 0,0 m -44.5503,31.9309 0,0 m 0,0 0,0 m -45.4209,30.67573 0,0 m 0,0 0,0 m -46.2564,29.39682 0,0 m 0,0 0,0 m -47.0553,28.0952 0,0 m 0,0 0,0 m -100.70426,54.38948 0,0 m 0,0 0,0 m -103.69107,48.4323 0,0 m 0,0 0,0 m -106.32703,42.31117 0,0 m 0,0 0,0 m -108.60332,36.04703 0,0 m 0,0 0,0 m -110.51191,29.66078 0,0 m 0,0 0,0 m -112.04686,23.17424 0,0 m 0,0 0,0 m -113.20244,16.60927 0,0 m 0,0 0,0 m -113.97513,9.98812 0,0 m 0,0 0,0 m -114.361979,3.33311 0,0 m 160.659469,242.89102 0,0 m -11.57433,-61.55604 0,0 m -11.57434,-61.55604 0,0 m -11.57442,-61.55605 0,0 m 195.30519,182.67047 0,0 m -23.22612,-63.55364 0,0 m -23.2261,-63.55365 0,0 m -23.22612,-63.55363 0,0 m 230.10591,187.33907 0,0 m -35.03241,-66.87553 0,0 m -35.03238,-66.87547 0,0 m -35.03238,-66.87547 0,0 m 265.29357,195.99165 0,0 m -47.06976,-71.51036 0,0 m -47.06985,-71.51037 0,0 m -47.06976,-71.51037 0,0 m 301.09883,208.59892 0,0 m -59.41419,-77.44257 0,0 m -59.41419,-77.44248 0,0 m -59.41412,-77.44246 0,0 m 337.7503,225.11809 0,0 m -72.14033,-84.6519 0,0 m -72.14031,-84.65188 0,0 m -72.1403,-84.65193 0,0 m 375.47334,245.49349 0,0 m -85.3216,-93.11412 0,0 m -85.3217,-93.11416 0,0 m -85.32158,-93.11419 0,0 m 414.49018,269.65606 0,0 m -99.0301,-102.80068 0,0 m -99.0302,-102.80056 0,0 m -99.0302,-102.80064 0,0 m 330.7181,-329.30865 0,0 m 59.409,15.50727 0,0 m 59.4092,15.50727 0,0 m 59.409,15.50731 0,0 m -212.3924,3.58699 0,0 m 67.9504,31.25011 0,0 m 67.9503,31.25021 0,0 m 67.9505,31.25013 0,0 m -238.7676,-44.60541 0,0 m 76.6793,47.23398 0,0 m 76.6797,47.23397 0,0 m 76.6794,47.23396 0,0 m -265.6788,-93.5411 0,0 m 85.5897,63.46387 0,0 m 85.5896,63.46383 0,0 m 85.5896,63.46385 0,0 m -293.1056,-143.23491 0,0 m 94.6736,79.9448 0,0 m 94.6739,79.94477 0,0 m 94.6737,79.94477 0,0 m -321.026,-193.70083 0,0 m 103.9248,96.68149 0,0 m 103.9251,96.6815 0,0 m 103.9249,96.68144 0,0"
       style="fill:none;stroke:#000000;stroke-width:4;stroke-linecap:round;stroke-linejoin:miter;stroke-miterlimit:10;stroke-dasharray:none;stroke-opacity:1;marker-mid:url(#DotM)"
       id="path334"
       inkscape:connector-curvature="0" /></g></svg>