<?xml version="1.0" encoding="UTF-8" standalone="no"?>
<!-- Created with Inkscape (http://www.inkscape.org/) -->

<svg
   xmlns:dc="http://purl.org/dc/elements/1.1/"
   xmlns:cc="http://creativecommons.org/ns#"
   xmlns:rdf="http://www.w3.org/1999/02/22-rdf-syntax-ns#"
   xmlns:svg="http://www.w3.org/2000/svg"
   xmlns="http://www.w3.org/2000/svg"
   xmlns:sodipodi="http://sodipodi.sourceforge.net/DTD/sodipodi-0.dtd"
   xmlns:inkscape="http://www.inkscape.org/namespaces/inkscape"
   id="svg2"
   version="1.1"
   inkscape:version="0.91 r13725"
   xml:space="preserve"
   width="1115.0581"
   height="1117.1793"
   viewBox="0 0 1115.0581 1117.1793"
   sodipodi:docname="Mesh_ring.svg"><metadata
     id="metadata8"><rdf:RDF><cc:Work
         rdf:about=""><dc:format>image/svg+xml</dc:format><dc:type
           rdf:resource="http://purl.org/dc/dcmitype/StillImage" /><dc:title /></cc:Work></rdf:RDF></metadata><defs
     id="defs6"><marker
       inkscape:stockid="DotM"
       orient="auto"
       refY="0.0"
       refX="0.0"
       id="marker4421"
       style="overflow:visible"
       inkscape:isstock="true"><path
         id="path4229"
         d="M -2.5,-1.0 C -2.5,1.7600000 -4.7400000,4.0 -7.5,4.0 C -10.260000,4.0 -12.5,1.7600000 -12.5,-1.0 C -12.5,-3.7600000 -10.260000,-6.0 -7.5,-6.0 C -4.7400000,-6.0 -2.5,-3.7600000 -2.5,-1.0 z "
         style="fill-rule:evenodd;stroke:#000000;stroke-width:1pt;stroke-opacity:1;fill:#000000;fill-opacity:1"
         transform="scale(0.4) translate(7.4, 1)" /></marker><marker
       inkscape:stockid="DotM"
       orient="auto"
       refY="0"
       refX="0"
       id="DotM"
       style="overflow:visible"
       inkscape:isstock="true"><path
         id="path4784"
         d="m -2.5,-1 c 0,2.76 -2.24,5 -5,5 -2.76,0 -5,-2.24 -5,-5 0,-2.76 2.24,-5 5,-5 2.76,0 5,2.24 5,5 z"
         style="fill:#000000;fill-opacity:1;fill-rule:evenodd;stroke:#000000;stroke-width:1pt;stroke-opacity:1"
         transform="matrix(0.4,0,0,0.4,2.96,0.4)"
         inkscape:connector-curvature="0" /></marker></defs><sodipodi:namedview
     pagecolor="#ffffff"
     bordercolor="#666666"
     borderopacity="1"
     objecttolerance="10"
     gridtolerance="10"
     guidetolerance="10"
     inkscape:pageopacity="0"
     inkscape:pageshadow="2"
     inkscape:window-width="1920"
     inkscape:window-height="1016"
     id="namedview4"
     showgrid="false"
     showguides="false"
     fit-margin-top="0"
     fit-margin-left="0"
     fit-margin-right="0"
     fit-margin-bottom="0"
     inkscape:zoom="0.62674556"
     inkscape:cx="251.25088"
     inkscape:cy="425.90724"
     inkscape:window-x="0"
     inkscape:window-y="0"
     inkscape:window-maximized="1"
     inkscape:current-layer="g10" /><g
     id="g10"
     inkscape:groupmode="layer"
     inkscape:label="Mesh_ring"
     transform="matrix(1.25,0,0,-1.25,-281.3071,1164.0971)"><path
       d="m 261.2704,689.67874 50.75916,-2.09947 -50.75916,43.07755 0,-40.97808 m 0,40.97808 50.75916,-43.07755 3.38402,40.83812 -54.14318,2.23943 54.14318,-2.23943 -54.14318,43.21757 0,-40.97814 m 0,40.97814 54.14318,-43.21757 3.38393,40.83824 -57.52711,2.37933 57.52711,-2.37933 -57.52711,43.35738 0,-40.97805 m 0,40.97805 57.52711,-43.35738 3.38393,40.83815 -60.91104,2.51923 60.91104,-2.51923 -60.91104,43.49726 0,-40.97803 m 0,40.97803 60.91104,-43.49726 3.38394,40.83804 -64.29498,2.65922 64.29498,-2.65922 -64.29498,43.63736 0,-40.97814 m 0,40.97814 64.29498,-43.63736 3.38393,40.83814 -67.67891,2.79922 m 50.75916,-206.98991 50.4125,-6.28391 -47.02848,47.12203 -3.38402,-40.83812 m 3.38402,40.83812 47.02848,-47.12203 6.74478,40.41929 -53.77326,6.70274 53.77326,-6.70274 -50.38933,47.54098 -3.38393,-40.83824 m 3.38393,40.83824 50.38933,-47.54098 6.74477,40.41918 -57.1341,7.1218 57.1341,-7.1218 -53.75017,47.95995 -3.38393,-40.83815 m 3.38393,40.83815 53.75017,-47.95995 6.74478,40.41918 -60.49495,7.54077 60.49495,-7.54077 -57.11101,48.37881 -3.38394,-40.83804 m 3.38394,40.83804 57.11101,-48.37881 6.74478,40.41916 -63.85579,7.95965 63.85579,-7.95965 -60.47186,48.79779 -3.38393,-40.83814 m 3.38393,40.83814 60.47186,-48.79779 6.74478,40.41927 -67.21664,8.37852 m 33.49275,-210.4746 49.72138,-10.42541 -42.9766,50.8447 -6.74478,-40.41929 m 6.74478,40.41929 42.9766,-50.8447 10.05948,39.72412 -53.03608,11.12058 53.03608,-11.12058 -46.29131,51.53976 -6.74477,-40.41918 m 6.74477,40.41918 46.29131,-51.53976 10.05953,39.72424 -56.35084,11.81552 56.35084,-11.81552 -49.60606,52.2347 -6.74478,-40.41918 m 6.74478,40.41918 49.60606,-52.2347 10.05955,39.72418 -59.66561,12.51052 59.66561,-12.51052 -52.92083,52.92968 -6.74478,-40.41916 m 6.74478,40.41916 52.92083,-52.92968 10.05954,39.72418 -62.98037,13.2055 62.98037,-13.2055 -56.23559,53.62477 -6.74478,-40.41927 m 6.74478,40.41927 56.23559,-53.62477 10.05952,39.72416 -66.29511,13.90061 m 15.99749,-212.52149 48.69056,-14.49584 -38.63108,54.21996 -10.05948,-39.72412 m 10.05948,39.72412 38.63108,-54.21996 13.30556,38.75778 -51.93664,15.46218 51.93664,-15.46218 -41.87711,55.18642 -10.05953,-39.72424 m 10.05953,39.72424 41.87711,-55.18642 13.30559,38.75774 -55.1827,16.42868 55.1827,-16.42868 -45.12315,56.15286 -10.05955,-39.72418 m 10.05955,39.72418 45.12315,-56.15286 13.30555,38.75784 -58.4287,17.39502 58.4287,-17.39502 -48.36916,57.1192 -10.05954,-39.72418 m 10.05954,39.72418 48.36916,-57.1192 13.3056,38.75785 -61.67476,18.36135 61.67476,-18.36135 -51.61524,58.08551 -10.05952,-39.72416 m 10.05952,39.72416 51.61524,-58.08551 13.3055,38.75773 -64.92074,19.32778 M 460.854,656.37411 508.18123,637.90694 474.15956,695.13189 460.854,656.37411 m 13.30556,38.75778 34.02167,-57.22495 16.46068,37.52668 -50.48235,19.69827 50.48235,-19.69827 -37.17676,58.45601 -13.30559,-38.75774 m 13.30559,38.75774 37.17676,-58.45601 16.46078,37.52668 -53.63754,20.92933 53.63754,-20.92933 -40.33199,59.68717 -13.30555,-38.75784 m 13.30555,38.75784 40.33199,-59.68717 16.46068,37.5266 -56.79267,22.16057 56.79267,-22.16057 -43.48707,60.91842 -13.3056,-38.75785 m 13.3056,38.75785 43.48707,-60.91842 16.46078,37.5267 -59.94785,23.39172 59.94785,-23.39172 -46.64235,62.14945 -13.3055,-38.75773 m 13.3055,38.75773 46.64235,-62.14945 16.46068,37.5266 -63.10303,24.62285 m -19.20057,-212.25611 45.64059,-22.31226 -29.17991,59.83894 -16.46068,-37.52668 m 16.46068,37.52668 29.17991,-59.83894 19.50337,36.03915 -48.68328,23.79979 48.68328,-23.79979 -32.2225,61.32647 -16.46078,-37.52668 m 16.46078,37.52668 32.2225,-61.32647 19.50346,36.03914 -51.72596,25.28733 51.72596,-25.28733 -35.26528,62.81393 -16.46068,-37.5266 m 16.46068,37.5266 35.26528,-62.81393 19.50347,36.0392 -54.76875,26.77473 54.76875,-26.77473 -38.30797,64.30143 -16.46078,-37.5267 m 16.46078,37.5267 38.30797,-64.30143 19.50337,36.03911 -57.81134,28.26232 57.81134,-28.26232 -41.35066,65.78892 -16.46068,-37.5266 m 16.46068,37.5266 41.35066,-65.78892 19.50346,36.0392 -60.85412,29.74972 m -36.66301,-209.94552 43.64215,-26.00514 -24.13878,62.04429 -19.50337,-36.03915 m 19.50337,36.03915 24.13878,-62.04429 22.41296,34.30555 -46.55174,27.73874 46.55174,-27.73874 -27.04828,63.77788 -19.50346,-36.03914 m 19.50346,36.03914 27.04828,-63.77788 22.41287,34.30542 -49.46115,29.47246 49.46115,-29.47246 -29.95768,65.51166 -19.50347,-36.0392 m 19.50347,36.0392 29.95768,-65.51166 22.41288,34.30555 -52.37056,31.20611 52.37056,-31.20611 -32.86719,67.24522 -19.50337,-36.03911 m 19.50337,36.03911 32.86719,-67.24522 22.41287,34.30555 -55.28006,32.93967 55.28006,-32.93967 -35.7766,68.97887 -19.50346,-36.0392 m 19.50346,36.0392 35.7766,-68.97887 22.41287,34.30538 -58.18947,34.67349 m -53.87498,-206.20094 41.3456,-29.52018 -18.93264,63.82573 -22.41296,-34.30555 m 22.41296,34.30555 18.93264,-63.82573 25.16932,32.33751 -44.10196,31.48822 44.10196,-31.48822 -21.68909,65.79364 -22.41287,-34.30542 m 22.41287,34.30542 21.68909,-65.79364 25.16922,32.3375 -46.85831,33.45614 46.85831,-33.45614 -24.44543,67.76169 -22.41288,-34.30555 m 22.41288,34.30555 24.44543,-67.76169 25.16932,32.33751 -49.61475,35.42418 49.61475,-35.42418 -27.20188,69.72973 -22.41287,-34.30555 m 22.41287,34.30555 27.20188,-69.72973 25.16923,32.33744 -52.37111,37.39229 52.37111,-37.39229 -29.95824,71.69767 -22.41287,-34.30538 m 22.41287,34.30538 29.95824,-71.69767 25.16932,32.33746 -55.12756,39.36021 m -70.71885,-201.04763 38.76667,-32.83366 -13.59735,65.17117 -25.16932,-32.33751 m 25.16932,32.33751 13.59735,-65.17117 27.75367,30.14854 -41.35102,35.02263 41.35102,-35.02263 -16.1818,67.36013 -25.16922,-32.3375 m 25.16922,32.3375 16.1818,-67.36013 27.75377,30.14861 -43.93557,37.21152 43.93557,-37.21152 -18.76625,69.54903 -25.16932,-32.33751 m 25.16932,32.33751 18.76625,-69.54903 27.75367,30.14855 -46.51992,39.40048 46.51992,-39.40048 -21.35069,71.73792 -25.16923,-32.33744 m 25.16923,32.33744 21.35069,-71.73792 27.75376,30.14855 -49.10445,41.58937 49.10445,-41.58937 -23.93513,73.92683 -25.16932,-32.33746 m 25.16932,32.33746 23.93513,-73.92683 27.75376,30.14861 -51.68889,43.77822 m -87.07974,-194.52108 35.92285,-35.92289 -8.16918,66.07143 -27.75367,-30.14854 m 27.75367,30.14854 8.16918,-66.07143 30.14854,27.75374 -38.31772,38.31769 38.31772,-38.31769 -10.56395,68.4663 -27.75377,-30.14861 m 27.75377,30.14861 10.56395,-68.4663 30.14855,27.75374 -40.7125,40.71256 40.7125,-40.71256 -12.95883,70.86111 -27.75367,-30.14855 m 27.75367,30.14855 12.95883,-70.86111 30.14864,27.75372 -43.10747,43.10739 43.10747,-43.10739 -15.35371,73.25594 -27.75376,-30.14855 m 27.75376,30.14855 15.35371,-73.25594 30.14854,27.75368 -45.50225,45.50226 45.50225,-45.50226 -17.74849,75.65087 -27.75376,-30.14861 m 27.75376,30.14861 17.74849,-75.65087 30.14864,27.75374 -47.89713,47.89713 m -102.84578,-186.66575 32.83371,-38.76659 -2.68517,66.52033 -30.14854,-27.75374 m 30.14854,27.75374 2.68517,-66.52033 32.33747,25.16928 -35.02264,41.35105 35.02264,-41.35105 -4.87409,69.10479 -30.14855,-27.75374 m 30.14855,27.75374 4.87409,-69.10479 32.33748,25.16921 -37.21157,43.93558 37.21157,-43.93558 -7.06293,71.6893 -30.14864,-27.75372 m 30.14864,27.75372 7.06293,-71.6893 32.33748,25.16928 -39.40041,46.52002 39.40041,-46.52002 -9.25187,74.2737 -30.14854,-27.75368 m 30.14854,27.75368 9.25187,-74.2737 32.33748,25.16933 -41.58935,49.10437 41.58935,-49.10437 -11.44071,76.85811 -30.14864,-27.75374 m 30.14864,27.75374 11.44071,-76.85811 32.33748,25.16922 -43.77819,51.68889 m -117.9092,-177.53521 29.52014,-41.34563 2.81733,66.51491 -32.33747,-25.16928 m 32.33747,25.16928 -2.81733,-66.51491 34.30556,22.41292 -31.48823,44.10199 31.48823,-44.10199 0.84925,69.2712 -32.33748,-25.16921 m 32.33748,25.16921 -0.84925,-69.2712 34.30548,22.41291 -33.45623,46.85829 33.45623,-46.85829 -1.11875,72.02757 -32.33748,-25.16928 m 32.33748,25.16928 1.11875,-72.02757 34.30557,22.41289 -35.42432,49.61468 35.42432,-49.61468 -3.08684,74.78401 -32.33748,-25.16933 m 32.33748,25.16933 3.08684,-74.78401 34.30547,22.41289 -37.39231,52.37112 37.39231,-52.37112 -5.05483,77.54034 -32.33748,-25.16922 m 32.33748,25.16922 5.05483,-77.54034 34.30538,22.41289 -39.36021,55.12745 m -132.16725,-167.19195 26.00513,-43.64215 8.30043,66.05507 -34.30556,-22.41292 m 34.30556,22.41292 -8.30043,-66.05507 36.0392,19.50346 -27.73877,46.55161 27.73877,-46.55161 6.56671,68.96452 -34.30548,-22.41291 m 34.30548,22.41291 -6.56671,-68.96452 36.0392,19.50342 -29.47249,49.4611 29.47249,-49.4611 4.83308,71.87399 -34.30557,-22.41289 m 34.30557,22.41289 -4.83308,-71.87399 36.03911,19.50341 -31.20603,52.37058 31.20603,-52.37058 3.09944,74.78347 -34.30547,-22.41289 m 34.30547,22.41289 -3.09944,-74.78347 36.0392,19.5034 -32.93976,55.28007 32.93976,-55.28007 1.36562,77.69296 -34.30538,-22.41289 m 34.30538,22.41289 -1.36562,-77.69296 36.03908,19.50341 -34.67346,58.18955 m -145.52233,-155.70665 22.31225,-45.64057 13.72695,65.14403 -36.0392,-19.50346 m 36.0392,19.50346 -13.72695,-65.14403 37.52679,16.46071 -23.79984,48.68332 23.79984,-48.68332 12.23936,68.18674 -36.0392,-19.50342 m 36.0392,19.50342 -12.23936,-68.18674 37.5266,16.46075 -25.28724,51.72599 25.28724,-51.72599 10.75187,71.2294 -36.03911,-19.50341 m 36.03911,19.50341 -10.75187,-71.2294 37.5266,16.4607 -26.77473,54.7687 26.77473,-54.7687 9.26447,74.2721 -36.0392,-19.5034 m 36.0392,19.5034 -9.26447,-74.2721 37.52667,16.46071 -28.2622,57.81139 28.2622,-57.81139 7.77688,77.3148 -36.03908,-19.50341 m 36.03908,19.50341 -7.77688,-77.3148 37.52672,16.46073 -29.74984,60.85407 m -157.88354,-143.15767 18.46722,-47.32722 19.05957,63.78793 -37.52679,-16.46071 m 37.52679,16.46071 -19.05957,-63.78793 38.75775,13.30555 -19.69818,50.48238 19.69818,-50.48238 17.82842,66.94313 -37.5266,-16.46075 m 37.5266,16.46075 -17.82842,-66.94313 38.75784,13.30556 -20.92942,53.63757 20.92942,-53.63757 16.59718,70.09827 -37.5266,-16.4607 m 37.5266,16.4607 -16.59718,-70.09827 38.75775,13.30561 -22.16057,56.79266 22.16057,-56.79266 15.3661,73.25337 -37.52667,-16.46071 m 37.52667,16.46071 -15.3661,-73.25337 38.75773,13.30556 -23.39163,59.94781 23.39163,-59.94781 14.13509,76.40854 -37.52672,-16.46073 m 37.52672,16.46073 -14.13509,-76.40854 38.75789,13.30556 -24.6228,63.10298 m -169.16616,-129.63082 14.49572,-48.69059 24.26203,61.99614 -38.75775,-13.30555 m 38.75775,13.30555 -24.26203,-61.99614 39.72427,10.05952 -15.46224,51.93662 15.46224,-51.93662 23.2956,65.24218 -38.75784,-13.30556 m 38.75784,13.30556 -23.2956,-65.24218 39.72418,10.05956 -16.42858,55.18262 16.42858,-55.18262 22.32917,68.48823 -38.75775,-13.30561 m 38.75775,13.30561 -22.32917,-68.48823 39.72416,10.05952 -17.39499,58.42871 17.39499,-58.42871 21.36274,71.73427 -38.75773,-13.30556 m 38.75773,13.30556 -21.36274,-71.73427 39.72413,10.05954 -18.36139,61.67473 18.36139,-61.67473 20.3965,74.98029 -38.75789,-13.30556 m 38.75789,13.30556 -20.3965,-74.98029 39.7242,10.05951 -19.3277,64.92078 m -179.29324,-115.21843 10.42553,-49.72132 29.29874,59.78084 -39.72427,-10.05952 m 39.72427,10.05952 -29.29874,-59.78084 40.41918,6.74477 -11.12044,53.03607 11.12044,-53.03607 28.60374,63.09563 -39.72418,-10.05956 m 39.72418,10.05956 -28.60374,-63.09563 40.41927,6.74479 -11.81553,56.35084 11.81553,-56.35084 27.90863,66.41036 -39.72416,-10.05952 m 39.72416,10.05952 -27.90863,-66.41036 40.41915,6.74477 -12.51052,59.66559 12.51052,-59.66559 27.21361,69.72513 -39.72413,-10.05954 m 39.72413,10.05954 -27.21361,-69.72513 40.41931,6.74478 -13.2057,62.98035 13.2057,-62.98035 26.5185,73.03986 -39.7242,-10.05951 m 39.7242,10.05951 -26.5185,-73.03986 40.4191,6.74474 -13.9006,66.29512 m -188.19541,-100.01897 6.28386,-50.41243 34.13532,57.1572 -40.41918,-6.74477 m 40.41918,6.74477 -34.13532,-57.1572 40.83815,3.38392 -6.70283,53.77328 6.70283,-53.77328 33.71644,60.51807 -40.41927,-6.74479 m 40.41927,6.74479 -33.71644,-60.51807 40.83815,3.38395 -7.12171,57.13412 7.12171,-57.13412 33.29744,63.87889 -40.41915,-6.74477 m 40.41915,6.74477 -33.29744,-63.87889 40.83812,3.38395 -7.54068,60.49494 7.54068,-60.49494 32.87863,67.23972 -40.41931,-6.74478 m 40.41931,6.74478 -32.87863,-67.23972 40.83823,3.38395 -7.9596,63.85577 7.9596,-63.85577 32.4595,70.60051 -40.4191,-6.74474 m 40.4191,6.74474 -32.4595,-70.60051 40.8381,3.38394 -8.3786,67.21657 m -195.81215,-84.13628 2.09944,-50.7592 38.73871,54.14312 -40.83815,-3.38392 m 40.83815,3.38392 -38.73871,-54.14312 40.97814,0 -2.23943,54.14312 2.23943,-54.14312 38.59872,57.52707 -40.83815,-3.38395 m 40.83815,3.38395 -38.59872,-57.52707 40.97814,0 -2.37942,57.52707 2.37942,-57.52707 38.4587,60.91102 -40.83812,-3.38395 m 40.83812,3.38395 -38.4587,-60.91102 40.97793,0 -2.51923,60.91102 2.51923,-60.91102 38.319,64.29497 -40.83823,-3.38395 m 40.83823,3.38395 -38.319,-64.29497 40.9782,0 -2.6592,64.29497 2.6592,-64.29497 38.1789,67.67891 -40.8381,-3.38394 m 40.8381,3.38394 -38.1789,-67.67891 40.9782,0 -2.7993,67.67891"
       style="fill:#6a63ff;fill-opacity:1;stroke:#1a1a1a;stroke-width:1;stroke-linecap:butt;stroke-linejoin:miter;stroke-miterlimit:10;stroke-dasharray:none;stroke-opacity:1"
       id="path398"
       inkscape:connector-curvature="0" /><path
       d="m 261.28008,689.29656 0,0 m 614.6717,-614.671626 0,0 m 204.89062,0 0,0 m -819.56232,819.562086 0,0 m 0,-204.89046 0,0 m 50.75921,-2.09946 0,0 m 0,0 0,0 m 50.41243,-6.28392 0,0 m 0,0 0,0 m 49.7214,-10.4254 0,0 m 0,0 0,0 m 48.69057,-14.49584 0,0 m 0,0 0,0 m 47.32723,-18.46718 0,0 m 0,0 0,0 m 45.64056,-22.31225 0,0 m 0,0 0,0 m 43.64218,-26.00515 0,0 m 0,0 0,0 m 41.34559,-29.52018 0,0 m 0,0 0,0 m 38.76666,-32.83366 0,0 m 0,0 0,0 m 35.92282,-35.92288 0,0 m 0,0 0,0 m 32.83372,-38.76659 0,0 m 0,0 0,0 m 29.52018,-41.34564 0,0 m 0,0 0,0 m 26.00514,-43.64215 0,0 m 0,0 0,0 m 22.31225,-45.64056 0,0 m 0,0 0,0 m 18.46719,-47.32723 0,0 m 0,0 0,0 m 14.49577,-48.69059 0,0 m 0,0 0,0 m 10.42547,-49.72131 0,0 m 0,0 0,0 m 6.28392,-50.41243 0,0 m 0,0 0,0 m 2.09941,-50.759206 0,0 m 0,0 0,0 m 40.97816,0 0,0 m 0,0 0,0 m 40.97812,0 0,0 m 0,0 0,0 m 40.97799,0 0,0 m 0,0 0,0 m 40.97825,0 0,0 m 0,0 0,0 m 40.9781,0 0,0 m 0,0 0,0 m -2.7993,67.678906 0,0 m 0,0 0,0 m -8.3785,67.21658 0,0 m 0,0 0,0 m -13.9006,66.29512 0,0 m 0,0 0,0 m -19.3277,64.92078 0,0 m 0,0 0,0 m -24.6229,63.10298 0,0 m 0,0 0,0 m -29.74979,60.85406 0,0 m 0,0 0,0 m -34.67348,58.18956 0,0 m 0,0 0,0 m -39.36028,55.12744 0,0 m 0,0 0,0 m -43.7782,51.68889 0,0 m 0,0 0,0 m -47.89714,47.89714 0,0 m 0,0 0,0 m -51.68888,43.7782 0,0 m 0,0 0,0 m -55.12751,39.36027 0,0 m 0,0 0,0 m -58.1895,34.67343 0,0 m 0,0 0,0 m -60.85412,29.74973 0,0 m 0,0 0,0 m -63.10297,24.62286 0,0 m 0,0 0,0 m -64.92078,19.32775 0,0 m 0,0 0,0 m -66.29513,13.90069 0,0 m 0,0 0,0 m -67.21659,8.37844 0,0 m 0,0 0,0 m -67.67895,2.79926 0,0 m 0,0 0,0 m 0,-40.97812 0,0 m 0,0 0,0 m 0,-40.97806 0,0 m 0,0 0,0 m 0,-40.97805 0,0 m 0,0 0,0 m 0,-40.97817 0,0 m 0,0 0,0 m 0,-40.97806 0,0 m 54.14316,38.73869 0,0 m 3.38395,40.83816 0,0 m 3.38394,40.83816 0,0 m 3.38395,40.8381 0,0 m 43.62143,-129.21724 0,0 m 6.74479,40.41918 0,0 m 6.74477,40.41924 0,0 m 6.74477,40.41918 0,0 m 32.80177,-132.37814 0,0 m 10.05952,39.72423 0,0 m 10.05955,39.72417 0,0 m 10.05954,39.72422 0,0 m 21.75803,-134.6348 0,0 m 13.30558,38.75778 0,0 m 13.30555,38.75784 0,0 m 13.30559,38.75778 0,0 m 10.56565,-135.97166 0,0 m 16.46074,37.52668 0,0 m 16.46073,37.52664 0,0 m 16.46073,37.52662 0,0 m -0.69893,-136.37974 0,0 m 19.50346,36.03915 0,0 m 19.50341,36.0392 0,0 m 19.5034,36.03914 0,0 m -11.95859,-135.85623 0,0 m 22.41292,34.30543 0,0 m 22.41285,34.30555 0,0 m 22.41292,34.30554 0,0 m -23.13672,-134.40474 0,0 m 25.16927,32.33751 0,0 m 25.16927,32.3375 0,0 m 25.16928,32.33744 0,0 m -34.15672,-132.03507 0,0 m 27.75368,30.14861 0,0 m 27.75373,30.14854 0,0 m 27.75373,30.14856 0,0 m -44.94344,-128.76341 0,0 m 30.14854,27.75374 0,0 m 30.14861,27.75373 0,0 m 30.14855,27.75368 0,0 m -55.42309,-124.6122 0,0 m 32.33751,25.16922 0,0 m 32.33745,25.16928 0,0 m 32.33749,25.16933 0,0 m -65.52423,-119.60982 0,0 m 34.30549,22.41292 0,0 m 34.30554,22.41289 0,0 m 34.3055,22.41289 0,0 m -75.17779,-113.7903 0,0 m 36.0392,19.50341 0,0 m 36.03915,19.50341 0,0 m 36.03921,19.50341 0,0 m -84.31771,-107.19355 0,0 m 37.52664,16.46074 0,0 m 37.52663,16.4607 0,0 m 37.5267,16.46071 0,0 m -92.88175,-99.86453 0,0 m 38.75784,13.30556 0,0 m 38.75778,13.30561 0,0 m 38.75776,13.30556 0,0 m -100.81115,-91.85336 0,0 m 39.72417,10.05956 0,0 m 39.72424,10.05953 0,0 m 39.72408,10.05954 0,0 m -108.05201,-83.21469 0,0 m 40.41924,6.74478 0,0 m 40.41921,6.74477 0,0 m 40.41926,6.74479 0,0 m -114.55488,-74.00762 0,0 m 40.83815,3.38395 0,0 m 40.83815,3.38394 0,0 m 40.83828,3.38395 0,0"
       style="fill:none;stroke:#000000;stroke-width:2.4000001;stroke-linecap:round;stroke-linejoin:miter;stroke-miterlimit:10;stroke-dasharray:none;stroke-opacity:1;marker-mid:url(#DotM);marker-end:url(#marker4421)"
       id="path394"
       inkscape:connector-curvature="0"
       sodipodi:nodetypes="cccccccccccccccccccccccccccccccccccccccccccccccccccccccccccccccccccccccccccccccccccccccccccccccccccccccccccccccccccccccccccccccccccccccccccccccccccccccccccccccccccccccccccccccccccccccccccccccccccccccccccccccccccccccccccccccccccccccccccccccccccccccccccccccccccccccccccccccccccccccccccccccccccccccccccccccccccccccccccccccccccccccccccccccccccccccc" /></g></svg>