<?xml version="1.0" encoding="UTF-8" standalone="no"?>
<!-- Created with Inkscape (http://www.inkscape.org/) -->

<svg
   xmlns:dc="http://purl.org/dc/elements/1.1/"
   xmlns:cc="http://creativecommons.org/ns#"
   xmlns:rdf="http://www.w3.org/1999/02/22-rdf-syntax-ns#"
   xmlns:svg="http://www.w3.org/2000/svg"
   xmlns="http://www.w3.org/2000/svg"
   xmlns:sodipodi="http://sodipodi.sourceforge.net/DTD/sodipodi-0.dtd"
   xmlns:inkscape="http://www.inkscape.org/namespaces/inkscape"
   width="46.072872mm"
   height="16.4289mm"
   viewBox="0 0 163.25034 58.212636"
   id="svg2"
   version="1.1"
   inkscape:version="0.91 r13725"
   sodipodi:docname="springel.svg">
  <defs
     id="defs4">
    <marker
       style="overflow:visible"
       id="Arrow1Mend"
       refX="0"
       refY="0"
       orient="auto"
       inkscape:stockid="Arrow1Mend">
      <path
         inkscape:connector-curvature="0"
         transform="matrix(-0.4,0,0,-0.4,-4,0)"
         style="fill-rule:evenodd;stroke:#000000;stroke-width:1pt;marker-start:none"
         d="M 0,0 5,-5 -12.5,0 5,5 0,0 Z"
         id="path4309" />
    </marker>
    <marker
       style="overflow:visible"
       id="Arrow1Mstart"
       refX="0"
       refY="0"
       orient="auto"
       inkscape:stockid="Arrow1Mstart">
      <path
         inkscape:connector-curvature="0"
         transform="matrix(0.4,0,0,0.4,4,0)"
         style="fill-rule:evenodd;stroke:#000000;stroke-width:1pt;marker-start:none"
         d="M 0,0 5,-5 -12.5,0 5,5 0,0 Z"
         id="path4306" />
    </marker>
    <marker
       style="overflow:visible"
       id="DotL"
       refX="0"
       refY="0"
       orient="auto"
       inkscape:stockid="DotL">
      <path
         inkscape:connector-curvature="0"
         transform="matrix(0.8,0,0,0.8,5.92,0.8)"
         style="fill-rule:evenodd;stroke:#000000;stroke-width:1pt;marker-start:none;marker-end:none"
         d="m -2.5,-1 c 0,2.76 -2.24,5 -5,5 -2.76,0 -5,-2.24 -5,-5 0,-2.76 2.24,-5 5,-5 2.76,0 5,2.24 5,5 z"
         id="path4362" />
    </marker>
    <marker
       style="overflow:visible"
       id="DotL-1"
       refX="0"
       refY="0"
       orient="auto"
       inkscape:stockid="DotL">
      <path
         transform="matrix(0.8,0,0,0.8,5.92,0.8)"
         style="fill-rule:evenodd;stroke:#000000;stroke-width:1pt;marker-start:none;marker-end:none"
         d="m -2.5,-1 c 0,2.76 -2.24,5 -5,5 -2.76,0 -5,-2.24 -5,-5 0,-2.76 2.24,-5 5,-5 2.76,0 5,2.24 5,5 z"
         id="path4362-9"
         inkscape:connector-curvature="0" />
    </marker>
    <marker
       style="overflow:visible"
       id="marker4952"
       refX="0"
       refY="0"
       orient="auto"
       inkscape:stockid="DotL">
      <path
         transform="matrix(0.8,0,0,0.8,5.92,0.8)"
         style="fill-rule:evenodd;stroke:#000000;stroke-width:1pt;marker-start:none;marker-end:none"
         d="m -2.5,-1 c 0,2.76 -2.24,5 -5,5 -2.76,0 -5,-2.24 -5,-5 0,-2.76 2.24,-5 5,-5 2.76,0 5,2.24 5,5 z"
         id="path4954"
         inkscape:connector-curvature="0" />
    </marker>
    <defs
       id="defs3449">
      <path
         inkscape:connector-curvature="0"
         d="m 0.88,-0.59 c -0.03,0.15 -0.09,0.38 -0.09,0.43 0,0.18 0.14,0.27 0.29,0.27 0.12,0 0.3,-0.08 0.37,-0.28 0.01,-0.02 0.13,-0.49 0.19,-0.74 l 0.22,-0.9 c 0.06,-0.22 0.12,-0.44 0.17,-0.67 0.04,-0.17 0.12,-0.46 0.13,-0.5 0.15,-0.31 0.68,-1.22 1.63,-1.22 0.45,0 0.54,0.37 0.54,0.7 0,0.25 -0.07,0.53 -0.15,0.83 L 3.9,-1.51 3.7,-0.75 c -0.04,0.2 -0.13,0.54 -0.13,0.59 0,0.18 0.14,0.27 0.29,0.27 0.31,0 0.37,-0.25 0.45,-0.57 0.14,-0.56 0.51,-2.02 0.6,-2.41 C 4.94,-3 5.47,-4.2 6.56,-4.2 c 0.43,0 0.54,0.34 0.54,0.7 0,0.57 -0.42,1.71 -0.62,2.24 -0.09,0.24 -0.13,0.35 -0.13,0.55 0,0.47 0.35,0.82 0.82,0.82 0.94,0 1.31,-1.46 1.31,-1.54 0,-0.1 -0.09,-0.1 -0.12,-0.1 -0.1,0 -0.1,0.03 -0.15,0.18 -0.15,0.53 -0.47,1.24 -1.02,1.24 -0.17,0 -0.24,-0.1 -0.24,-0.33 0,-0.25 0.09,-0.49 0.18,-0.71 0.19,-0.52 0.61,-1.63 0.61,-2.2 0,-0.65 -0.4,-1.07 -1.15,-1.07 -0.75,0 -1.26,0.44 -1.63,0.97 C 4.95,-3.58 4.92,-3.92 4.64,-4.16 4.39,-4.37 4.07,-4.42 3.82,-4.42 c -0.9,0 -1.39,0.64 -1.56,0.87 -0.05,-0.57 -0.47,-0.87 -0.92,-0.87 -0.46,0 -0.65,0.39 -0.74,0.57 -0.18,0.35 -0.31,0.94 -0.31,0.97 0,0.1 0.1,0.1 0.12,0.1 0.1,0 0.11,-0.01 0.17,-0.23 0.17,-0.71 0.37,-1.19 0.73,-1.19 0.16,0 0.31,0.08 0.31,0.46 0,0.21 -0.03,0.32 -0.16,0.84 l -0.58,2.31 z"
         id="equation_05_00" />
    </defs>
    <marker
       style="overflow:visible"
       id="Arrow1Mend-7"
       refX="0"
       refY="0"
       orient="auto"
       inkscape:stockid="Arrow1Mend">
      <path
         inkscape:connector-curvature="0"
         transform="matrix(-0.4,0,0,-0.4,-4,0)"
         style="fill-rule:evenodd;stroke:#000000;stroke-width:1pt;marker-start:none"
         d="M 0,0 5,-5 -12.5,0 5,5 0,0 Z"
         id="path4309-0" />
    </marker>
  </defs>
  <sodipodi:namedview
     id="base"
     pagecolor="#ffffff"
     bordercolor="#666666"
     borderopacity="1.0"
     inkscape:pageopacity="0.0"
     inkscape:pageshadow="2"
     inkscape:zoom="7.9195959"
     inkscape:cx="84.45359"
     inkscape:cy="9.4692834"
     inkscape:document-units="px"
     inkscape:current-layer="layer1"
     showgrid="false"
     fit-margin-top="2"
     fit-margin-left="2"
     fit-margin-right="2"
     fit-margin-bottom="2"
     inkscape:window-width="1920"
     inkscape:window-height="1001"
     inkscape:window-x="-9"
     inkscape:window-y="-9"
     inkscape:window-maximized="1" />
  <metadata
     id="metadata7">
    <rdf:RDF>
      <cc:Work
         rdf:about="">
        <dc:format>image/svg+xml</dc:format>
        <dc:type
           rdf:resource="http://purl.org/dc/dcmitype/StillImage" />
        <dc:title />
      </cc:Work>
    </rdf:RDF>
  </metadata>
  <g
     inkscape:label="Layer 1"
     inkscape:groupmode="layer"
     id="layer1"
     transform="translate(212.78175,-300.67117)">
    <text
       xml:space="preserve"
       style="font-style:normal;font-weight:normal;font-size:16.61752319px;line-height:125%;font-family:Sans;letter-spacing:0px;word-spacing:0px;fill:#000000;fill-opacity:1;stroke:none;stroke-width:1px;stroke-linecap:butt;stroke-linejoin:miter;stroke-opacity:1"
       x="-131.51881"
       y="318.76041"
       id="text4381"
       sodipodi:linespacing="125%"><tspan
         sodipodi:role="line"
         id="tspan4383"
         x="-131.51881"
         y="318.76041"
         style="font-style:italic;font-variant:normal;font-weight:normal;font-stretch:normal;font-family:'Times New Roman';-inkscape-font-specification:'Times New Roman,  Italic'">K</tspan></text>
    <text
       sodipodi:linespacing="125%"
       id="text4381-4"
       y="323.97748"
       x="-77.609467"
       style="font-style:normal;font-weight:normal;font-size:16.61752319px;line-height:125%;font-family:Sans;letter-spacing:0px;word-spacing:0px;fill:#000000;fill-opacity:1;stroke:none;stroke-width:1px;stroke-linecap:butt;stroke-linejoin:miter;stroke-opacity:1"
       xml:space="preserve"><tspan
         style="font-style:italic;font-variant:normal;font-weight:normal;font-stretch:normal;font-family:'Times New Roman';-inkscape-font-specification:'Times New Roman,  Italic'"
         y="323.97748"
         x="-77.609467"
         id="tspan4383-2"
         sodipodi:role="line">f<tspan
   id="tspan4403"
   style="font-size:64.99999762%;baseline-shift:sub">2</tspan></tspan></text>
    <text
       sodipodi:linespacing="125%"
       id="text4381-4-3"
       y="323.97748"
       x="-202.6402"
       style="font-style:normal;font-weight:normal;font-size:16.61752319px;line-height:125%;font-family:Sans;letter-spacing:0px;word-spacing:0px;fill:#000000;fill-opacity:1;stroke:none;stroke-width:1px;stroke-linecap:butt;stroke-linejoin:miter;stroke-opacity:1"
       xml:space="preserve"><tspan
         style="font-style:italic;font-variant:normal;font-weight:normal;font-stretch:normal;font-family:'Times New Roman';-inkscape-font-specification:'Times New Roman,  Italic'"
         y="323.97748"
         x="-202.6402"
         id="tspan4383-2-5"
         sodipodi:role="line">f<tspan
   id="tspan4403-7"
   style="font-size:64.99999762%;baseline-shift:sub">1</tspan></tspan></text>
    <path
       style="fill:none;stroke:#000000;stroke-width:1;stroke-linecap:butt;stroke-linejoin:miter;stroke-miterlimit:4;stroke-dasharray:none;stroke-opacity:1"
       d="m -181.61917,333.79503 20.73106,0 6.06895,-7.48955 8.20814,14.17847 8.15656,-14.17847 8.43293,14.17847 7.90742,-14.17847 8.41686,14.17847 8.38558,-14.17847 7.593639,14.17847 5.071485,-6.68892 23.411568,0"
       id="path3502"
       inkscape:connector-curvature="0"
       sodipodi:nodetypes="cccccccccccc" />
    <path
       style="fill:none;stroke:#000000;stroke-width:1.5;stroke-linecap:butt;stroke-linejoin:miter;stroke-miterlimit:4;stroke-dasharray:none;stroke-opacity:1;marker-end:url(#Arrow1Mend)"
       d="m -84.264844,333.78566 24.781799,0"
       id="path5175"
       inkscape:connector-curvature="0" />
    <text
       sodipodi:linespacing="125%"
       id="text4381-4-3-8"
       y="348.47369"
       x="-206.18198"
       style="font-style:normal;font-weight:normal;font-size:16.61752319px;line-height:125%;font-family:Sans;letter-spacing:0px;word-spacing:0px;fill:#000000;fill-opacity:1;stroke:none;stroke-width:1px;stroke-linecap:butt;stroke-linejoin:miter;stroke-opacity:1"
       xml:space="preserve"><tspan
         style="font-style:italic;font-variant:normal;font-weight:normal;font-stretch:normal;font-family:'Times New Roman';-inkscape-font-specification:'Times New Roman,  Italic'"
         y="348.47369"
         x="-206.18198"
         id="tspan4383-2-5-7"
         sodipodi:role="line">u<tspan
   id="tspan4403-7-2"
   style="font-size:64.99999762%;baseline-shift:sub">1</tspan></tspan></text>
    <text
       sodipodi:linespacing="125%"
       id="text4381-4-3-8-7"
       y="348.47369"
       x="-81.151237"
       style="font-style:normal;font-weight:normal;font-size:16.61752319px;line-height:125%;font-family:Sans;letter-spacing:0px;word-spacing:0px;fill:#000000;fill-opacity:1;stroke:none;stroke-width:1px;stroke-linecap:butt;stroke-linejoin:miter;stroke-opacity:1"
       xml:space="preserve"><tspan
         style="font-style:italic;font-variant:normal;font-weight:normal;font-stretch:normal;font-family:'Times New Roman';-inkscape-font-specification:'Times New Roman,  Italic'"
         y="348.47369"
         x="-81.151237"
         id="tspan4383-2-5-7-6"
         sodipodi:role="line">u<tspan
   id="tspan4403-7-2-5"
   style="font-size:64.99999762%;baseline-shift:sub">2</tspan></tspan></text>
    <path
       style="fill:none;stroke:#000000;stroke-width:1.5;stroke-linecap:butt;stroke-linejoin:miter;stroke-miterlimit:4;stroke-dasharray:none;stroke-opacity:1;marker-end:url(#Arrow1Mend-7)"
       d="m -203.73209,333.78566 24.7818,0"
       id="path5175-0"
       inkscape:connector-curvature="0" />
  </g>
</svg>
