<?xml version="1.0" encoding="UTF-8" standalone="no"?>
<!-- Created with Inkscape (http://www.inkscape.org/) -->

<svg
   xmlns:dc="http://purl.org/dc/elements/1.1/"
   xmlns:cc="http://creativecommons.org/ns#"
   xmlns:rdf="http://www.w3.org/1999/02/22-rdf-syntax-ns#"
   xmlns:svg="http://www.w3.org/2000/svg"
   xmlns="http://www.w3.org/2000/svg"
   xmlns:sodipodi="http://sodipodi.sourceforge.net/DTD/sodipodi-0.dtd"
   xmlns:inkscape="http://www.inkscape.org/namespaces/inkscape"
   id="svg2"
   version="1.1"
   inkscape:version="0.91 r13725"
   xml:space="preserve"
   width="911.25"
   height="687.5"
   viewBox="0 0 911.25 687.5"
   sodipodi:docname="anillo.svg"><metadata
     id="metadata8"><rdf:RDF><cc:Work
         rdf:about=""><dc:format>image/svg+xml</dc:format><dc:type
           rdf:resource="http://purl.org/dc/dcmitype/StillImage" /><dc:title></dc:title></cc:Work></rdf:RDF></metadata><defs
     id="defs6" /><sodipodi:namedview
     pagecolor="#ffffff"
     bordercolor="#666666"
     borderopacity="1"
     objecttolerance="10"
     gridtolerance="10"
     guidetolerance="10"
     inkscape:pageopacity="0"
     inkscape:pageshadow="2"
     inkscape:window-width="1920"
     inkscape:window-height="1016"
     id="namedview4"
     showgrid="false"
     inkscape:zoom="0.97092189"
     inkscape:cx="600.44705"
     inkscape:cy="343.72157"
     inkscape:window-x="0"
     inkscape:window-y="0"
     inkscape:window-maximized="1"
     inkscape:current-layer="g10" /><g
     id="g10"
     inkscape:groupmode="layer"
     inkscape:label="anillo"
     transform="matrix(1.25,0,0,-1.25,0,687.5)"><path
       d="m 342.49911,249.64069 0,0 m -214.81567,0 0,0 m 429.63138,0 0,0 m -322.22354,0 0,0 m 214.81567,0 0,0"
       style="fill:none;stroke:#5a5a5a;stroke-width:4;stroke-linecap:round;stroke-linejoin:miter;stroke-miterlimit:10;stroke-dasharray:none;stroke-opacity:1"
       id="path12"
       inkscape:connector-curvature="0" /><path
       d="m 557.31482,249.64069 -0.66223,16.85424 -1.98255,16.75034 -3.29064,16.54315 -4.57844,16.23398 -5.83807,15.82468 -7.06158,15.3179 -8.2417,14.71658 -9.37097,14.02463 -10.44239,13.24612 -11.44952,12.38602 -12.38599,11.44946 -13.24612,10.44245 -14.02463,9.37091 -14.71658,8.2417 -15.31787,7.06164 -15.82471,5.83804 -16.23398,4.57847 -16.54315,3.29065 -16.75034,1.98251 -16.85425,0.6622 -16.85424,-0.6622 -16.75031,-1.98251 -16.54315,-3.29065 -16.23398,-4.57847 -15.82471,-5.83804 -15.31787,-7.06164 -14.71661,-8.2417 -14.02461,-9.37091 -13.24613,-10.44245 -12.386,-11.44946 -11.44951,-12.38602 -10.4424,-13.24612 -9.37094,-14.02463 -8.2417,-14.71658 -7.06163,-15.3179 -5.83804,-15.82468 -4.57846,-16.23398 -3.29063,-16.54315 -1.98255,-16.75034 -0.6622,-16.85424 0.6622,-16.85424 1.98255,-16.75033 3.29063,-16.54315 4.57846,-16.23397 5.83804,-15.8247 7.06163,-15.31788 8.2417,-14.71661 9.37094,-14.0246 10.4424,-13.24614 11.44951,-12.385997 12.386,-11.449494 13.24613,-10.442413 14.02461,-9.370926 14.71661,-8.241699 15.31787,-7.061646 15.82471,-5.838043 16.23398,-4.578446 16.54315,-3.290649 16.75031,-1.982529 16.85424,-0.662201 16.85425,0.662201 16.75034,1.982529 16.54315,3.290649 16.23398,4.578446 15.82471,5.838043 15.31787,7.061646 14.71658,8.241699 14.02463,9.370926 13.24612,10.442413 12.38599,11.449494 11.44952,12.385997 10.44239,13.24614 9.37097,14.0246 8.2417,14.71661 7.06158,15.31788 5.83807,15.8247 4.57844,16.23397 3.29064,16.54315 1.98255,16.75033 0.66223,16.85424 m -107.40787,0 -0.33108,8.42712 -0.99128,8.37518 -1.64532,8.27158 -2.28922,8.11697 -2.91903,7.91236 -3.53083,7.65893 -4.12084,7.35831 -4.68546,7.0123 -5.22122,6.62307 -5.72473,6.193 -6.193,5.72473 -6.62307,5.22122 -7.0123,4.68546 -7.35831,4.12085 -7.65894,3.53082 -7.91235,2.91904 -8.11697,2.28921 -8.27158,1.64533 -8.37518,0.99127 -8.42713,0.33108 -8.42712,-0.33108 -8.37515,-0.99127 -8.27158,-1.64533 -8.11697,-2.28921 -7.91236,-2.91904 -7.65893,-3.53082 -7.35834,-4.12085 -7.01227,-4.68546 -6.62307,-5.22122 -6.19303,-5.72473 -5.72473,-6.193 -5.22122,-6.62307 -4.68546,-7.0123 -4.12085,-7.35831 -3.5308,-7.65893 -2.91902,-7.91236 -2.28924,-8.11697 -1.64532,-8.27158 -0.99127,-8.37518 -0.3311,-8.42712 0.3311,-8.42713 0.99127,-8.37515 1.64532,-8.27158 2.28924,-8.11699 2.91902,-7.91235 3.5308,-7.65894 4.12085,-7.35829 4.68546,-7.01231 5.22122,-6.62306 5.72473,-6.19301 6.19303,-5.72475 6.62307,-5.2212 7.01227,-4.68548 7.35834,-4.12084 7.65893,-3.53081 7.91236,-2.91902 8.11697,-2.28923 8.27158,-1.64533 8.37515,-0.99126 8.42712,-0.3311 8.42713,0.3311 8.37518,0.99126 8.27158,1.64533 8.11697,2.28923 7.91235,2.91902 7.65894,3.53081 7.35831,4.12084 7.0123,4.68548 6.62307,5.2212 6.193,5.72475 5.72473,6.19301 5.22122,6.62306 4.68546,7.01231 4.12084,7.35829 3.53083,7.65894 2.91903,7.91235 2.28922,8.11699 1.64532,8.27158 0.99128,8.37515 0.33108,8.42713 m -322.22351,0 107.40784,0 m 214.81567,0 107.40787,0"
       style="fill:none;stroke:#0000ff;stroke-width:2;stroke-linecap:butt;stroke-linejoin:miter;stroke-miterlimit:10;stroke-dasharray:none;stroke-opacity:1"
       id="path14"
       inkscape:connector-curvature="0" /><text
       transform="matrix(1,0,0,-1,344.99911,466.95636)"
       style="font-variant:normal;font-weight:normal;font-size:15px;font-family:Helvetica;-inkscape-font-specification:Helvetica;writing-mode:lr-tb;fill:#0000ff;fill-opacity:1;fill-rule:nonzero;stroke:none"
       id="text16"><tspan
         x="0"
         y="0"
         id="tspan18">1</tspan></text>
<text
       transform="matrix(1,0,0,-1,344.99911,37.325027)"
       style="font-variant:normal;font-weight:normal;font-size:15px;font-family:Helvetica;-inkscape-font-specification:Helvetica;writing-mode:lr-tb;fill:#0000ff;fill-opacity:1;fill-rule:nonzero;stroke:none"
       id="text20"><tspan
         x="0"
         y="0"
         id="tspan22">2</tspan></text>
<text
       transform="matrix(1,0,0,-1,344.99911,359.54852)"
       style="font-variant:normal;font-weight:normal;font-size:15px;font-family:Helvetica;-inkscape-font-specification:Helvetica;writing-mode:lr-tb;fill:#0000ff;fill-opacity:1;fill-rule:nonzero;stroke:none"
       id="text24"><tspan
         x="0"
         y="0"
         id="tspan26">3</tspan></text>
<text
       transform="matrix(1,0,0,-1,344.99911,144.73285)"
       style="font-variant:normal;font-weight:normal;font-size:15px;font-family:Helvetica;-inkscape-font-specification:Helvetica;writing-mode:lr-tb;fill:#0000ff;fill-opacity:1;fill-rule:nonzero;stroke:none"
       id="text28"><tspan
         x="0"
         y="0"
         id="tspan30">4</tspan></text>
<text
       transform="matrix(1,0,0,-1,183.88734,252.14069)"
       style="font-variant:normal;font-weight:normal;font-size:15px;font-family:Helvetica;-inkscape-font-specification:Helvetica;writing-mode:lr-tb;fill:#0000ff;fill-opacity:1;fill-rule:nonzero;stroke:none"
       id="text32"><tspan
         x="0"
         y="0"
         id="tspan34">5</tspan></text>
<text
       transform="matrix(1,0,0,-1,506.1109,252.14069)"
       style="font-variant:normal;font-weight:normal;font-size:15px;font-family:Helvetica;-inkscape-font-specification:Helvetica;writing-mode:lr-tb;fill:#0000ff;fill-opacity:1;fill-rule:nonzero;stroke:none"
       id="text36"><tspan
         x="0"
         y="0"
         id="tspan38">6</tspan></text>
<text
       transform="matrix(1,0,0,-1,345.99911,253.14069)"
       style="font-variant:normal;font-weight:normal;font-size:15px;font-family:Helvetica;-inkscape-font-specification:Helvetica;writing-mode:lr-tb;fill:#5a5a5a;fill-opacity:1;fill-rule:nonzero;stroke:none"
       id="text40"><tspan
         x="0"
         y="0"
         id="tspan42">1</tspan></text>
<text
       transform="matrix(1,0,0,-1,131.18344,253.14069)"
       style="font-variant:normal;font-weight:normal;font-size:15px;font-family:Helvetica;-inkscape-font-specification:Helvetica;writing-mode:lr-tb;fill:#5a5a5a;fill-opacity:1;fill-rule:nonzero;stroke:none"
       id="text44"><tspan
         x="0"
         y="0"
         id="tspan46">2</tspan></text>
<text
       transform="matrix(1,0,0,-1,560.81482,253.14069)"
       style="font-variant:normal;font-weight:normal;font-size:15px;font-family:Helvetica;-inkscape-font-specification:Helvetica;writing-mode:lr-tb;fill:#5a5a5a;fill-opacity:1;fill-rule:nonzero;stroke:none"
       id="text48"><tspan
         x="0"
         y="0"
         id="tspan50">3</tspan></text>
<text
       transform="matrix(1,0,0,-1,238.59129,253.14069)"
       style="font-variant:normal;font-weight:normal;font-size:15px;font-family:Helvetica;-inkscape-font-specification:Helvetica;writing-mode:lr-tb;fill:#5a5a5a;fill-opacity:1;fill-rule:nonzero;stroke:none"
       id="text52"><tspan
         x="0"
         y="0"
         id="tspan54">4</tspan></text>
<text
       transform="matrix(1,0,0,-1,453.40698,253.14069)"
       style="font-variant:normal;font-weight:normal;font-size:15px;font-family:Helvetica;-inkscape-font-specification:Helvetica;writing-mode:lr-tb;fill:#5a5a5a;fill-opacity:1;fill-rule:nonzero;stroke:none"
       id="text56"><tspan
         x="0"
         y="0"
         id="tspan58">5</tspan></text>
<text
       transform="matrix(1,0,0,-1,702,42.999985)"
       style="font-variant:normal;font-weight:normal;font-size:15px;font-family:Helvetica;-inkscape-font-specification:Helvetica;writing-mode:lr-tb;fill:#000000;fill-opacity:1;fill-rule:nonzero;stroke:none"
       id="text60"><tspan
         x="0"
         y="0"
         id="tspan62">X</tspan></text>
<text
       transform="matrix(1,0,0,-1,672,73)"
       style="font-variant:normal;font-weight:normal;font-size:15px;font-family:Helvetica;-inkscape-font-specification:Helvetica;writing-mode:lr-tb;fill:#000000;fill-opacity:1;fill-rule:nonzero;stroke:none"
       id="text64"><tspan
         x="0"
         y="0"
         id="tspan66">Y</tspan></text>
<text
       transform="matrix(1,0,0,-1,672,42.999985)"
       style="font-variant:normal;font-weight:normal;font-size:15px;font-family:Helvetica;-inkscape-font-specification:Helvetica;writing-mode:lr-tb;fill:#000000;fill-opacity:1;fill-rule:nonzero;stroke:none"
       id="text68"><tspan
         x="0"
         y="0"
         id="tspan70">Z</tspan></text>
<path
       d="m 669,40 30,0 m -30,0 0,30 m 0,-30 0,0"
       style="fill:none;stroke:#000000;stroke-width:1;stroke-linecap:butt;stroke-linejoin:miter;stroke-miterlimit:10;stroke-dasharray:none;stroke-opacity:1"
       id="path72"
       inkscape:connector-curvature="0" /></g></svg>