<?xml version="1.0" encoding="UTF-8" standalone="no"?>
<!-- Created with Inkscape (http://www.inkscape.org/) -->

<svg
   xmlns:dc="http://purl.org/dc/elements/1.1/"
   xmlns:cc="http://creativecommons.org/ns#"
   xmlns:rdf="http://www.w3.org/1999/02/22-rdf-syntax-ns#"
   xmlns:svg="http://www.w3.org/2000/svg"
   xmlns="http://www.w3.org/2000/svg"
   xmlns:sodipodi="http://sodipodi.sourceforge.net/DTD/sodipodi-0.dtd"
   xmlns:inkscape="http://www.inkscape.org/namespaces/inkscape"
   width="50.000004mm"
   height="40mm"
   viewBox="0 0 177.16537 141.73228"
   id="svg2"
   version="1.1"
   inkscape:version="0.91 r13725"
   sodipodi:docname="drawing.svg">
  <defs
     id="defs4">
    <marker
       inkscape:stockid="DotL"
       orient="auto"
       refY="0"
       refX="0"
       id="DotL"
       style="overflow:visible"
       inkscape:isstock="true">
      <path
         id="path4205"
         d="m -2.5,-1 c 0,2.76 -2.24,5 -5,5 -2.76,0 -5,-2.24 -5,-5 0,-2.76 2.24,-5 5,-5 2.76,0 5,2.24 5,5 z"
         style="fill:#272727;fill-opacity:1;fill-rule:evenodd;stroke:#272727;stroke-width:1pt;stroke-opacity:1"
         transform="matrix(0.8,0,0,0.8,5.92,0.8)"
         inkscape:connector-curvature="0" />
    </marker>
    <marker
       inkscape:stockid="DotM"
       orient="auto"
       refY="0"
       refX="0"
       id="marker4408"
       style="overflow:visible"
       inkscape:isstock="true">
      <path
         id="path4410"
         d="m -2.5,-1 c 0,2.76 -2.24,5 -5,5 -2.76,0 -5,-2.24 -5,-5 0,-2.76 2.24,-5 5,-5 2.76,0 5,2.24 5,5 z"
         style="fill:#272727;fill-opacity:1;fill-rule:evenodd;stroke:#272727;stroke-width:1pt;stroke-opacity:1"
         transform="matrix(0.4,0,0,0.4,2.96,0.4)"
         inkscape:connector-curvature="0" />
    </marker>
    <marker
       inkscape:stockid="DotM"
       orient="auto"
       refY="0"
       refX="0"
       id="DotM"
       style="overflow:visible"
       inkscape:isstock="true">
      <path
         id="path4208"
         d="m -2.5,-1 c 0,2.76 -2.24,5 -5,5 -2.76,0 -5,-2.24 -5,-5 0,-2.76 2.24,-5 5,-5 2.76,0 5,2.24 5,5 z"
         style="fill-rule:evenodd;stroke:#000000;stroke-width:1pt"
         transform="matrix(0.4,0,0,0.4,2.96,0.4)"
         inkscape:connector-curvature="0" />
    </marker>
  </defs>
  <sodipodi:namedview
     id="base"
     pagecolor="#ffffff"
     bordercolor="#666666"
     borderopacity="1.0"
     inkscape:pageopacity="0.0"
     inkscape:pageshadow="2"
     inkscape:zoom="2.8045833"
     inkscape:cx="9.0230042"
     inkscape:cy="51.402368"
     inkscape:document-units="px"
     inkscape:current-layer="layer1"
     showgrid="false"
     fit-margin-top="0"
     fit-margin-left="0"
     fit-margin-right="0"
     fit-margin-bottom="0"
     inkscape:window-width="1920"
     inkscape:window-height="1023"
     inkscape:window-x="0"
     inkscape:window-y="0"
     inkscape:window-maximized="1" />
  <metadata
     id="metadata7">
    <rdf:RDF>
      <cc:Work
         rdf:about="">
        <dc:format>image/svg+xml</dc:format>
        <dc:type
           rdf:resource="http://purl.org/dc/dcmitype/StillImage" />
        <dc:title></dc:title>
      </cc:Work>
    </rdf:RDF>
  </metadata>
  <g
     inkscape:label="Layer 1"
     inkscape:groupmode="layer"
     id="layer1"
     transform="translate(8.0006523,-906.13819)">
    <rect
       style="color:#000000;clip-rule:nonzero;display:inline;overflow:visible;visibility:visible;opacity:1;isolation:auto;mix-blend-mode:normal;color-interpolation:sRGB;color-interpolation-filters:linearRGB;solid-color:#000000;solid-opacity:1;fill:#beb7c8;fill-opacity:0.69184289;fill-rule:evenodd;stroke:#272727;stroke-width:1.00000012;stroke-linecap:square;stroke-linejoin:bevel;stroke-miterlimit:4;stroke-dasharray:none;stroke-dashoffset:0;stroke-opacity:1;color-rendering:auto;image-rendering:auto;shape-rendering:auto;text-rendering:auto;enable-background:accumulate"
       id="rect4548"
       width="94.417969"
       height="94.418022"
       x="33.373051"
       y="927.95898" />
    <path
       style="fill:none;fill-rule:evenodd;stroke:#000000;stroke-width:1px;stroke-linecap:butt;stroke-linejoin:miter;stroke-opacity:1"
       d="m 34.274254,929.2157 93.685916,93.6859"
       id="path4138"
       inkscape:connector-curvature="0" />
    <path
       inkscape:connector-curvature="0"
       id="path4535"
       d="m 128.67756,929.84394 c -0.78065,0.78065 -2.04778,0.78065 -2.82843,0 -0.78064,-0.78065 -0.78064,-2.04778 0,-2.82843 0.78065,-0.78064 2.04778,-0.78064 2.82843,0 0.78065,0.78065 0.78065,2.04778 0,2.82843 z"
       style="fill:#ffffff;fill-opacity:1;fill-rule:evenodd;stroke:#272727;stroke-width:1.00000012;stroke-miterlimit:4;stroke-dasharray:none;stroke-opacity:1" />
    <path
       inkscape:connector-curvature="0"
       id="path4537"
       d="m 125.9057,1023.2624 c -0.78065,-0.7806 -0.78065,-2.0478 0,-2.8284 0.78065,-0.7806 2.04778,-0.7806 2.82843,0 0.78064,0.7806 0.78064,2.0478 0,2.8284 -0.78065,0.7807 -2.04778,0.7807 -2.82843,0 z"
       style="fill:#ffffff;fill-opacity:1;fill-rule:evenodd;stroke:#272727;stroke-width:1.00000012;stroke-miterlimit:4;stroke-dasharray:none;stroke-opacity:1" />
    <path
       inkscape:connector-curvature="0"
       id="path4539"
       d="m 32.487194,1020.4906 c 0.780646,-0.7807 2.047781,-0.7807 2.828427,0 0.780646,0.7806 0.780646,2.0478 0,2.8284 -0.780646,0.7806 -2.047781,0.7806 -2.828427,0 -0.780646,-0.7806 -0.780646,-2.0478 0,-2.8284 z"
       style="fill:#ffffff;fill-opacity:1;fill-rule:evenodd;stroke:#272727;stroke-width:1.00000012;stroke-miterlimit:4;stroke-dasharray:none;stroke-opacity:1" />
    <path
       inkscape:connector-curvature="0"
       id="path4541"
       d="m 33.873123,926.49801 c 1.104,0 2,0.896 2,2 0,1.104 -0.896,2 -2,2 -1.104,0 -2,-0.896 -2,-2 0,-1.104 0.896,-2 2,-2 z"
       style="fill:#ffffff;fill-opacity:1;fill-rule:evenodd;stroke:#272727;stroke-width:1.00000012;stroke-miterlimit:4;stroke-dasharray:none;stroke-opacity:1" />
    <text
       xml:space="preserve"
       style="font-style:normal;font-weight:normal;font-size:12.50000095px;line-height:125%;font-family:sans-serif;letter-spacing:10.56000042px;word-spacing:0px;fill:#000000;fill-opacity:1;stroke:none;stroke-width:1px;stroke-linecap:butt;stroke-linejoin:miter;stroke-opacity:1"
       x="26.368996"
       y="1035.7278"
       id="text4571"
       sodipodi:linespacing="125%"><tspan
         sodipodi:role="line"
         id="tspan4573"
         x="26.368996"
         y="1035.7278">0</tspan></text>
    <text
       xml:space="preserve"
       style="font-style:normal;font-weight:normal;font-size:12.50000095px;line-height:125%;font-family:sans-serif;letter-spacing:10.56000042px;word-spacing:0px;fill:#000000;fill-opacity:1;stroke:none;stroke-width:1px;stroke-linecap:butt;stroke-linejoin:miter;stroke-opacity:1"
       x="120.69444"
       y="1035.7339"
       id="text4571-9"
       sodipodi:linespacing="125%"><tspan
         sodipodi:role="line"
         id="tspan4573-6"
         x="120.69444"
         y="1035.7339">1</tspan></text>
    <text
       xml:space="preserve"
       style="font-style:normal;font-weight:normal;font-size:12.50000095px;line-height:125%;font-family:sans-serif;letter-spacing:10.56000042px;word-spacing:0px;fill:#000000;fill-opacity:1;stroke:none;stroke-width:1px;stroke-linecap:butt;stroke-linejoin:miter;stroke-opacity:1"
       x="120.82871"
       y="924.71021"
       id="text4571-0"
       sodipodi:linespacing="125%"><tspan
         sodipodi:role="line"
         id="tspan4573-4"
         x="120.82871"
         y="924.71021">3</tspan></text>
    <text
       xml:space="preserve"
       style="font-style:normal;font-weight:normal;font-size:12.50000095px;line-height:125%;font-family:sans-serif;letter-spacing:10.56000042px;word-spacing:0px;fill:#000000;fill-opacity:1;stroke:none;stroke-width:1px;stroke-linecap:butt;stroke-linejoin:miter;stroke-opacity:1"
       x="26.533791"
       y="924.79871"
       id="text4571-1"
       sodipodi:linespacing="125%"><tspan
         sodipodi:role="line"
         id="tspan4573-0"
         x="26.533791"
         y="924.79871">2</tspan></text>
    <text
       xml:space="preserve"
       style="font-style:normal;font-weight:normal;font-size:12.50000095px;line-height:125%;font-family:sans-serif;letter-spacing:10.56000042px;word-spacing:0px;fill:#4d4d4d;fill-opacity:1;stroke:none;stroke-width:1px;stroke-linecap:butt;stroke-linejoin:miter;stroke-opacity:1"
       x="54.114651"
       y="993.31049"
       id="text4571-4"
       sodipodi:linespacing="125%"><tspan
         sodipodi:role="line"
         id="tspan4573-8"
         x="54.114651"
         y="993.31049">0</tspan></text>
    <text
       xml:space="preserve"
       style="font-style:normal;font-weight:normal;font-size:12.50000095px;line-height:125%;font-family:sans-serif;letter-spacing:10.56000042px;word-spacing:0px;fill:#4d4d4d;fill-opacity:1;stroke:none;stroke-width:1px;stroke-linecap:butt;stroke-linejoin:miter;stroke-opacity:1"
       x="97.821945"
       y="965.87201"
       id="text4571-7"
       sodipodi:linespacing="125%"><tspan
         sodipodi:role="line"
         id="tspan4573-08"
         x="97.821945"
         y="965.87201">1</tspan></text>
  </g>
</svg>
